<?xml version="1.0" encoding="UTF-8" standalone="no"?>
<svg
   viewBox="0 0 839.55 1074.48"
   version="1.1"
   id="svg18"
   sodipodi:docname="bg-2.svg"
   inkscape:version="1.2.1 (9c6d41e410, 2022-07-14, custom)"
   xmlns:inkscape="http://www.inkscape.org/namespaces/inkscape"
   xmlns:sodipodi="http://sodipodi.sourceforge.net/DTD/sodipodi-0.dtd"
   xmlns="http://www.w3.org/2000/svg"
   xmlns:svg="http://www.w3.org/2000/svg">
  <sodipodi:namedview
     id="namedview20"
     pagecolor="#ffffff"
     bordercolor="#666666"
     borderopacity="1.0"
     inkscape:showpageshadow="2"
     inkscape:pageopacity="0.0"
     inkscape:pagecheckerboard="0"
     inkscape:deskcolor="#d1d1d1"
     showgrid="false"
     inkscape:zoom="0.69149729"
     inkscape:cx="419.3798"
     inkscape:cy="538.68613"
     inkscape:window-width="1863"
     inkscape:window-height="1049"
     inkscape:window-x="57"
     inkscape:window-y="0"
     inkscape:window-maximized="1"
     inkscape:current-layer="Layer_1" />
  <defs
     id="defs4">
    <style
       id="style2">.cls-1{fill:#fff;stroke:#dbdbdb;stroke-miterlimit:10;stroke-width:2.78px;}.cls-2{fill:none;}</style>
  </defs>
  <title
     id="title6">Bg2</title>
  <g
     id="Calque_2"
     data-name="Calque 2">
    <g
       id="Layer_1"
       data-name="Layer 1">
      <path
         class="cls-1"
         d="M280,69.27C295.13,42.92,350.15,1.39,421.22,1.39s126.1,41.53,141.27,67.88c72,125,112.38,257.34,112.38,257.34C616.16,217.69,497,216.7,421.22,216.7s-194.93,1-253.64,109.91C167.58,326.61,208,194.27,280,69.27Z"
         id="path8"
         style="fill:#fff5fd;fill-opacity:1;stroke:#fcfcfc;stroke-opacity:1" />
      <path
         class="cls-1"
         d="M317.46,223.8c-56.76,10.58-114.37,36.95-149.88,102.81-91.39,246.89,584.59,745.7,584.59,745.7l85.67-205.94C440.46,585.66,340.78,346.74,317.46,223.8Z"
         id="path10"
         style="fill:#fff5fd;fill-opacity:1;stroke:#fcfcfc;stroke-opacity:1" />
      <path
         class="cls-1"
         d="M674.87,326.61c-31.79-59-81.31-86.27-132.06-98.94-7,118.79-92.41,342.13-541.06,613.46,22.05,51.14,109,190.53,109,190.53S766.26,573.5,674.87,326.61Z"
         id="path12"
         style="fill:#fff5fd;fill-opacity:1;stroke:#fafafa;stroke-opacity:1" />
      <rect
         class="cls-2"
         x="40.3"
         y="85.91"
         width="695.34"
         height="983.41"
         id="rect14" />
    </g>
  </g>
</svg>
