<?xml version="1.0" encoding="utf-8"?>
<!-- Generator: Adobe Illustrator 24.0.0, SVG Export Plug-In . SVG Version: 6.00 Build 0)  -->
<svg version="1.1" id="Layer_1" xmlns="http://www.w3.org/2000/svg" xmlns:xlink="http://www.w3.org/1999/xlink" x="0px" y="0px"
	 viewBox="0 0 957.3 335.3" style="enable-background:new 0 0 957.3 335.3;" xml:space="preserve">
<style type="text/css">
	.st0{fill:#BDEBFF;}
	.st1{fill:#E9F7FF;}
</style>
<title>boutique-tayara</title>
<path class="st0" d="M55.8,4.9c10.5,0,19.4,1,26.7,2.9s13.4,4.7,18,8.2c4.5,3.3,8,7.8,10.1,12.9c2.2,5.4,3.3,11.2,3.2,17
	c0,3.3-0.5,6.6-1.4,9.8c-1,3.2-2.5,6.2-4.6,8.8c-2.3,2.9-5,5.5-8,7.6c-3.7,2.5-7.6,4.4-11.8,5.9c10,2.4,17.4,6.3,22.2,11.8
	s7.2,12.4,7.2,21c0.1,6.2-1.2,12.3-3.7,18c-2.5,5.6-6.3,10.6-11,14.5c-5.2,4.4-11.3,7.7-17.8,9.7c-7.8,2.4-16,3.6-24.2,3.5H0V4.9
	H55.8z M35.2,31.2v37.5h18.3c3.5,0,7.1-0.2,10.5-0.8c2.8-0.4,5.6-1.4,8-2.9c2.2-1.4,3.9-3.4,5-5.7c1.2-2.9,1.8-6,1.7-9.2
	c0.1-3.1-0.4-6.1-1.3-9c-0.8-2.3-2.3-4.3-4.2-5.8c-2.1-1.6-4.6-2.6-7.1-3.1c-3.4-0.7-6.8-1-10.2-0.9L35.2,31.2z M59.9,129.9
	c3.9,0.1,7.7-0.5,11.4-1.8c2.6-1,5-2.5,6.9-4.6c1.6-1.8,2.8-4,3.4-6.3c0.6-2.3,0.9-4.8,0.9-7.2c0-2.5-0.3-5.1-1.1-7.5
	c-0.7-2.2-2-4.1-3.7-5.6c-2.1-1.7-4.4-2.9-7-3.5c-3.6-0.9-7.3-1.3-11-1.2H35.2V130L59.9,129.9z"/>
<path class="st0" d="M183.8,46.9c7.6-0.1,15.2,1.2,22.4,3.8c6.5,2.4,12.4,6.2,17.3,11c4.9,5,8.8,10.9,11.2,17.4
	c2.8,7.4,4.1,15.2,4,23c0.1,7.9-1.2,15.8-4,23.2c-2.5,6.6-6.3,12.6-11.2,17.6c-4.9,4.9-10.8,8.7-17.3,11.1c-7.2,2.7-14.7,4-22.4,3.9
	c-7.7,0.1-15.3-1.2-22.5-3.9c-6.5-2.5-12.5-6.2-17.5-11.1c-5-5-8.9-11-11.3-17.6c-2.8-7.4-4.1-15.3-4-23.2c-0.1-7.8,1.2-15.6,4-23
	c2.5-6.5,6.4-12.5,11.3-17.4c5-4.8,11-8.6,17.5-11C168.5,48.1,176.1,46.8,183.8,46.9z M183.8,134.2c7.4,0,12.9-2.6,16.4-7.9
	c3.5-5.2,5.3-13.2,5.2-23.9c0-10.7-1.7-18.6-5.2-23.8c-3.5-5.2-9-7.8-16.4-7.8c-7.6,0-13.2,2.6-16.8,7.8c-3.5,5.2-5.3,13.1-5.3,23.8
	c0,10.7,1.8,18.6,5.3,23.9C170.6,131.6,176.2,134.2,183.8,134.2L183.8,134.2z"/>
<path class="st0" d="M351.7,48.6v107.9h-20c-4,0-6.6-1.8-7.9-5.4l-1.8-6.2c-2,2-4.2,3.8-6.5,5.5c-2.2,1.6-4.6,3-7.1,4.2
	c-2.6,1.2-5.4,2.1-8.2,2.7c-3.2,0.7-6.4,1-9.6,1c-5.4,0.1-10.7-0.9-15.7-3.1c-4.4-2-8.4-4.9-11.5-8.6c-3.2-3.8-5.6-8.2-7.1-13
	c-1.6-5.3-2.4-10.9-2.4-16.5V48.6h32.2V117c0,5.3,1.2,9.5,3.6,12.4c2.4,2.9,6,4.4,10.7,4.4c3.4,0,6.8-0.7,9.9-2.2
	c3.3-1.6,6.3-3.7,9-6.1V48.6H351.7z"/>
<path class="st0" d="M490.2,156.5H458V70.8h-45.2v53.6c-0.1,2.2,0.6,4.4,1.8,6.2c1.2,1.6,3.2,2.6,5.2,2.4c1,0,2-0.1,3-0.4
	c0.7-0.2,1.4-0.5,2.1-0.8c0.6-0.3,1.1-0.6,1.7-0.8c0.6-0.3,1.2-0.4,1.8-0.4c0.8,0,1.7,0.2,2.3,0.7c0.7,0.6,1.3,1.3,1.8,2.1l9.8,15.3
	c-4.2,3.1-9,5.5-14,7c-5.2,1.6-10.7,2.4-16.1,2.3c-4.6,0.1-9.2-0.7-13.6-2.2c-7.5-2.7-13.4-8.7-16-16.3c-1.4-4.2-2.1-8.6-2.1-13
	V70.8h-9.2c-3.2,0.1-5.9-2.4-6-5.6c0-0.2,0-0.5,0-0.7V51.9l17.2-3.4l6.3-26.2c0.8-3.3,3.2-5,7.1-5h16.9v31.5h77.4L490.2,156.5z
	 M494.7,18.9c0,2.5-0.5,5-1.6,7.3c-1,2.3-2.5,4.3-4.3,6c-3.8,3.5-8.8,5.5-13.9,5.5c-2.5,0-5.1-0.5-7.4-1.5c-2.3-0.9-4.3-2.3-6.1-4
	c-1.8-1.7-3.2-3.7-4.2-6c-1-2.3-1.5-4.8-1.5-7.3c0-5,2-9.9,5.7-13.4c1.8-1.7,3.8-3.1,6.1-4.1c2.3-1,4.8-1.5,7.4-1.5
	c2.6,0,5.2,0.5,7.6,1.5c2.3,1,4.5,2.3,6.3,4.1c1.8,1.7,3.3,3.7,4.3,6C494.2,13.9,494.7,16.4,494.7,18.9z"/>
<path class="st0" d="M610.5,48.6v142.1h-32.3v-46c-4,4-8.7,7.3-13.7,9.7c-5.6,2.6-11.7,3.8-17.9,3.7c-5.4,0-10.8-1.2-15.6-3.7
	c-4.9-2.6-9.1-6.3-12.4-10.8c-3.7-5.2-6.5-11.1-8.2-17.3c-2.1-7.6-3.1-15.5-3-23.4c-0.1-7.6,1.1-15.2,3.3-22.4
	c2-6.5,5.2-12.6,9.4-17.9c4-5,8.9-9,14.6-11.8c5.9-2.9,12.3-4.3,18.8-4.3c3,0,5.9,0.3,8.8,0.8c2.5,0.5,4.9,1.3,7.2,2.4
	c2.2,1,4.2,2.3,6.1,3.7c1.9,1.5,3.7,3.1,5.4,4.8l1.4-4.3c1.3-3.6,3.9-5.4,7.9-5.4L610.5,48.6z M578.2,77.5c-2.2-2.5-4.9-4.4-7.9-5.6
	c-2.9-1.1-5.9-1.7-9-1.7c-2.8,0-5.6,0.6-8.2,1.8c-2.6,1.3-4.9,3.2-6.5,5.7c-2.1,3.1-3.5,6.5-4.3,10.2c-1.1,4.9-1.6,10-1.6,15.1
	c-0.1,4.8,0.3,9.6,1.2,14.3c0.6,3.3,1.8,6.5,3.5,9.4c1.3,2.2,3.1,4,5.4,5.1c2.2,1.1,4.6,1.6,7,1.6c2.2,0,4.3-0.2,6.4-0.7
	c1.8-0.4,3.6-1.1,5.3-1.9c1.6-0.9,3.1-1.9,4.5-3.2c1.5-1.4,2.9-2.8,4.2-4.4L578.2,77.5z"/>
<path class="st0" d="M729.1,48.6v107.9h-20c-4,0-6.6-1.8-7.9-5.4l-1.9-6.2c-2,2-4.2,3.8-6.5,5.5c-2.2,1.6-4.6,3-7.1,4.2
	c-2.6,1.2-5.4,2.1-8.2,2.7c-3.2,0.7-6.4,1-9.6,1c-5.4,0.1-10.7-0.9-15.7-3.1c-4.4-2-8.4-4.9-11.5-8.6c-3.2-3.8-5.6-8.2-7.1-13
	c-1.6-5.3-2.4-10.9-2.4-16.5V48.6h32.2V117c0,5.3,1.2,9.5,3.6,12.4c2.4,2.9,6,4.4,10.7,4.4c3.4,0,6.8-0.7,9.9-2.2
	c3.3-1.6,6.3-3.7,9-6.1V48.6H729.1z"/>
<path class="st0" d="M777.5,108.3c1,9,3.8,15.6,8.2,19.6c4.4,4.1,10.2,6.1,17.2,6.1c3.3,0.1,6.5-0.4,9.7-1.4c2.5-0.8,4.9-1.8,7.2-3
	c2.1-1.1,4.1-2.1,5.8-3c1.7-0.9,3.6-1.4,5.6-1.3c2.3-0.1,4.5,0.9,5.8,2.8l9.4,11.6c-3.1,3.6-6.7,6.8-10.8,9.3
	c-3.7,2.3-7.7,4.2-11.9,5.6c-4,1.3-8,2.3-12.2,2.8c-3.8,0.5-7.7,0.8-11.6,0.8c-7.3,0.1-14.5-1.2-21.3-3.7c-6.5-2.4-12.4-6.1-17.4-11
	c-5.2-5.1-9.2-11.3-11.8-18.1c-2.9-7.2-4.3-15.6-4.3-25.2c0-7,1.2-14,3.7-20.5c4.8-12.9,14.7-23.2,27.4-28.5
	c13.4-5.3,28.2-5.7,41.8-0.9c5.7,2.1,10.9,5.4,15.3,9.7c4.4,4.4,7.8,9.7,10,15.6c2.5,6.7,3.7,13.7,3.6,20.9c0,2-0.1,4-0.3,5.9
	c-0.1,1.3-0.5,2.5-1.1,3.6c-0.5,0.9-1.3,1.5-2.2,1.9c-1.2,0.4-2.4,0.6-3.6,0.5L777.5,108.3z M818,89.6c0-2.5-0.3-5-1-7.5
	c-0.6-2.4-1.7-4.6-3.2-6.5c-1.6-2-3.6-3.5-5.9-4.6c-2.8-1.3-5.8-1.9-8.8-1.8c-6.1,0-10.9,1.8-14.4,5.3s-5.7,8.6-6.9,15.1L818,89.6z"
	/>
<path class="st0" d="M383.5,233c0.4,2.5,14.1,0.9,14.6,0.8h1.2c3.2,0,4.9,1.4,4.9,4.2c0,4.2-0.2,10.6-0.5,19.1
	c-0.3,8.5-0.5,14.8-0.5,19.1c0,14.2,9.3,21.3,27.8,21.2c8.6,0.1,17.1-2.3,24.5-6.8c0,0,2.8-1.9,3.2-2.2c1.4-1,1.3-4.7,1.3-6.5
	s0.2-4.7-0.1-8.3c-0.1-2-0.1-4,0-6c0-1.4-0.6-2.1-2-2.1c-2.1,0.2-4.2,0.6-6.3,1.1c-1.5,0.4-3.1,0.5-4.6,0.5c-5.1,0-7-0.8-8.7-3.6
	c-1.5-3.5-2.1-7.4-1.8-11.2c0-1.5-0.1-3.8-0.1-6.8v-6.8c0-2.8,0.5-4.2,1.5-4.2l7.2-0.8c1.3,0,3.4,0.1,6.4,0.1s3.6,0.2,4.9,0.2
	c1.8,0,2.4-0.7,2.8-2c0.4-1.8,0.5-3.6,0.4-5.5c0-2.9,0.4-6,0.4-7.5s-0.2-2.9-0.4-5.9c-0.1-1-0.2-2-0.2-3c0-3.6-2-3.4-3.1-3.5
	c-2.4-0.3-4.8-0.4-7.2-0.2c-3.4-0.1-6.8-0.5-10.1-1.2c-1.8-0.3-2.8-1.6-2.8-4.7c0-2.6,0.2-6.5,0.6-11.7s0.6-9.1,0.6-11.6
	c0-1-0.8-1.5-2.4-1.6c-6.8-0.3-10.5-0.3-14-0.5c-1.4-0.1-4.7-0.2-8.5-0.5c-3.3-0.2-5.6-0.4-7.4-0.4c-1.4,0-2.1,3.7-2.1,11.1
	c0-0.4,0.1,0.6,0.4,8.8c0.3,2.7,0.3,5.4,0,8.1c-0.4,2-2.1,3.6-4.1,4c-4.1,0.1-14.5,0.5-15.4,2.4C382.1,216.6,382,225,383.5,233"/>
<path class="st0" d="M772.4,249.9c0,4.6,0.2,11.4,0.8,20.5s0.8,15.9,0.8,20.4c0,2.4-1,5.1-3.1,5.2c-7.4,0.5-15.9,0.8-25.4,0.8
	c-1.2,0-1.2-3.3-2.3-6.5c-0.8-2.5-1.5-2.2-1.5-2.2c-0.6-0.1-1.3,0.1-1.8,0.6c-5.6,5.7-13.5,8.6-21.5,8.1c-11.3,0.2-22-4.9-29-13.8
	c-7.2-8.6-11.1-19.6-10.8-30.8c-0.6-12.1,3.4-24,11.2-33.3c7.8-8.7,18.4-12.9,31.9-13.1c7.6-0.4,15.2,0.9,22.2,3.9
	c0,0,2.1,1,2.5-0.7c0.7-2.9,0.5-3.2,1.4-3.3c3.9-0.3,7.7-0.4,11.6-0.2c0,0,13.2,0.2,14.8,0.6c0.9,0.2,1.3,0.8,1.3,1.4
	c0,0.6-0.1,1.3-0.3,1.9C773.4,222.8,772.4,236.3,772.4,249.9 M743.6,250.4c0.2-4.7-1.6-9.2-4.8-12.6c-7-6.7-18-6.7-25-0.1
	c-3.2,3.4-4.9,8-4.8,12.6c-0.1,4.6,1.7,9.1,5,12.4c3.1,3.4,7.6,5.3,12.2,5.2c4.7,0.2,9.2-1.6,12.5-4.9
	C742,259.7,743.7,255.1,743.6,250.4"/>
<path class="st0" d="M954,249.9c0,4.6,0.2,11.4,0.8,20.5s0.8,15.9,0.8,20.4c0,2.4-1,5.1-3.1,5.2c-7.4,0.5-15.9,0.8-25.4,0.8
	c-1.2,0-1.2-3.3-2.3-6.5c-0.8-2.5-1.5-2.2-1.5-2.2c-0.6-0.1-1.3,0.1-1.8,0.6c-5.6,5.7-13.5,8.6-21.5,8.1c-11.3,0.2-22-4.9-28.9-13.8
	c-7.2-8.6-11.1-19.6-10.8-30.8c-0.6-12.1,3.4-24,11.2-33.3c7.8-8.7,18.4-12.9,31.9-13.1c7.6-0.4,15.2,0.9,22.2,3.9
	c0,0,2.1,1,2.5-0.7c0.7-2.9,0.5-3.2,1.4-3.3c3.9-0.3,7.7-0.4,11.6-0.2c0,0,13.2,0.2,14.8,0.6c0.9,0.2,1.3,0.8,1.3,1.4
	c0,0.6-0.1,1.3-0.3,1.9C955,222.8,954,236.3,954,249.9 M925.2,250.4c0.2-4.7-1.6-9.2-4.8-12.6c-7-6.6-17.9-6.7-24.9-0.1
	c-3.2,3.4-5,8-4.8,12.6c-0.1,4.6,1.7,9.1,5,12.4c3.1,3.4,7.6,5.3,12.2,5.2c4.7,0.2,9.2-1.6,12.5-4.9
	C923.6,259.7,925.3,255.1,925.2,250.4"/>
<path class="st0" d="M563.3,249.9c0,4.6,0.2,11.4,0.8,20.5s0.8,15.9,0.8,20.4c0,2.4-1,5.1-3.1,5.2c-7.4,0.5-15.9,0.8-25.4,0.8
	c-1.1,0-1.2-3.3-2.3-6.5c-0.8-2.5-1.5-2.2-1.5-2.2c-0.6-0.1-1.3,0.1-1.8,0.6c-5.6,5.7-13.5,8.6-21.5,8.1c-11.3,0.2-22-4.9-29-13.8
	c-7.2-8.6-11.1-19.6-10.8-30.8c-0.6-12.1,3.4-24,11.2-33.3c7.8-8.7,18.4-12.9,31.9-13.1c7.6-0.4,15.2,0.9,22.2,3.9
	c0,0,2.1,1,2.5-0.7c0.7-2.9,0.5-3.2,1.4-3.3c3.9-0.3,7.7-0.4,11.6-0.2c0,0,13.2,0.2,14.8,0.6c0.9,0.2,1.4,0.8,1.4,1.4
	c-0.1,0.6-0.2,1.3-0.3,1.9C564.2,222.8,563.2,236.3,563.3,249.9 M534.4,250.4c0.2-4.7-1.6-9.2-4.8-12.6c-7-6.6-17.9-6.7-24.9-0.1
	c-3.2,3.4-4.9,8-4.7,12.6c-0.1,4.6,1.7,9.1,5,12.4c3.1,3.4,7.5,5.2,12.1,5.2c4.7,0.2,9.2-1.6,12.5-4.9
	C532.9,259.7,534.6,255.1,534.4,250.4"/>
<path class="st0" d="M669.4,227.3c0.1,7.7-1.2,15.3-3.8,22.5c0,0-2.7,10.8-17,31.1c-20.5,29.1-33.5,40.6-33.5,40.6
	c-7.4,6.1-16,10.7-25.1,13.5c-2.5,0.6-2.2-0.4-3.1-0.9c-2.1-1.4-7.9-12.6-9.1-16c-1-1.9-1.8-3.9-2.6-6c-0.7-2.2,0.3-3.4,1.3-3.7
	c29.2-11,26.9-22.6,26.9-22.6c-0.1-2.5-2.7-6.6-10.8-17.8c-8.4-11.5-11.7-16.6-13.2-21.8c-1.6-6-2-12.3-1.4-18.5
	c0.2-2.1,0.1-5.4,0.2-9.7s0.2-7.6,0.2-9.7c0-1.5,1-2.4,2.9-2.4c3.1,0,7.6,0.1,13.8,0.3s10.8,0.3,13.8,0.3c1.2,0,1.9,0.9,1.9,2.8
	c0,1.6-0.1,4.2-0.3,7.6s-0.3,5.9-0.3,7.6c0,7.5,0.1,12.6,0.3,15.3c1.1,4.2,3,8.1,5.4,11.7c3.6,5.9,7.6,8.2,9.2,8.2
	c1.4,0,3.7-2.9,7-8.8c1.8-3.2,3-6.8,3.5-10.5c1.2-5.6,1.5-11.4,0.9-17.1c0-1.6-0.2-4.1-0.5-7.4s-0.5-5.8-0.5-7.4
	c0-1.1,0.6-1.7,1.9-1.7c3.1,0,7.6-0.1,13.7-0.4s10.6-0.4,13.7-0.4c1.5,0,2.8,0.9,3.1,2.4C669.3,214.6,669.8,221,669.4,227.3"/>
<path class="st0" d="M850.7,232.2c0,2.4-1.3,3.6-3.8,3.6c-1.1,0-2.8-0.1-4.9-0.2s-5.2-0.2-6.3-0.2c-4.9,0-7.1,4-8.8,5.8
	c-2,4-2.9,8.5-2.7,13c0,2.6,0.1,6.6,0.1,11.9s0.1,9.3,0.1,11.9c0,1.8,0.1,4.4,0.3,7.9s0.3,6.1,0.3,7.8c0,1.5-1,2.3-2.9,2.5
	c-2.8,0.2-7.2,0.4-13.2,0.4c-5.6,0-10.2-0.2-13.6-0.5c-2-0.2-2.9-1.2-2.9-3c0-4.8,0.1-12.1,0.1-21.8s0.1-16.9,0.1-21.8
	c0.2-13.5-1.1-26.9-3.8-40.1c-0.1-0.4-0.2-0.9-0.2-1.4c0-0.8,0.5-1.6,1.4-1.8c3.3-0.4,14.4,0.1,14.4,0.1c6.6-0.1,14.3-0.1,14.6-0.1
	c1,0,2.1-0.3,3.3,3.4c0.4,1.1,1.5,1.8,2.7,1.7c2.9-0.1,5.7-0.8,8.3-1.8c5.9-2.1,7.2-3.5,12.7-3.5c3.4,0,5.5,0.7,5.5,2.2
	c-0.1,2.5-0.2,5-0.5,7.5c-0.3,3.5-0.6,5.2-0.6,6.8c0,1.8,0-0.1,0.1,2.8C850.6,228.6,850.6,230.9,850.7,232.2"/>
<path class="st1" d="M228.6,194c-0.4,0.8-1.1,1.4-1.8,1.9c-0.7,0.4-1.6,0.6-2.4,0.6c-1.1,0-2.1-0.2-3.1-0.7l-3.4-1.4
	c-1.3-0.6-2.7-1.1-4.1-1.5c-1.7-0.5-3.4-0.7-5.2-0.7c-2.3-0.1-4.5,0.4-6.4,1.6c-1.5,1-2.3,2.7-2.2,4.4c0,1.3,0.5,2.5,1.4,3.4
	c1.1,1,2.4,1.8,3.9,2.4c1.8,0.8,3.6,1.4,5.5,1.9c2,0.6,4.1,1.3,6.2,2.1c2.1,0.8,4.2,1.6,6.2,2.6c2,1,3.8,2.3,5.5,3.8
	c1.6,1.5,3,3.4,3.9,5.4c1,2.4,1.5,5,1.4,7.7c0,3.5-0.6,6.9-2,10.1c-1.3,3.1-3.3,5.8-5.9,7.9c-2.9,2.3-6.2,4.1-9.7,5.2
	c-4.3,1.3-8.8,1.9-13.3,1.8c-2.5,0-5-0.2-7.5-0.7c-2.5-0.5-4.9-1.1-7.3-1.9c-2.2-0.8-4.4-1.7-6.5-2.9c-1.8-1-3.5-2.2-5.1-3.6
	l5.1-8.1c0.5-0.9,1.3-1.7,2.2-2.2c1-0.6,2.2-0.9,3.4-0.8c1.2,0,2.4,0.3,3.4,0.9l3.3,1.8c1.3,0.7,2.7,1.3,4.1,1.8
	c1.9,0.6,4,0.9,6,0.9c1.5,0,2.9-0.1,4.3-0.5c1-0.3,2-0.8,2.8-1.4c1.3-1.1,2.1-2.7,2.1-4.4c0-1.4-0.5-2.7-1.5-3.6
	c-1.1-1-2.5-1.9-3.9-2.4c-1.8-0.8-3.6-1.4-5.5-1.9c-2.1-0.6-4.1-1.3-6.3-2c-2.2-0.8-4.2-1.7-6.3-2.7c-2-1-3.9-2.4-5.5-4
	c-1.7-1.7-3-3.8-3.9-6c-1.1-2.7-1.6-5.6-1.5-8.6c0-3.1,0.6-6.1,1.8-8.9c1.2-2.8,3.1-5.4,5.4-7.4c2.7-2.3,5.7-4,9.1-5.1
	c4.1-1.3,8.4-2,12.8-1.9c2.6,0,5.2,0.2,7.7,0.7c2.4,0.4,4.7,1.1,7,2c2.1,0.8,4.1,1.8,5.9,3c1.7,1.1,3.3,2.4,4.8,3.8L228.6,194z"/>
<path class="st1" d="M311,177.9v73.5h-13.6c-2.4,0.2-4.7-1.3-5.4-3.7l-1.3-4.2c-1.4,1.3-2.8,2.6-4.4,3.7c-1.5,1.1-3.1,2.1-4.9,2.8
	c-1.8,0.8-3.7,1.4-5.6,1.9c-2.2,0.5-4.3,0.7-6.5,0.7c-3.7,0.1-7.3-0.6-10.7-2.1c-3-1.3-5.7-3.3-7.8-5.9c-2.2-2.6-3.8-5.6-4.8-8.9
	c-1.1-3.6-1.7-7.4-1.6-11.2v-46.6h22v46.6c0,3.6,0.8,6.4,2.5,8.4s4.1,3,7.3,3c2.3,0,4.7-0.5,6.8-1.5c2.2-1.1,4.3-2.5,6.1-4.1v-52.4
	H311z"/>
<path class="st1" d="M346.4,189.2c2-3.6,4.6-6.8,7.8-9.4c2.9-2.3,6.5-3.5,10.2-3.4c2.9-0.1,5.7,0.7,8.1,2.3l-1.4,16.2
	c-0.1,0.8-0.5,1.6-1.2,2.1c-0.7,0.4-1.5,0.6-2.2,0.6c-0.4,0-0.9,0-1.5-0.1l-1.9-0.2l-2-0.2c-0.6-0.1-1.3-0.1-1.9-0.1
	c-2.8-0.1-5.5,0.8-7.7,2.6c-2.1,2-3.8,4.4-4.9,7.1v44.7h-22v-73.5h13c0.9,0,1.8,0.1,2.7,0.3c0.7,0.2,1.3,0.5,1.9,0.9
	c0.5,0.4,0.9,1,1.1,1.6c0.3,0.8,0.5,1.6,0.7,2.4L346.4,189.2z"/>
</svg>
