<svg width="445" height="445" viewBox="0 0 445 445" fill="none" xmlns="http://www.w3.org/2000/svg">
<path d="M393.381 82.7698L391.44 79.7171C375.064 53.9961 346.148 38.9017 316.04 41.4471C312.167 41.7734 308.323 42.3863 304.541 43.2805C277.253 49.7241 253.855 70.9595 244.537 97.7129C239.055 113.448 237.809 131.453 227.048 144.082C213.031 160.511 188.672 161.535 167.223 161.321C145.774 161.108 121.405 162.211 107.459 178.694C98.7283 189.027 96.1918 203.507 97.2064 217.071C99.8764 252.973 125.615 284.586 157.806 299.841C189.998 315.095 227.547 315.763 262.257 307.993C310.895 297.109 356.766 269.082 383.795 226.727C410.825 184.372 416.645 127.368 393.381 82.7698Z" fill="#F5F5F5"/>
<path d="M401.603 419.555C401.603 419.688 316.226 419.786 210.93 419.786C105.634 419.786 20.2383 419.688 20.2383 419.555C20.2383 419.421 105.598 419.323 210.93 419.323C316.261 419.323 401.603 419.43 401.603 419.555Z" fill="#263238"/>
<path d="M299.494 323.141L198.47 323.07C192.636 323.065 187.042 320.744 182.919 316.617C178.795 312.49 176.479 306.894 176.479 301.06V47.8016C176.481 44.9075 177.054 42.0422 178.165 39.3699C179.276 36.6975 180.903 34.2705 182.953 32.2278C185.003 30.1851 187.436 28.5667 190.113 27.4654C192.789 26.3641 195.656 25.8015 198.551 25.8097L299.574 25.872C305.409 25.8767 311.002 28.1976 315.126 32.3247C319.25 36.4518 321.566 42.0474 321.566 47.8817L321.513 301.131C321.514 304.023 320.945 306.886 319.839 309.557C318.733 312.229 317.111 314.656 315.066 316.7C313.021 318.744 310.593 320.365 307.921 321.47C305.249 322.576 302.386 323.143 299.494 323.141Z" fill="#455A64"/>
<path d="M299.467 34.8342H279.887C279.249 34.8481 278.619 34.9876 278.035 35.2447C277.451 35.5018 276.923 35.8715 276.482 36.3327C276.04 36.7939 275.694 37.3375 275.463 37.9325C275.232 38.5275 275.12 39.1622 275.134 39.8004V43.3604C275.148 43.9986 275.037 44.6333 274.806 45.2283C274.574 45.8233 274.228 46.367 273.787 46.8281C273.345 47.2893 272.818 47.659 272.233 47.9162C271.649 48.1733 271.02 48.3127 270.382 48.3266H232.201C230.911 48.2963 229.686 47.7553 228.795 46.8225C227.904 45.8896 227.419 44.6413 227.448 43.3515V39.7915C227.477 38.5018 226.992 37.2534 226.101 36.3206C225.21 35.3878 223.985 34.8468 222.695 34.8164H198.665C196.641 34.8141 194.636 35.2108 192.764 35.984C190.893 36.7572 189.193 37.8916 187.76 39.3224C186.328 40.7532 185.191 42.4523 184.416 44.3226C183.641 46.1929 183.242 48.1977 183.242 50.2223L183.197 297.42C183.197 301.505 184.819 305.423 187.706 308.313C190.593 311.204 194.509 312.83 198.594 312.835L299.413 312.888C301.438 312.89 303.443 312.494 305.315 311.72C307.186 310.947 308.886 309.813 310.319 308.382C311.751 306.951 312.887 305.252 313.663 303.382C314.438 301.512 314.837 299.507 314.837 297.482V50.2846C314.847 46.1979 313.233 42.2747 310.351 39.3774C307.468 36.4801 303.554 34.846 299.467 34.8342Z" fill="#FAFAFA"/>
<path d="M281.951 42.8535H280.83V44.4199H281.951V42.8535Z" fill="#263238"/>
<path d="M283.778 42.1592H282.656V44.4287H283.778V42.1592Z" fill="#263238"/>
<path d="M285.592 41.6338H284.471V44.4284H285.592V41.6338Z" fill="#263238"/>
<path d="M287.416 40.6191H286.295V44.4283H287.416V40.6191Z" fill="#263238"/>
<path d="M303.945 44.4998H298.329C298.222 44.4998 298.119 44.4579 298.043 44.383C297.966 44.3082 297.922 44.2063 297.92 44.0993V41.3047C297.92 41.1984 297.962 41.0966 298.037 41.0215C298.112 40.9464 298.214 40.9042 298.32 40.9042H303.945C303.968 40.8952 303.994 40.8952 304.016 40.9042C304.024 40.9303 304.024 40.9581 304.016 40.9843V41.8743H304.622C304.65 41.8743 304.677 41.8855 304.697 41.9055C304.717 41.9256 304.728 41.9527 304.728 41.9811V43.325C304.726 43.3517 304.714 43.3767 304.694 43.3948C304.674 43.4129 304.648 43.423 304.622 43.4229H304.016V44.3129C304.041 44.3223 304.061 44.3412 304.072 44.3654C304.083 44.3896 304.084 44.4171 304.074 44.4419C304.065 44.4667 304.046 44.4867 304.022 44.4976C303.998 44.5084 303.97 44.5092 303.945 44.4998ZM303.838 41.1089H298.32C298.295 41.1089 298.269 41.1139 298.245 41.1238C298.222 41.1336 298.2 41.148 298.182 41.1662C298.164 41.1844 298.149 41.206 298.14 41.2297C298.13 41.2535 298.125 41.279 298.125 41.3047V44.0993C298.125 44.1257 298.13 44.152 298.14 44.1763C298.151 44.2007 298.166 44.2227 298.185 44.241C298.204 44.2593 298.227 44.2735 298.252 44.2828C298.276 44.2921 298.303 44.2963 298.329 44.2951H303.838V43.4051C303.838 43.3767 303.85 43.3496 303.87 43.3295C303.89 43.3095 303.917 43.2983 303.945 43.2983H304.542V42.1324H303.945C303.932 42.1336 303.918 42.132 303.905 42.1276C303.892 42.1233 303.88 42.1163 303.87 42.107C303.86 42.0978 303.852 42.0866 303.847 42.0741C303.841 42.0616 303.838 42.0481 303.838 42.0345V41.1089Z" fill="#263238"/>
<path d="M298.586 43.8408V41.5713H303.383V42.5948V42.8173V43.8408H298.586Z" fill="#263238"/>
<path d="M292.811 44.2864C292.809 44.1785 292.765 44.0757 292.689 43.9994C292.612 43.9231 292.51 43.8792 292.402 43.877C292.293 43.877 292.189 43.9201 292.112 43.9969C292.035 44.0736 291.992 44.1778 291.992 44.2864C291.991 44.3404 292.001 44.3942 292.021 44.4445C292.041 44.4947 292.071 44.5403 292.11 44.5785C292.148 44.6168 292.193 44.6469 292.244 44.6671C292.294 44.6872 292.348 44.697 292.402 44.6958C292.51 44.6958 292.614 44.6526 292.691 44.5758C292.768 44.4991 292.811 44.3949 292.811 44.2864Z" fill="#263238"/>
<path d="M290.959 43.2984L291.484 43.8235C291.599 43.704 291.738 43.609 291.891 43.544C292.044 43.4791 292.208 43.4457 292.374 43.4457C292.54 43.4457 292.705 43.4791 292.858 43.544C293.01 43.609 293.149 43.704 293.264 43.8235L293.789 43.2984C293.603 43.1117 293.38 42.9644 293.136 42.865C292.891 42.7657 292.629 42.7163 292.365 42.7199C291.839 42.7204 291.333 42.9282 290.959 43.2984Z" fill="#263238"/>
<path d="M292.366 41.5451C291.535 41.5352 290.735 41.8553 290.141 42.4351L290.657 42.9602C291.11 42.5108 291.723 42.2586 292.361 42.2586C293 42.2586 293.612 42.5108 294.066 42.9602L294.591 42.4351C293.995 41.857 293.196 41.5372 292.366 41.5451Z" fill="#263238"/>
<path d="M289.25 41.6158L289.775 42.1409C290.453 41.4637 291.371 41.0833 292.329 41.0833C293.287 41.0833 294.206 41.4637 294.884 42.1409L295.409 41.6158C294.591 40.8006 293.484 40.3428 292.329 40.3428C291.175 40.3428 290.067 40.8006 289.25 41.6158Z" fill="#263238"/>
<path d="M255.768 65.5928H248.986C248.519 65.5928 248.141 65.9713 248.141 66.4383V71.0396C248.141 71.5065 248.519 71.8851 248.986 71.8851H255.768C256.235 71.8851 256.613 71.5065 256.613 71.0396V66.4383C256.613 65.9713 256.235 65.5928 255.768 65.5928Z" fill="#263238"/>
<path d="M250.01 66.002H249.12V64.9696C249.097 64.5281 249.164 64.0865 249.317 63.6718C249.47 63.257 249.706 62.8777 250.01 62.5571C250.314 62.2364 250.681 61.981 251.087 61.8065C251.493 61.632 251.931 61.542 252.373 61.542C252.815 61.542 253.252 61.632 253.658 61.8065C254.065 61.981 254.431 62.2364 254.735 62.5571C255.04 62.8777 255.276 63.257 255.429 63.6718C255.582 64.0865 255.649 64.5281 255.626 64.9696V65.646H254.736V64.9696C254.755 64.6471 254.709 64.324 254.599 64.0201C254.489 63.7162 254.319 63.438 254.097 63.2026C253.876 62.9672 253.609 62.7797 253.312 62.6515C253.015 62.5233 252.696 62.4571 252.373 62.4571C252.05 62.4571 251.73 62.5233 251.433 62.6515C251.137 62.7797 250.869 62.9672 250.648 63.2026C250.427 63.438 250.256 63.7162 250.146 64.0201C250.036 64.324 249.99 64.6471 250.01 64.9696V66.002Z" fill="#263238"/>
<path d="M184.23 221.512C184.317 213.51 186.519 205.674 190.61 198.796C194.702 191.919 200.54 186.246 207.531 182.352C217.321 177.012 228.73 175.624 239.615 173.123C250.5 170.622 261.785 166.492 268.513 157.583C277.609 145.542 275.874 128.427 282.442 114.863C285.496 108.739 290.129 103.542 295.863 99.807C301.597 96.0724 308.225 93.9362 315.06 93.6191V300.553C315.06 303.888 313.736 307.087 311.377 309.445C309.019 311.804 305.82 313.129 302.485 313.129H196.824C195.171 313.13 193.535 312.806 192.007 312.174C190.48 311.543 189.092 310.617 187.923 309.449C186.753 308.281 185.825 306.895 185.192 305.368C184.558 303.842 184.232 302.206 184.23 300.553V221.512Z" fill="#EBEBEB"/>
<path d="M206.48 113.733C206.48 106.061 210.503 101.486 216.084 101.486C221.664 101.486 225.713 106.061 225.713 113.733C225.713 121.405 221.655 125.988 216.084 125.988C210.512 125.988 206.48 121.405 206.48 113.733ZM223.168 113.733C223.168 107.298 220.275 103.756 216.048 103.756C211.82 103.756 208.928 107.316 208.928 113.733C208.928 120.15 211.82 123.719 216.048 123.719C220.275 123.719 223.186 120.15 223.186 113.733H223.168Z" fill="#263238"/>
<path d="M246.655 113.528C246.655 121.716 242.205 125.988 235.646 125.988C233.659 126.073 231.685 125.621 229.932 124.68L230.929 122.686C232.348 123.506 233.974 123.898 235.61 123.817C240.808 123.817 244.146 120.479 244.146 113.938C244.146 113.395 244.146 112.7 244.039 111.98C242.837 114.65 240.016 116.109 236.678 116.109C231.89 116.109 228.553 113.288 228.553 108.882C228.553 104.477 232.113 101.486 236.776 101.486C243.175 101.46 246.655 105.91 246.655 113.528ZM243.247 108.749C243.247 106.079 241.048 103.587 236.883 103.587C233.403 103.587 231 105.616 231 108.811C231 112.006 233.341 114.009 237.052 114.009C240.764 114.009 243.247 111.739 243.247 108.749Z" fill="#263238"/>
<path d="M250.269 109.399C250.258 109.155 250.298 108.911 250.385 108.682C250.472 108.454 250.606 108.246 250.777 108.072C250.948 107.897 251.153 107.76 251.38 107.668C251.606 107.576 251.85 107.532 252.094 107.539C252.338 107.537 252.58 107.585 252.806 107.678C253.031 107.771 253.236 107.908 253.409 108.081C253.581 108.254 253.717 108.46 253.809 108.686C253.901 108.912 253.947 109.155 253.945 109.399C253.95 109.895 253.758 110.374 253.411 110.729C253.064 111.084 252.59 111.287 252.094 111.294C251.849 111.291 251.608 111.239 251.383 111.142C251.159 111.044 250.956 110.903 250.786 110.727C250.617 110.551 250.484 110.343 250.395 110.115C250.306 109.887 250.264 109.643 250.269 109.399ZM250.269 124.057C250.258 123.813 250.298 123.569 250.385 123.341C250.472 123.112 250.606 122.904 250.777 122.73C250.948 122.555 251.153 122.418 251.38 122.326C251.606 122.235 251.85 122.191 252.094 122.197C252.338 122.196 252.58 122.243 252.806 122.336C253.031 122.429 253.236 122.567 253.409 122.74C253.581 122.913 253.717 123.118 253.809 123.345C253.901 123.571 253.947 123.813 253.945 124.057C253.95 124.554 253.758 125.032 253.411 125.387C253.064 125.742 252.59 125.946 252.094 125.953C251.849 125.949 251.608 125.897 251.383 125.8C251.159 125.703 250.956 125.562 250.786 125.385C250.617 125.209 250.484 125.001 250.395 124.773C250.306 124.545 250.264 124.302 250.269 124.057Z" fill="#263238"/>
<path d="M273.978 123.576V125.784H257.068V124.004L267.08 114.214C269.804 111.544 270.32 109.915 270.32 108.259C270.32 105.474 268.353 103.756 264.677 103.756C263.451 103.679 262.223 103.879 261.084 104.341C259.946 104.803 258.926 105.516 258.1 106.426L256.32 104.904C258.18 102.706 261.171 101.469 264.855 101.469C269.742 101.469 272.865 103.943 272.865 107.966C272.865 110.28 272.145 112.345 268.905 115.504L260.717 123.514L273.978 123.576Z" fill="#263238"/>
<path d="M276.934 113.733C276.934 106.061 280.956 101.486 286.537 101.486C292.117 101.486 296.166 106.061 296.166 113.733C296.166 121.405 292.108 125.988 286.537 125.988C280.965 125.988 276.934 121.405 276.934 113.733ZM293.621 113.733C293.621 107.298 290.729 103.756 286.501 103.756C282.274 103.756 279.381 107.316 279.381 113.733C279.381 120.15 282.336 123.71 286.581 123.71C290.826 123.71 293.621 120.15 293.621 113.733Z" fill="#263238"/>
<path d="M224.915 83.1441C226.933 73.754 220.957 64.5057 211.567 62.4875C202.177 60.4693 192.928 66.4454 190.91 75.8356C188.892 85.2257 194.868 94.474 204.258 96.4922C213.648 98.5104 222.897 92.5343 224.915 83.1441Z" fill="#E0E0E0"/>
<path d="M113.609 217.836C112.354 216.946 110.806 216.573 109.408 215.914C108.011 215.256 106.658 214.134 106.525 212.568C106.338 210.289 108.848 208.572 108.999 206.338C109.204 203.125 104.86 201.372 104.229 198.221C103.703 195.604 105.92 193.139 105.831 190.469C105.742 187.799 103.427 185.814 102.377 183.349C99.9209 177.671 104.442 170.346 101.016 165.193C99.9764 163.897 98.814 162.705 97.5446 161.633C96.3698 160.458 95.3463 158.963 95.4887 157.263L89.0629 154.344C86.9091 151.051 82.023 150.926 78.3829 152.333C74.7428 153.739 71.4854 156.257 67.7029 157.201C65.8517 157.655 66.1187 154.914 64.2497 155.296C61.7844 155.795 58.7673 158.669 58.0197 161.055C57.2721 163.609 56.747 166.439 55.8392 168.949C54.8335 171.717 51.8698 173.648 51.585 176.585C51.2646 180.003 54.7979 182.815 54.8068 186.233C54.8068 189.926 50.7306 193.237 52.03 196.699C52.7776 198.675 55.056 199.734 55.857 201.692C56.9517 204.362 54.7712 207.37 54.967 210.28C55.1628 213.191 57.5836 215.327 59.8709 217.071C68.5804 223.869 78.3255 229.224 88.7336 232.931C93.2459 234.479 97.9985 235.663 102.751 235.236C107.504 234.809 112.283 232.566 114.775 228.454C116.813 225.117 116.795 220.124 113.609 217.836Z" fill="#263238"/>
<path d="M95.2302 155.652C94.6459 153.316 93.4499 151.177 91.7651 149.455C90.0803 147.734 87.9676 146.492 85.6439 145.858C83.3203 145.223 80.8697 145.219 78.5439 145.846C76.2182 146.472 74.1012 147.707 72.4106 149.422C71.04 150.811 69.9542 152.511 68.3344 153.596C66.501 154.834 66.234 154.486 64.187 155.279C62.14 156.071 58.3753 161.793 58.4376 164.001L57.4141 173.666C57.4942 175.927 60.4045 177.226 62.5405 176.461C64.6765 175.695 66.1005 173.719 67.2397 171.761C68.3789 169.803 69.4202 167.685 71.2892 166.43C74.3597 164.268 78.5249 165.015 82.2006 165.763C85.8763 166.51 90.1394 167.053 93.0141 164.632C95.4883 162.505 96.0223 158.794 95.2302 155.652Z" fill="#263238"/>
<path d="M97.2593 169.447C96.841 163.155 92.658 155.447 86.3924 156.097L66.8124 161.09C65.8953 161.19 65.0491 161.63 64.441 162.324C63.833 163.018 63.5073 163.915 63.5283 164.837L65.7266 212.007H65.5842C65.5842 212.007 73.5942 228.872 86.4814 224.805C89.0446 223.995 86.7128 217.632 87.229 214.748H87.3536C87.3536 214.41 87.3536 214.089 87.3536 213.76C87.6069 211.609 87.6337 209.438 87.4337 207.281C87.4337 203.472 87.4337 201.941 87.4337 201.941C87.4337 201.941 95.4437 200.588 97.108 190.104C97.9891 184.986 97.7132 176.434 97.2593 169.447Z" fill="#FFBE9D"/>
<path d="M95.641 177.528C95.6458 177.88 95.5124 178.22 95.2694 178.475C95.0265 178.729 94.6933 178.879 94.3416 178.89C94.1706 178.903 93.9987 178.883 93.8359 178.829C93.6731 178.775 93.5226 178.689 93.3934 178.576C93.2641 178.464 93.1586 178.326 93.083 178.172C93.0074 178.018 92.9633 177.851 92.9532 177.68C92.9506 177.329 93.0847 176.99 93.3272 176.736C93.5697 176.482 93.9016 176.332 94.2526 176.318C94.4238 176.304 94.5962 176.324 94.7595 176.377C94.9228 176.43 95.0738 176.516 95.2033 176.629C95.3328 176.742 95.4383 176.88 95.5135 177.034C95.5887 177.189 95.632 177.357 95.641 177.528Z" fill="#263238"/>
<path d="M95.4097 173.897C95.2495 174.075 94.226 173.328 92.7397 173.328C91.2534 173.328 90.2388 174.067 90.0697 173.889C89.9006 173.711 90.1587 173.488 90.6215 173.159C91.2478 172.722 91.9937 172.489 92.7575 172.491C93.5085 172.49 94.2406 172.727 94.849 173.168C95.3385 173.55 95.4987 173.817 95.4097 173.897Z" fill="#263238"/>
<path d="M81.9603 178C81.9651 178.35 81.8327 178.687 81.5914 178.94C81.3501 179.193 81.0192 179.341 80.6698 179.353C80.4986 179.368 80.3262 179.347 80.1628 179.294C79.9995 179.241 79.8486 179.155 79.7191 179.042C79.5895 178.929 79.484 178.791 79.4088 178.637C79.3337 178.482 79.2903 178.314 79.2814 178.143C79.2765 177.793 79.409 177.455 79.6503 177.203C79.8916 176.95 80.2225 176.801 80.5719 176.79C80.7431 176.775 80.9155 176.795 81.0788 176.849C81.2421 176.902 81.3931 176.988 81.5226 177.101C81.6521 177.214 81.7576 177.351 81.8328 177.506C81.908 177.66 81.9513 177.829 81.9603 178Z" fill="#263238"/>
<path d="M81.187 174.2C81.0268 174.378 80.0033 173.622 78.517 173.631C77.0307 173.639 76.0161 174.369 75.847 174.191C75.6779 174.013 75.936 173.791 76.3988 173.453C77.0275 173.021 77.7725 172.792 78.5348 172.794C79.2849 172.791 80.0169 173.024 80.6263 173.461C81.1158 173.809 81.2671 174.12 81.187 174.2Z" fill="#263238"/>
<path d="M86.4648 184.925C87.2259 184.678 88.0157 184.532 88.8144 184.489C89.1793 184.489 89.5353 184.382 89.5976 184.124C89.6232 183.742 89.5366 183.362 89.3484 183.029C88.9924 182.139 88.6275 181.204 88.2448 180.217C86.7229 176.22 85.5748 172.927 85.7795 172.865C85.9842 172.803 87.3103 175.998 88.8322 179.985C89.1971 180.973 89.5531 181.916 89.8824 182.815C90.1165 183.261 90.1859 183.775 90.0782 184.266C90.0248 184.396 89.9426 184.513 89.8378 184.607C89.733 184.701 89.6083 184.77 89.473 184.809C89.2691 184.861 89.0603 184.89 88.85 184.898C88.0591 185.005 87.258 185.014 86.4648 184.925Z" fill="#263238"/>
<path d="M87.5062 202.031C82.5688 202.117 77.7042 200.832 73.4531 198.319C73.4531 198.319 76.8707 205.511 87.3638 204.549L87.5062 202.031Z" fill="#EB996E"/>
<path d="M85.8596 188.413C85.5846 188.065 85.2252 187.794 84.8154 187.624C84.4057 187.454 83.9594 187.392 83.5189 187.443C83.1999 187.473 82.8903 187.567 82.6088 187.72C82.3273 187.873 82.0798 188.082 81.8813 188.333C81.6866 188.574 81.5709 188.869 81.5502 189.178C81.5295 189.487 81.6047 189.795 81.7656 190.06C82.0019 190.317 82.3084 190.498 82.647 190.582C82.9856 190.666 83.3414 190.648 83.6702 190.532C84.3515 190.29 84.9778 189.915 85.5125 189.428C85.6754 189.31 85.8143 189.162 85.9219 188.992C85.9758 188.913 86.0047 188.82 86.0047 188.725C86.0047 188.63 85.9758 188.537 85.9219 188.458" fill="#EB996E"/>
<path d="M82.21 185.93C82.4414 185.93 82.4503 187.487 83.7942 188.6C85.1381 189.712 86.8113 189.534 86.8291 189.757C86.8469 189.979 86.4553 190.059 85.7522 190.077C84.8286 190.087 83.9308 189.772 83.2157 189.187C82.5335 188.629 82.0935 187.829 81.9875 186.953C81.9252 186.313 82.1032 185.921 82.21 185.93Z" fill="#263238"/>
<path d="M81.8808 171.663C81.7384 172.064 80.2877 171.877 78.5967 172.082C76.9057 172.286 75.5262 172.758 75.2948 172.411C75.1969 172.242 75.4372 171.868 75.989 171.521C76.7187 171.033 77.5551 170.728 78.4276 170.631C79.2968 170.529 80.1779 170.632 80.9997 170.934C81.5782 171.174 81.8808 171.476 81.8808 171.663Z" fill="#263238"/>
<path d="M94.8661 169.714C94.6169 170.044 93.6201 169.714 92.4186 169.714C91.2171 169.714 90.2114 169.946 89.9711 169.599C89.8732 169.429 90.0334 169.1 90.4695 168.789C91.0659 168.415 91.7595 168.227 92.4628 168.248C93.1661 168.268 93.8476 168.497 94.4211 168.904C94.8394 169.216 94.9818 169.554 94.8661 169.714Z" fill="#263238"/>
<path d="M86.0461 153.445L85.1561 152.306C79.0995 153.002 73.1655 154.517 67.5163 156.809C65.2557 157.699 62.9773 158.82 61.4287 160.707C59.3105 163.297 58.9723 166.875 58.7587 170.212C57.8687 182.939 57.0766 196.022 61.0816 208.153C62.0428 206.605 63.9296 205.91 65.7185 205.563C67.5074 205.216 69.3853 205.1 71.0585 204.273C71.9377 203.796 72.7082 203.141 73.3211 202.351C73.9339 201.56 74.3757 200.651 74.6185 199.68C75.0934 197.718 74.8634 195.652 73.9688 193.842C72.9987 191.822 71.2988 189.873 71.6904 187.674C72.082 185.476 74.7698 184.061 75.3928 181.8C76.4697 177.893 70.9428 174.387 72.0909 170.488C72.3429 169.786 72.7358 169.143 73.2454 168.598C73.7551 168.053 74.3708 167.618 75.0546 167.32C76.3896 166.652 77.8581 166.279 79.2109 165.647C81.4579 164.552 83.3167 162.796 84.5383 160.616C85.7599 158.435 86.286 155.933 86.0461 153.445Z" fill="#263238"/>
<path d="M138.983 233.385L126.719 252.466C127.193 253.162 127.838 253.724 128.593 254.099C129.347 254.473 130.185 254.646 131.026 254.602C133.981 254.478 138.04 247.109 138.52 245.622C139.001 244.136 138.351 242.694 138.787 241.697C139.223 240.701 139.054 237.977 139.054 237.977C138.992 238.137 141.706 234.506 138.983 233.385Z" fill="#FFBE9D"/>
<path d="M123.328 252.458L129.718 227.191C129.816 226.818 129.987 226.469 130.22 226.164C130.454 225.858 130.746 225.602 131.08 225.411L140.363 220.115C140.637 219.961 140.957 219.914 141.264 219.981C141.571 220.048 141.843 220.226 142.027 220.48C142.136 220.631 142.211 220.804 142.246 220.987C142.282 221.17 142.277 221.358 142.232 221.539L135.468 248.132L123.328 252.458Z" fill="#263238"/>
<path d="M120.107 272.037L134.943 244.634L129.354 237.398L108.475 253.24L113.948 268.299L120.107 272.037Z" fill="#E33A32"/>
<path d="M135.122 250.58C135.251 250.212 135.346 249.834 135.406 249.449C135.505 248.383 135.399 247.308 135.095 246.281V246.219V246.156C135.225 245.949 135.309 245.716 135.341 245.474C135.373 245.231 135.353 244.984 135.282 244.75C135.077 244.222 134.713 243.771 134.241 243.46L134.08 243.353L134.187 243.184L135.869 240.674C136.025 240.474 136.156 240.256 136.261 240.024C136.328 239.806 136.309 239.57 136.207 239.366C135.968 238.894 135.612 238.49 135.175 238.191L134.961 238.04L135.131 237.844C135.584 237.328 136.092 236.811 136.599 236.286C137.467 235.393 138.284 234.451 139.047 233.465C139.391 233.012 139.689 232.526 139.937 232.014C140.053 231.786 140.128 231.539 140.159 231.285C140.159 231.053 140.07 230.929 139.937 230.902H139.883C139.597 230.873 139.309 230.919 139.047 231.035C138.743 231.147 138.446 231.275 138.157 231.418C137.614 231.712 137.106 232.014 136.644 232.308C135.754 232.913 134.908 233.483 134.258 233.955L132.736 235.058C132.567 235.207 132.379 235.333 132.176 235.432C132.314 235.254 132.476 235.095 132.656 234.96C132.986 234.667 133.475 234.257 134.107 233.75C134.739 233.243 135.522 232.655 136.448 232.023C136.919 231.703 137.418 231.382 137.979 231.071C138.266 230.912 138.563 230.772 138.869 230.653C139.213 230.483 139.604 230.43 139.981 230.501H139.928C140.119 230.528 140.291 230.629 140.408 230.782C140.525 230.936 140.576 231.129 140.551 231.32C140.522 231.629 140.437 231.931 140.301 232.21C140.042 232.755 139.726 233.271 139.358 233.75C138.594 234.758 137.767 235.718 136.884 236.625C136.377 237.15 135.869 237.666 135.415 238.173V237.826C135.927 238.177 136.338 238.656 136.608 239.214C136.745 239.52 136.764 239.866 136.661 240.185C136.545 240.449 136.396 240.697 136.216 240.923C135.611 241.813 135.033 242.65 134.49 243.433V243.148C135.026 243.518 135.431 244.047 135.647 244.661C135.729 244.943 135.75 245.238 135.709 245.528C135.667 245.818 135.564 246.096 135.406 246.343V246.219C135.691 247.287 135.749 248.402 135.576 249.494C135.523 249.787 135.43 250.072 135.3 250.339C135.193 250.5 135.139 250.589 135.122 250.58Z" fill="#EB996E"/>
<path d="M142.028 220.471C141.796 220.68 141.538 220.859 141.262 221.005C140.755 221.325 140.016 221.779 139.091 222.331L135.842 224.28L133.92 225.392C133.22 225.73 132.568 226.158 131.979 226.665C131.469 227.225 131.129 227.92 131 228.668C130.805 229.415 130.618 230.127 130.44 230.821L129.47 234.462C129.185 235.494 128.945 236.33 128.767 236.9C128.702 237.209 128.597 237.508 128.455 237.79C128.461 237.488 128.509 237.189 128.597 236.9C128.713 236.313 128.909 235.467 129.149 234.426C129.39 233.385 129.701 232.112 130.039 230.759C130.205 230.065 130.383 229.344 130.573 228.596C130.717 227.767 131.094 226.995 131.659 226.371C132.284 225.844 132.971 225.395 133.706 225.036L135.646 223.951L138.939 222.171C139.883 221.654 140.648 221.281 141.182 220.978C141.438 220.77 141.723 220.599 142.028 220.471Z" fill="#455A64"/>
<path d="M135.877 229.104C135.645 229.656 135.619 230.172 135.814 230.252C136.01 230.332 136.357 229.959 136.589 229.407C136.82 228.855 136.847 228.348 136.651 228.259C136.455 228.17 136.108 228.561 135.877 229.104Z" fill="white"/>
<path d="M89.668 213.787C92.8585 214.936 95.7914 216.703 98.2989 218.986C100.806 221.269 102.839 224.023 104.282 227.093L124.2 269.474L141.359 276.434L126.229 280.786L112.79 270.916L89.668 213.787Z" fill="#E33A32"/>
<path d="M126.248 280.786L119.021 286.358L82.9581 249.262L62.3457 212.025L64.7309 205.101L80.6708 211.74L86.3757 220.177L87.6484 209.497L88.6719 210.93L90.3362 215.442C90.3362 215.442 105.982 228.463 109.364 238.778C112.141 247.42 111.296 265.22 113.031 270.026L126.248 280.786Z" fill="#FAFAFA"/>
<path d="M58.4824 211.544C58.2421 212.265 43.0676 218.361 42.3467 223.675C41.6258 228.988 53.2492 270.07 53.2492 270.07L71.6811 286.357H119.02L104.006 258.242C100.77 252.18 96.6748 246.616 91.8484 241.724C87.3984 237.22 82.0584 231.649 79.2639 228.329C76.2645 224.725 63.5465 207.859 63.5465 207.859L58.4824 211.544Z" fill="#E33A32"/>
<path d="M67.9785 213.226C68.8984 213.557 69.7911 213.959 70.6485 214.428C72.2772 215.229 74.5111 216.35 76.9675 217.623L79.7621 219.083L79.4417 219.296C79.3348 217.635 79.4335 215.967 79.7354 214.33C79.8197 213.682 79.9965 213.05 80.2605 212.452C80.2096 213.097 80.1265 213.738 80.0113 214.375C79.8029 215.995 79.7582 217.632 79.8778 219.261V219.652L79.5307 219.474L76.7717 218.05C74.3153 216.778 72.1081 215.603 70.5417 214.731C69.6502 214.295 68.7933 213.792 67.9785 213.226Z" fill="#263238"/>
<path d="M104.47 250.695C104.186 250.315 103.933 249.913 103.713 249.494L101.782 246.138C100.162 243.299 97.9015 239.392 95.3561 235.111C92.8107 230.83 90.4344 226.994 88.7167 224.218L86.6786 220.925C86.4135 220.532 86.1813 220.118 85.9844 219.688C86.3169 220.038 86.6149 220.419 86.8744 220.827C87.3995 221.574 88.1382 222.669 89.0371 224.04C90.8171 226.772 93.2379 230.59 95.8011 234.88C98.3643 239.17 100.563 243.103 102.111 245.978C102.894 247.42 103.508 248.586 103.891 249.405C104.119 249.818 104.312 250.25 104.47 250.695Z" fill="#263238"/>
<g opacity="0.3">
<path d="M97.1802 279.336C99.9303 279.798 102.752 280.226 105.493 279.745C108.234 279.264 110.913 277.493 111.776 274.841C111.912 273.976 112.264 273.158 112.8 272.465C113.859 271.486 115.55 272.091 116.983 271.958C117.78 271.836 118.539 271.531 119.2 271.068C119.86 270.605 120.405 269.996 120.792 269.288C121.556 267.87 122.094 266.341 122.385 264.758C122.616 263.994 122.713 263.196 122.67 262.399C122.642 262.003 122.515 261.62 122.3 261.285C122.086 260.951 121.79 260.676 121.442 260.485C120.356 259.996 119.128 260.708 118.166 261.375C110.361 267 103.241 273.533 96.1211 280.03" fill="black"/>
</g>
<path d="M114.865 247.972C114.865 247.972 117.58 241.742 119.021 240.852C120.463 239.962 127.663 235.788 127.663 235.788L126.773 239.214L133.813 234.328C134.703 233.75 139.696 229.184 140.586 230.964C141.236 232.246 137.133 235.628 136.581 236.384C135.21 238.262 135.691 238.093 135.691 238.093C135.691 238.093 137.177 238.983 136.43 240.318C135.819 241.342 135.147 242.329 134.418 243.273C134.418 243.273 136.376 243.967 135.237 246.512C135.566 247.569 135.633 248.69 135.433 249.779C135.113 251.683 131.677 255.288 131.677 255.288L114.5 263.44L107.594 251.728L114.865 247.972Z" fill="#FFBE9D"/>
<path d="M74.9832 236.26L85.9658 259.702L110.361 249.129C110.361 249.129 120.462 255.021 119.065 261.464L97.0819 279.46C95.0272 281.148 92.6512 282.401 90.0978 283.143C87.5444 283.885 84.867 284.101 82.2278 283.777C79.3961 283.43 76.6738 282.471 74.25 280.967C71.8263 279.462 69.7592 277.448 68.1925 275.064L52.3149 250.927L43.4149 236.411C41.9891 234.151 41.2639 231.519 41.3304 228.847C41.3969 226.176 42.2522 223.583 43.7887 221.397C44.6277 220.217 45.6925 219.216 46.9215 218.451C50.8998 216.039 62.6834 214.989 74.9832 236.26Z" fill="#E33A32"/>
<path d="M128.988 237.63C127.892 238.575 126.699 239.401 125.428 240.095C124.232 240.919 122.956 241.619 121.619 242.187C122.724 241.253 123.916 240.427 125.179 239.721C126.378 238.903 127.654 238.202 128.988 237.63Z" fill="#EB996E"/>
<path d="M135.851 237.398C134.9 238.65 133.83 239.806 132.656 240.852C131.586 242.001 130.415 243.052 129.158 243.993C130.115 242.747 131.185 241.591 132.353 240.54C133.423 239.39 134.593 238.339 135.851 237.398Z" fill="#EB996E"/>
<path d="M134.934 242.686C134.557 243.462 134.051 244.169 133.439 244.777C132.549 245.854 131.659 246.673 131.605 246.557C131.987 245.778 132.495 245.068 133.11 244.457C133.615 243.769 134.232 243.171 134.934 242.686Z" fill="#EB996E"/>
<path d="M135.28 246.245C135.378 246.325 134.996 246.895 134.515 247.589C134.034 248.283 133.625 248.835 133.509 248.773C133.394 248.711 133.661 248.052 134.159 247.34C134.657 246.628 135.165 246.165 135.28 246.245Z" fill="#EB996E"/>
<path d="M93.3447 281.81C93.3447 281.81 93.3447 281.765 93.4515 281.703L93.7986 281.409L95.1781 280.297L100.447 276.132L119.262 261.411L119.181 261.562C119.191 260.342 118.958 259.132 118.496 258.002C117.969 256.819 117.289 255.709 116.476 254.7C114.697 252.599 112.594 250.797 110.246 249.36H110.451L97.8392 254.843L86.0556 259.88L85.8598 259.96L85.7619 259.773C82.5312 253.41 79.5319 247.429 76.5237 242.231C75.0196 239.624 73.5333 237.212 72.1271 234.96C70.7209 232.708 69.4571 230.626 68.131 228.828C66.1794 225.931 63.5842 223.525 60.5482 221.797C60.0231 221.486 59.5336 221.245 59.1064 221.04C58.6792 220.836 58.3321 220.667 58.0295 220.542L57.3709 220.248C57.2931 220.221 57.2185 220.185 57.1484 220.142C59.7889 221.047 62.2304 222.452 64.3396 224.28C65.8521 225.602 67.2052 227.095 68.3713 228.73C69.7063 230.51 71.0413 232.611 72.4208 234.853C73.8003 237.096 75.3489 239.499 76.8708 242.107C79.9324 247.304 82.9317 253.285 86.1802 259.64L85.8865 259.533L97.6256 254.424L110.237 248.951L110.344 248.906L110.442 248.969C112.833 250.439 114.973 252.284 116.778 254.433C117.61 255.478 118.307 256.623 118.852 257.842C119.328 259.043 119.567 260.324 119.555 261.616V261.705L119.475 261.767L100.572 276.318L95.2315 280.395L93.8164 281.463L93.4426 281.73L93.3447 281.81Z" fill="#263238"/>
<path d="M84.4879 267.072C84.3544 267.018 85.0308 265.345 85.3779 263.182C85.725 261.02 85.7339 259.213 85.8763 259.204C86.1786 260.54 86.1786 261.927 85.8763 263.262C85.7072 264.621 85.2325 265.923 84.4879 267.072Z" fill="#263238"/>
<path d="M218.46 335.931L231.214 351.906C231.214 351.906 251.737 344.314 254.354 347.038L224.281 372.91L203.393 348.88L218.46 335.931Z" fill="#E33A32"/>
<g opacity="0.6">
<path d="M220.792 358.599C220.578 358.935 220.495 359.338 220.561 359.731C220.627 360.124 220.836 360.479 221.148 360.726C221.476 360.953 221.878 361.045 222.272 360.984C222.666 360.923 223.022 360.713 223.266 360.397C223.491 360.038 223.575 359.609 223.503 359.192C223.431 358.775 223.207 358.399 222.874 358.137C222.506 357.938 222.076 357.889 221.673 358C221.27 358.111 220.925 358.374 220.712 358.733" fill="white"/>
</g>
<g opacity="0.6">
<path d="M224.281 372.91L222.27 370.4L251.871 346.53C251.871 346.53 253.713 345.961 254.372 347.038L224.281 372.91Z" fill="white"/>
</g>
<path d="M231.569 351.336C231.694 351.488 231.017 352.226 230.679 353.277C230.341 354.327 230.51 355.323 230.323 355.377C230.136 355.43 229.629 354.398 230.038 353.081C230.448 351.764 231.489 351.176 231.569 351.336Z" fill="#263238"/>
<path d="M235.851 349.93C236.003 350.046 235.584 350.82 235.62 351.897C235.656 352.974 236.074 353.721 235.923 353.846C235.771 353.971 234.961 353.214 234.944 351.906C234.926 350.597 235.727 349.77 235.851 349.93Z" fill="#263238"/>
<path d="M240.888 352.173C240.781 352.315 239.944 351.754 239.624 350.633C239.304 349.512 239.731 348.595 239.891 348.657C240.051 348.72 240.007 349.547 240.274 350.437C240.541 351.327 241.021 352.03 240.888 352.173Z" fill="#263238"/>
<path d="M228.26 347.99C228.313 348.177 227.468 348.56 226.685 349.325C225.901 350.091 225.483 350.91 225.296 350.856C225.109 350.803 225.296 349.735 226.186 348.845C227.076 347.955 228.233 347.839 228.26 347.99Z" fill="#263238"/>
<g opacity="0.3">
<path d="M220.988 339.1L223.257 341.948L208.359 354.514L206.205 352.04L220.988 339.1Z" fill="black"/>
</g>
<path d="M225.625 344.849C225.687 344.902 225.18 345.49 224.112 346.13C223.489 346.508 222.823 346.807 222.127 347.02C221.712 347.141 221.29 347.236 220.863 347.305C220.612 347.343 220.357 347.343 220.107 347.305C219.923 347.276 219.752 347.19 219.62 347.059C219.487 346.928 219.399 346.759 219.368 346.575C219.352 346.41 219.376 346.242 219.438 346.087C219.5 345.933 219.598 345.795 219.724 345.685C219.91 345.514 220.123 345.376 220.356 345.276C221.402 344.744 222.564 344.481 223.738 344.511C224.417 344.461 225.094 344.623 225.678 344.973C225.678 345.08 224.913 344.911 223.747 344.973C223.068 345.026 222.399 345.16 221.753 345.374C221.376 345.504 221.01 345.665 220.658 345.855C220.267 346.041 219.991 346.273 220.035 346.486C220.035 346.567 220.035 346.584 220.213 346.62C220.399 346.645 220.588 346.645 220.774 346.62C221.172 346.566 221.567 346.492 221.958 346.397C222.621 346.224 223.267 345.992 223.889 345.703C224.445 345.375 225.025 345.09 225.625 344.849Z" fill="#263238"/>
<path d="M225.617 345.222C225.617 345.285 224.842 345.009 223.97 344.101C223.16 343.245 222.603 342.183 222.359 341.03C222.27 340.762 222.252 340.475 222.306 340.197C222.361 339.92 222.486 339.661 222.671 339.446C222.805 339.331 222.971 339.258 223.147 339.237C223.323 339.217 223.501 339.249 223.659 339.331C223.888 339.439 224.101 339.58 224.291 339.749C224.744 340.14 225.116 340.618 225.383 341.154C225.65 341.691 225.808 342.275 225.848 342.873C225.937 344.154 225.474 344.857 225.412 344.822C225.454 344.191 225.454 343.557 225.412 342.926C225.305 342.27 225.053 341.647 224.673 341.102C224.459 340.783 224.198 340.498 223.899 340.256C223.579 339.98 223.24 339.82 223.142 339.954C223.059 340.096 223.006 340.255 222.989 340.419C222.973 340.583 222.991 340.749 223.045 340.906C223.114 341.293 223.224 341.672 223.374 342.036C223.619 342.674 223.955 343.274 224.371 343.816C225.047 344.715 225.679 345.124 225.617 345.222Z" fill="#263238"/>
<path d="M204.603 385.183L203.811 406.08C203.811 406.08 224.788 413.903 225.02 417.784L184.436 417.703L184.338 385.085L204.603 385.183Z" fill="#E33A32"/>
<g opacity="0.6">
<path d="M191.262 404.301C190.872 404.419 190.539 404.677 190.327 405.025C190.115 405.373 190.039 405.787 190.114 406.188C190.221 406.581 190.473 406.92 190.82 407.134C191.167 407.349 191.583 407.424 191.983 407.345C192.393 407.211 192.74 406.934 192.961 406.564C193.182 406.194 193.261 405.757 193.184 405.333C193.034 404.934 192.735 404.609 192.35 404.425C191.965 404.241 191.525 404.212 191.119 404.345" fill="white"/>
</g>
<g opacity="0.6">
<path d="M184.436 417.704L184.56 414.411L223.391 415.719C223.391 415.719 225.171 416.512 224.993 417.784L184.436 417.704Z" fill="white"/>
</g>
<path d="M204.469 405.841C204.469 406.036 203.472 406.125 202.493 406.731C201.514 407.336 200.998 408.19 200.811 408.11C200.624 408.03 200.926 406.891 202.128 406.143C203.329 405.396 204.513 405.698 204.469 405.841Z" fill="#263238"/>
<path d="M208.723 407.621C208.723 407.808 207.904 408.146 207.228 408.982C206.551 409.819 206.338 410.709 206.16 410.7C205.982 410.691 205.839 409.57 206.703 408.546C207.566 407.523 208.714 407.46 208.723 407.621Z" fill="#263238"/>
<path d="M211.128 412.747C210.95 412.747 210.674 411.795 211.19 410.709C211.706 409.623 212.623 409.196 212.712 409.365C212.801 409.534 212.213 410.104 211.822 411.002C211.43 411.901 211.323 412.729 211.128 412.747Z" fill="#263238"/>
<path d="M204.122 401.097C204.033 401.275 203.125 400.999 202.004 401.097C200.882 401.195 200.01 401.524 199.912 401.355C199.814 401.186 200.651 400.465 201.968 400.412C203.285 400.358 204.22 400.937 204.122 401.097Z" fill="#263238"/>
<g opacity="0.3">
<path d="M204.442 389.322L204.308 393.042L184.363 392.829L184.346 389.465L204.442 389.322Z" fill="black"/>
</g>
<path d="M204.203 396.869C203.54 397.057 202.837 397.057 202.174 396.869C201.005 396.655 199.887 396.22 198.881 395.587C198.651 395.463 198.443 395.3 198.267 395.107C198.142 394.964 198.066 394.785 198.05 394.596C198.034 394.407 198.079 394.218 198.178 394.056C198.28 393.917 198.414 393.803 198.569 393.724C198.723 393.645 198.894 393.604 199.068 393.603C199.324 393.602 199.578 393.638 199.824 393.709C200.995 393.995 202.075 394.57 202.966 395.383C203.9 396.273 204.221 396.993 204.15 397.029C204.078 397.065 203.607 396.477 202.654 395.756C202.105 395.344 201.507 395 200.874 394.733C200.497 394.577 200.107 394.455 199.709 394.368C199.281 394.252 198.916 394.252 198.819 394.439C198.721 394.626 198.774 394.546 198.863 394.671C198.997 394.807 199.15 394.924 199.317 395.018C199.658 395.247 200.015 395.452 200.385 395.632C201.015 395.947 201.673 396.2 202.352 396.388C202.978 396.509 203.597 396.67 204.203 396.869Z" fill="#263238"/>
<path d="M203.944 397.154C203.557 396.577 203.37 395.889 203.41 395.196C203.361 393.991 203.638 392.795 204.211 391.734C204.322 391.466 204.499 391.231 204.727 391.052C204.954 390.873 205.224 390.755 205.51 390.71C205.698 390.707 205.883 390.759 206.041 390.86C206.2 390.962 206.325 391.108 206.4 391.28C206.504 391.519 206.575 391.77 206.614 392.027C206.702 392.635 206.669 393.253 206.516 393.848C206.363 394.442 206.094 395 205.724 395.489C204.923 396.54 204.095 396.78 204.077 396.709C204.06 396.638 204.709 396.228 205.314 395.222C205.668 394.64 205.89 393.987 205.964 393.309C206.017 392.919 206.017 392.524 205.964 392.134C205.902 391.707 205.742 391.36 205.581 391.404C205.421 391.449 205.03 391.725 204.861 392.063C204.661 392.415 204.495 392.784 204.362 393.167C204.131 393.82 203.996 394.503 203.962 395.196C203.81 396.388 204.051 397.127 203.944 397.154Z" fill="#263238"/>
<path d="M184.025 286.357L224.182 339.722L205.394 355.858L186.063 330.573L184.025 286.357Z" fill="#263238"/>
<path d="M98.9961 288.912C98.9961 288.912 163.61 269.225 169.529 269.474C175.447 269.723 186.679 291.092 186.679 291.092L168.541 290.434C163.886 301.852 155.289 313.574 145.605 325.446L108.519 323.72L98.9961 288.912Z" fill="#263238"/>
<path d="M151.808 273.354C151.808 273.479 145.204 275.562 136.981 278.009C128.757 280.457 122.055 282.335 122.02 282.21C121.984 282.085 128.615 280.003 136.847 277.564C145.08 275.126 151.772 273.23 151.808 273.354Z" fill="#263238"/>
<path d="M166.823 290.087H184.961C189.376 290.09 193.681 291.461 197.284 294.011C200.888 296.561 203.613 300.165 205.084 304.327C206.498 308.34 207.121 312.59 206.917 316.84L205.502 390.71H181.09L180.645 367.125L177.556 322.296L156.419 323.186L144.439 322.438L166.823 290.087Z" fill="#263238"/>
<path d="M167.365 289.722C167.284 290.248 167.168 290.768 167.018 291.279C166.669 292.69 166.241 294.081 165.736 295.444C164.998 297.468 164.106 299.432 163.066 301.318C161.771 303.632 160.283 305.833 158.616 307.895C155.541 311.564 152.248 315.044 148.755 318.317L145.622 321.334C145.254 321.719 144.855 322.074 144.43 322.394C144.756 321.973 145.11 321.575 145.489 321.201C146.192 320.453 147.269 319.421 148.524 318.086C151.941 314.757 155.187 311.258 158.251 307.602C161.241 303.891 163.658 299.754 165.425 295.329C166.066 293.62 166.555 292.214 166.84 291.235C166.974 290.717 167.149 290.211 167.365 289.722Z" fill="#455A64"/>
<path d="M189.571 290.585C188.469 290.588 187.367 290.535 186.269 290.425C184.24 290.309 181.428 290.229 178.331 290.292C175.233 290.354 172.421 290.541 170.383 290.674C169.29 290.8 168.19 290.857 167.09 290.843C167.377 290.743 167.676 290.681 167.98 290.657C168.541 290.568 169.359 290.461 170.374 290.345C172.403 290.131 175.216 289.891 178.384 289.829C181.057 289.766 183.732 289.858 186.394 290.105C187.409 290.194 188.227 290.309 188.797 290.398C189.061 290.432 189.321 290.495 189.571 290.585Z" fill="#455A64"/>
<path d="M180.982 377.182C180.939 376.98 180.916 376.775 180.91 376.568C180.91 376.114 180.857 375.536 180.812 374.788C180.741 373.195 180.643 370.988 180.528 368.291C180.287 362.809 179.958 355.235 179.433 346.878C178.908 338.521 178.285 330.956 177.831 325.518C177.608 322.848 177.43 320.623 177.306 319.039C177.252 318.309 177.217 317.722 177.181 317.259C177.156 317.052 177.156 316.843 177.181 316.636C177.227 316.838 177.26 317.043 177.279 317.25L177.493 319.03C177.662 320.605 177.884 322.803 178.169 325.491C178.703 330.956 179.371 338.521 179.905 346.851C180.439 355.182 180.706 362.8 180.866 368.291C180.919 370.961 180.973 373.195 181.008 374.788C181.008 375.518 181.008 376.106 181.008 376.568C181.022 376.773 181.013 376.979 180.982 377.182Z" fill="#263238"/>
<path d="M206.953 314.027C207.086 314.027 206.997 330.937 206.766 351.79C206.534 372.643 206.232 389.553 206.107 389.553C205.982 389.553 206.063 372.643 206.303 351.781C206.543 330.92 206.828 314.027 206.953 314.027Z" fill="#455A64"/>
<path d="M187.035 311.269C185.243 311.969 183.5 312.789 181.819 313.725C180.226 314.809 178.706 315.998 177.271 317.285C177.546 316.778 177.907 316.323 178.339 315.941C180.288 313.953 182.697 312.476 185.353 311.642C185.888 311.422 186.457 311.295 187.035 311.269Z" fill="#263238"/>
<g opacity="0.3">
<path d="M144.439 322.403C149.37 323.293 154.772 321.807 158.991 319.172C163.204 316.539 166.258 312.403 167.535 307.602C168.078 305.475 168.238 303.268 168.781 301.141C169.209 298.957 170.375 296.987 172.083 295.561C174.148 294.021 179.203 293.042 180.751 290.977C180.751 290.674 174.717 291.369 172.697 291.484C170.49 291.6 166.796 292.161 166.876 291.903C166.292 294.041 165.579 296.143 164.74 298.195C160.344 305.751 150.687 316.885 144.439 322.439" fill="black"/>
</g>
<path d="M43.7539 374.637L50.6247 419.555H57.4332L54.0779 374.815L43.7539 374.637Z" fill="#263238"/>
<path d="M164.605 374.815V419.555H171.797L174.476 374.637L164.605 374.815Z" fill="#263238"/>
<path d="M42.534 235.851C42.534 235.851 32.9131 236.233 29.9672 240.301C24.7785 247.421 27.6977 253.579 27.404 255.68C27.1103 257.78 43.7533 374.637 43.7533 374.637H50.6063L174.441 375.785L180.422 361.341L177.556 322.261L144.439 322.403C144.439 322.403 130.875 283.474 119.021 280.876C111.011 279.096 92.1338 279.736 80.7506 280.324C77.9697 280.468 75.1998 279.877 72.7201 278.61C70.2404 277.343 68.1385 275.444 66.6263 273.106L42.534 235.851Z" fill="#455A64"/>
<path d="M152.324 370.045C152.324 370.045 151.639 370.134 150.322 370.196C149.005 370.258 147.065 370.303 144.555 370.321C139.526 370.392 132.237 370.41 123.195 370.401C105.03 370.401 79.7094 370.249 51.1048 370H50.9179V369.822C50.4017 367.375 49.8766 364.856 49.3426 362.302C48.8086 359.747 48.3013 357.131 47.7762 354.505C41.5462 322.804 37.915 293.754 35.957 272.688C34.9691 262.159 34.3817 253.615 34.0079 247.705C33.8477 244.768 33.7142 242.481 33.6341 240.906C33.6341 240.14 33.5718 239.553 33.5451 239.126C33.5184 238.699 33.5451 238.521 33.5451 238.521C33.5451 238.521 33.5451 238.725 33.6074 239.126C33.6697 239.526 33.6786 240.131 33.732 240.906C33.8388 242.472 33.999 244.759 34.1948 247.696C34.622 253.597 35.2628 262.132 36.2863 272.661C38.271 293.701 41.9289 322.723 48.1411 354.407C48.6632 357.036 49.1853 359.632 49.7075 362.195C50.2296 364.758 50.7547 367.265 51.2828 369.715L51.0603 369.537L123.15 370.098L144.51 370.152H150.277C150.936 370.152 151.426 370.098 151.764 370.098L152.324 370.045Z" fill="#263238"/>
<path d="M151.016 375.581C151.009 375.392 151.027 375.204 151.069 375.02C151.131 374.611 151.202 374.085 151.3 373.445C151.398 372.804 151.55 371.923 151.656 370.944C151.763 369.965 151.941 368.861 152.021 367.624C152.101 366.387 152.262 365.052 152.315 363.592C152.368 362.133 152.413 360.593 152.44 358.955C152.422 355.411 152.214 351.869 151.817 348.347C151.388 344.828 150.776 341.335 149.983 337.88C149.236 334.694 148.435 331.864 147.66 329.505C147.313 328.322 146.913 327.28 146.592 326.346C146.272 325.411 145.978 324.619 145.702 323.978L145.15 322.483C145.074 322.313 145.02 322.133 144.99 321.949C145.09 322.107 145.173 322.274 145.239 322.448L145.871 323.907C146.147 324.548 146.477 325.331 146.761 326.257C147.046 327.182 147.527 328.224 147.901 329.407C148.71 331.748 149.556 334.587 150.33 337.782C151.148 341.249 151.775 344.758 152.208 348.293C152.604 351.839 152.801 355.405 152.796 358.973C152.796 360.62 152.742 362.177 152.626 363.637C152.511 365.096 152.413 366.449 152.279 367.677C152.146 368.906 151.977 370.027 151.834 370.997C151.692 371.967 151.55 372.777 151.407 373.489C151.265 374.201 151.167 374.646 151.087 375.056C151.08 375.232 151.057 375.408 151.016 375.581Z" fill="#263238"/>
<path d="M60.2441 291.805C60.3962 291.649 60.5631 291.509 60.7425 291.386C61.1252 291.093 61.6325 290.719 62.2377 290.238L63.3324 289.428C63.7418 289.152 64.2224 288.885 64.7119 288.583C65.8175 287.869 66.968 287.226 68.1562 286.66L70.221 285.69C70.933 285.334 71.7251 285.076 72.5172 284.747C73.3093 284.418 74.137 284.079 75.0092 283.804L77.6792 282.914C81.7119 281.727 85.8343 280.869 90.0057 280.35C94.1627 279.802 98.353 279.546 102.546 279.585C104.477 279.585 106.311 279.71 108.028 279.772C109.746 279.834 111.33 280.039 112.781 280.244C115.068 280.538 117.338 280.957 119.58 281.498L121.36 281.997C121.573 282.049 121.781 282.117 121.983 282.202C121.764 282.184 121.546 282.146 121.334 282.086L119.5 281.668C117.916 281.338 115.593 280.902 112.701 280.573C111.259 280.386 109.666 280.297 107.966 280.155C106.266 280.012 104.406 279.968 102.501 280.012C98.3351 280.002 94.1727 280.266 90.0413 280.804C85.9033 281.322 81.8118 282.161 77.8038 283.314L75.1338 284.142C74.2438 284.409 73.4517 284.765 72.6507 285.032C71.8497 285.299 71.0665 285.601 70.3545 285.922C69.6425 286.242 68.9483 286.58 68.2897 286.892C67.1036 287.441 65.9506 288.059 64.8365 288.743C64.3381 289.028 63.8664 289.286 63.4392 289.544L62.3356 290.327L60.7959 291.395C60.6247 291.548 60.44 291.685 60.2441 291.805Z" fill="#263238"/>
<path d="M133.865 298.15C133.865 298.15 133.865 298.248 133.776 298.444C133.687 298.64 133.625 298.916 133.474 299.29C133.012 300.344 132.398 301.325 131.649 302.2C130.439 303.573 128.988 304.713 127.368 305.564C126.355 306.083 125.301 306.521 124.218 306.872C122.991 307.238 121.734 307.494 120.462 307.638C117.546 307.887 114.609 307.719 111.74 307.139C108.634 306.588 105.403 305.689 101.95 304.87C98.4 303.932 94.7456 303.448 91.074 303.428C89.143 303.456 87.2256 303.756 85.378 304.318C83.478 304.904 81.6906 305.806 80.0914 306.988C76.9787 309.403 74.3565 312.39 72.3662 315.79C70.3281 319.021 68.7172 322.358 67.0262 325.447C65.4613 328.4 63.5942 331.183 61.4548 333.75C59.5842 336.018 57.2508 337.86 54.6107 339.153C52.4188 340.209 50.0297 340.795 47.5975 340.87C45.7675 340.915 43.9484 340.575 42.2575 339.874C41.6351 339.614 41.0391 339.295 40.4775 338.921C40.0147 338.574 39.5875 338.272 39.3383 338.031L38.7242 337.382C38.5818 337.23 38.5195 337.15 38.5195 337.15C38.5195 337.15 38.6085 337.212 38.7509 337.346L39.4006 337.96C39.6943 338.209 40.0948 338.494 40.5487 338.85C41.114 339.2 41.7098 339.498 42.3287 339.74C44.002 340.396 45.7927 340.699 47.5886 340.63C49.9735 340.543 52.3151 339.968 54.4683 338.939C57.054 337.652 59.3379 335.832 61.17 333.599C63.2775 331.03 65.1146 328.25 66.6524 325.304C68.3523 322.225 69.9632 318.878 71.9924 315.612C74.0135 312.172 76.6752 309.151 79.8333 306.712C81.4727 305.505 83.3014 304.579 85.2445 303.971C87.137 303.405 89.099 303.106 91.074 303.081C94.7857 303.105 98.4793 303.601 102.066 304.558C105.492 305.395 108.714 306.338 111.784 306.872C114.623 307.452 117.528 307.635 120.417 307.415C121.667 307.285 122.903 307.044 124.111 306.694C125.184 306.361 126.229 305.941 127.235 305.439C128.838 304.619 130.281 303.519 131.498 302.191C132.521 300.996 133.323 299.627 133.865 298.15Z" fill="white"/>
<path d="M179.13 355.111L178.739 355.208L177.591 355.44C176.986 355.589 176.392 355.776 175.811 356.001C175.43 356.137 175.059 356.298 174.698 356.481C174.276 356.665 173.866 356.876 173.47 357.113C171.412 358.298 169.498 359.717 167.765 361.341C165.7 363.21 163.493 365.497 160.788 367.749C159.381 368.948 157.847 369.99 156.213 370.855C155.34 371.316 154.432 371.709 153.498 372.03L152.03 372.43C151.528 372.543 151.02 372.63 150.508 372.688C148.366 372.948 146.196 372.84 144.091 372.368C141.87 371.848 139.723 371.049 137.701 369.991C133.41 367.68 129.439 364.816 125.891 361.474C122.153 358.083 118.335 354.497 113.885 351.56C111.705 350.096 109.344 348.92 106.862 348.062C104.453 347.243 101.91 346.89 99.3686 347.021C96.9167 347.19 94.5103 347.767 92.2486 348.729C90.0724 349.654 87.9742 350.752 85.9741 352.013C82.0403 354.443 78.4625 357.042 74.8224 359.027C66.4867 363.511 56.9661 365.302 47.5706 364.153C45.5468 363.922 43.546 363.52 41.5898 362.952C41.7245 362.964 41.8583 362.985 41.9903 363.014L43.1384 363.263C44.1441 363.477 45.6482 363.752 47.5884 363.975C53.0914 364.583 58.6588 364.2 64.0267 362.845C67.7244 361.905 71.2888 360.502 74.6355 358.671C78.1955 356.686 81.8089 354.087 85.7516 351.631C87.768 350.353 89.8841 349.24 92.0795 348.302C94.3845 347.309 96.839 346.707 99.3419 346.522C101.94 346.384 104.541 346.743 107.005 347.581C109.525 348.448 111.919 349.645 114.125 351.141C118.628 354.105 122.455 357.709 126.184 361.1C129.701 364.421 133.635 367.269 137.888 369.573C139.872 370.654 141.987 371.477 144.18 372.021C146.237 372.494 148.359 372.608 150.455 372.359C150.957 372.303 151.456 372.22 151.95 372.11L153.392 371.736C154.309 371.419 155.201 371.036 156.062 370.588C157.681 369.746 159.2 368.725 160.592 367.544C163.262 365.328 165.522 363.094 167.605 361.207C169.351 359.568 171.283 358.14 173.363 356.953C173.767 356.72 174.186 356.514 174.618 356.339C174.982 356.152 175.36 355.995 175.748 355.867C176.352 355.658 176.967 355.483 177.591 355.342L178.748 355.155L179.13 355.111Z" fill="white"/>
<path d="M55.2699 257.851C55.2404 258.233 55.1596 258.611 55.0296 258.972C54.733 259.98 54.3334 260.956 53.837 261.882C52.2199 264.986 49.69 267.52 46.5884 269.141C43.4869 270.763 39.9627 271.395 36.4909 270.951C35.4493 270.83 34.4232 270.601 33.4293 270.266C33.0557 270.164 32.6967 270.015 32.3613 269.821C33.7288 270.189 35.1207 270.46 36.5265 270.631C39.9268 270.979 43.3545 270.322 46.3844 268.74C49.4142 267.157 51.9128 264.72 53.57 261.731C54.2241 260.478 54.792 259.181 55.2699 257.851Z" fill="white"/>
<path d="M333.794 140.904H165.53C162.119 140.904 159.354 143.67 159.354 147.081V192.631C159.354 196.042 162.119 198.808 165.53 198.808H333.794C337.205 198.808 339.97 196.042 339.97 192.631V147.081C339.97 143.67 337.205 140.904 333.794 140.904Z" fill="white"/>
<path d="M333.75 198.808C334.149 198.781 334.548 198.734 334.942 198.665C336.099 198.43 337.163 197.865 338.004 197.037C338.629 196.441 339.115 195.715 339.428 194.91C339.791 193.932 339.94 192.888 339.864 191.848C339.864 189.579 339.864 186.953 339.864 184.007C339.864 178.098 339.864 170.88 339.864 162.505C339.864 158.313 339.864 153.827 339.864 149.075C339.942 147.884 339.87 146.688 339.65 145.515C339.335 144.32 338.659 143.252 337.715 142.456C336.77 141.66 335.603 141.174 334.373 141.065C333.118 141.011 331.792 141.065 330.475 141.065L165.54 141.136C164.568 141.137 163.612 141.375 162.754 141.83C161.899 142.284 161.166 142.937 160.618 143.735C160.079 144.533 159.738 145.448 159.621 146.405C159.541 147.348 159.621 148.38 159.621 149.359V161.205C159.621 169.049 159.621 176.763 159.621 184.345V190.015C159.621 190.958 159.621 191.901 159.621 192.827C159.658 193.728 159.895 194.61 160.315 195.408C160.737 196.196 161.328 196.879 162.047 197.409C162.766 197.938 163.595 198.301 164.472 198.47C165.358 198.568 166.251 198.601 167.142 198.568H191.35L265.478 198.621L315.451 198.692L329.042 198.737H332.602H333.803C333.803 198.737 333.403 198.737 332.602 198.737H329.042H315.451L265.478 198.808L191.35 198.861H167.177C166.247 198.9 165.316 198.865 164.392 198.754C162.955 198.497 161.651 197.755 160.695 196.652C159.74 195.549 159.191 194.152 159.141 192.694C159.141 191.741 159.141 190.816 159.141 189.872V149.199C159.141 148.194 159.141 147.241 159.185 146.191C159.301 145.155 159.669 144.163 160.257 143.302C160.845 142.44 161.635 141.737 162.558 141.252C163.482 140.761 164.512 140.504 165.558 140.504L330.448 140.575C331.774 140.575 333.064 140.575 334.373 140.575C335.664 140.693 336.888 141.204 337.879 142.04C338.871 142.875 339.582 143.995 339.917 145.248C340.077 145.848 340.149 146.469 340.131 147.09V148.87C340.131 153.623 340.131 158.108 340.131 162.3C340.131 170.675 340.131 177.893 340.131 183.802C340.131 186.748 340.131 189.374 340.131 191.643C340.205 192.7 340.047 193.76 339.668 194.749C339.276 195.707 338.652 196.551 337.852 197.207C337.051 197.863 336.1 198.309 335.085 198.505C334.791 198.559 334.493 198.591 334.195 198.603L333.75 198.808Z" fill="#263238"/>
<path d="M326.959 152.786C326.9 152.787 326.842 152.765 326.799 152.724C326.757 152.681 326.734 152.624 326.734 152.564C326.734 152.504 326.757 152.447 326.799 152.404L331.249 148.141C331.292 148.099 331.349 148.076 331.409 148.076C331.469 148.076 331.526 148.099 331.569 148.141C331.61 148.182 331.633 148.238 331.633 148.296C331.633 148.355 331.61 148.411 331.569 148.452L327.119 152.715C327.099 152.738 327.074 152.756 327.047 152.768C327.019 152.78 326.989 152.787 326.959 152.786Z" fill="#263238"/>
<path d="M331.392 152.803C331.364 152.805 331.335 152.8 331.309 152.789C331.283 152.778 331.26 152.762 331.241 152.741L326.835 148.442C326.814 148.423 326.797 148.398 326.785 148.372C326.774 148.345 326.768 148.316 326.768 148.287C326.768 148.258 326.774 148.229 326.785 148.202C326.797 148.175 326.814 148.151 326.835 148.131C326.877 148.09 326.933 148.067 326.991 148.067C327.049 148.067 327.105 148.09 327.146 148.131L331.596 152.439C331.637 152.48 331.66 152.536 331.66 152.594C331.66 152.653 331.637 152.709 331.596 152.75C331.57 152.776 331.537 152.795 331.501 152.804C331.465 152.813 331.428 152.813 331.392 152.803Z" fill="#263238"/>
<path d="M198.274 181.106L196.494 178.534C195.399 176.985 194.811 175.135 194.811 173.239V167.454C194.811 165.199 194.003 163.019 192.534 161.31C191.064 159.6 189.03 158.474 186.801 158.135V155.376C186.801 155.039 186.667 154.715 186.429 154.476C186.19 154.238 185.866 154.104 185.529 154.104C185.362 154.104 185.197 154.136 185.043 154.201C184.889 154.265 184.749 154.359 184.632 154.477C184.514 154.595 184.422 154.735 184.359 154.89C184.296 155.044 184.264 155.21 184.265 155.376V158.046C181.97 158.318 179.855 159.423 178.32 161.15C176.785 162.877 175.936 165.107 175.935 167.418V173.408C175.933 175.467 175.24 177.467 173.968 179.086L172.41 181.071L198.274 181.106Z" fill="#E33A32"/>
<path d="M183.972 185.307C184.676 185.592 185.446 185.674 186.194 185.545C186.943 185.417 187.641 185.081 188.209 184.577C188.696 184.128 189.063 183.566 189.277 182.939L181.738 182.886C181.922 183.422 182.216 183.915 182.6 184.331C182.985 184.748 183.452 185.08 183.972 185.307Z" fill="#E33A32"/>
<path d="M299.929 160.467C299.929 160.591 279.7 160.698 254.744 160.698C229.788 160.698 209.559 160.591 209.559 160.467C209.559 160.342 229.788 160.235 254.744 160.235C279.7 160.235 299.929 160.342 299.929 160.467Z" fill="#263238"/>
<path d="M321.182 171.404C321.182 171.529 296.182 171.636 265.352 171.636C234.523 171.636 209.514 171.529 209.514 171.404C209.514 171.28 234.505 171.173 265.352 171.173C296.2 171.173 321.182 171.271 321.182 171.404Z" fill="#E0E0E0"/>
<path d="M321.182 178C321.182 178.125 296.182 178.231 265.352 178.231C234.523 178.231 209.514 178.125 209.514 178C209.514 177.875 234.505 177.769 265.352 177.769C296.2 177.769 321.182 177.822 321.182 178Z" fill="#E0E0E0"/>
<path d="M304.897 207.851H193.157C189.746 207.851 186.98 210.616 186.98 214.027V241.457C186.98 244.868 189.746 247.634 193.157 247.634H304.897C308.308 247.634 311.073 244.868 311.073 241.457V214.027C311.073 210.616 308.308 207.851 304.897 207.851Z" fill="#FAFAFA"/>
<path d="M304.896 247.634C304.896 247.634 305.172 247.634 305.706 247.545C306.498 247.441 307.261 247.177 307.948 246.77C308.864 246.236 309.625 245.472 310.157 244.555C310.689 243.637 310.974 242.598 310.983 241.537V238.698C310.983 234.675 310.983 229.798 310.939 224.075C310.939 221.227 310.939 218.175 310.939 214.944C310.981 214.138 310.915 213.33 310.743 212.541C310.542 211.741 310.175 210.992 309.666 210.343C309.145 209.666 308.484 209.109 307.728 208.71C306.973 208.31 306.14 208.078 305.287 208.029L193.147 208.082C191.829 208.081 190.547 208.517 189.504 209.322C188.46 210.128 187.713 211.257 187.38 212.532C187.224 213.169 187.161 213.826 187.193 214.481V216.501C187.193 217.845 187.193 219.171 187.193 220.515V240.095C187.193 240.736 187.193 241.386 187.193 241.991C187.259 242.603 187.412 243.202 187.647 243.771C188.132 244.89 188.946 245.836 189.981 246.481C191.016 247.126 192.223 247.442 193.441 247.384H208.01L258.411 247.429L292.4 247.509L301.638 247.554H304.041H304.86C304.86 247.554 304.575 247.554 304.041 247.554H301.638H292.4L258.411 247.625L208.01 247.678H193.477C192.167 247.738 190.871 247.4 189.758 246.707C188.646 246.014 187.77 244.999 187.247 243.798C186.999 243.188 186.837 242.547 186.766 241.893C186.713 241.217 186.766 240.594 186.766 239.953V214.49C186.733 213.796 186.802 213.1 186.971 212.425C187.325 211.044 188.13 209.82 189.259 208.948C190.387 208.076 191.774 207.605 193.201 207.61L305.341 207.69C306.678 207.776 307.954 208.284 308.984 209.142C310.014 209.999 310.745 211.161 311.072 212.461C311.251 213.273 311.317 214.105 311.268 214.935C311.268 218.166 311.268 221.218 311.268 224.066C311.268 229.762 311.268 234.666 311.268 238.689C311.268 239.686 311.268 240.638 311.268 241.528C311.257 242.373 311.072 243.206 310.725 243.976C310.179 245.182 309.266 246.184 308.117 246.842C307.417 247.243 306.641 247.498 305.839 247.589C305.526 247.63 305.211 247.645 304.896 247.634Z" fill="#263238"/>
<path d="M302.138 216.083C302.108 216.083 302.078 216.076 302.05 216.064C302.023 216.052 301.998 216.034 301.978 216.012C301.956 215.992 301.939 215.968 301.928 215.941C301.916 215.914 301.91 215.885 301.91 215.856C301.91 215.827 301.916 215.798 301.928 215.771C301.939 215.744 301.956 215.72 301.978 215.7L305.03 212.772C305.051 212.751 305.076 212.734 305.103 212.722C305.131 212.71 305.161 212.704 305.19 212.704C305.22 212.704 305.25 212.71 305.278 212.722C305.305 212.734 305.33 212.751 305.351 212.772C305.391 212.814 305.414 212.87 305.414 212.928C305.414 212.986 305.391 213.042 305.351 213.084L302.289 216.012C302.27 216.034 302.247 216.051 302.221 216.064C302.195 216.076 302.167 216.082 302.138 216.083Z" fill="#263238"/>
<path d="M305.18 216.092C305.12 216.092 305.063 216.07 305.02 216.03L301.994 213.075C301.962 213.032 301.946 212.979 301.95 212.925C301.954 212.872 301.977 212.822 302.014 212.784C302.052 212.746 302.103 212.723 302.156 212.719C302.209 212.716 302.262 212.731 302.305 212.763L305.331 215.718C305.372 215.76 305.395 215.816 305.395 215.874C305.395 215.932 305.372 215.988 305.331 216.03C305.29 216.068 305.236 216.09 305.18 216.092Z" fill="#263238"/>
<path d="M213.716 235.467L212.47 233.687C211.721 232.621 211.317 231.35 211.313 230.047V226.06C211.312 224.513 210.758 223.018 209.751 221.845C208.744 220.671 207.35 219.896 205.822 219.661V217.765C205.822 217.529 205.728 217.303 205.561 217.136C205.394 216.969 205.168 216.875 204.932 216.875C204.696 216.875 204.47 216.969 204.303 217.136C204.136 217.303 204.042 217.529 204.042 217.765V219.634C202.465 219.819 201.012 220.577 199.957 221.763C198.902 222.949 198.319 224.481 198.319 226.069V230.181C198.32 231.594 197.847 232.966 196.975 234.079L195.898 235.449L213.716 235.467Z" fill="#455A64"/>
<path d="M203.889 238.359C204.373 238.553 204.901 238.609 205.415 238.521C205.929 238.433 206.408 238.205 206.8 237.861C207.135 237.552 207.387 237.163 207.529 236.73H202.35C202.482 237.092 202.687 237.423 202.952 237.703C203.217 237.983 203.536 238.206 203.889 238.359Z" fill="#455A64"/>
<path d="M283.537 221.289C283.537 221.414 269.635 221.52 252.485 221.52C235.334 221.52 221.441 221.414 221.441 221.289C221.441 221.164 235.343 221.058 252.485 221.058C269.626 221.058 283.537 221.156 283.537 221.289Z" fill="#263238"/>
<path d="M298.149 228.801C298.149 228.934 280.972 229.032 259.79 229.032C238.608 229.032 221.422 228.934 221.422 228.801C221.422 228.667 238.59 228.569 259.79 228.569C280.99 228.569 298.149 228.676 298.149 228.801Z" fill="#E0E0E0"/>
<path d="M298.149 233.305C298.149 233.429 280.972 233.536 259.79 233.536C238.608 233.536 221.422 233.429 221.422 233.305C221.422 233.18 238.59 233.073 259.79 233.073C280.99 233.073 298.149 233.18 298.149 233.305Z" fill="#E0E0E0"/>
<path d="M304.425 253.818H193.62C190.209 253.818 187.443 256.584 187.443 259.995V287.122C187.443 290.533 190.209 293.299 193.62 293.299H304.425C307.836 293.299 310.602 290.533 310.602 287.122V259.995C310.602 256.584 307.836 253.818 304.425 253.818Z" fill="#FAFAFA"/>
<path d="M304.425 293.308C304.425 293.308 304.701 293.308 305.226 293.228C306.012 293.12 306.768 292.857 307.451 292.453C308.571 291.809 309.458 290.828 309.988 289.65C310.316 288.903 310.494 288.098 310.513 287.282V284.47C310.513 280.483 310.513 275.614 310.513 269.963C310.513 267.133 310.513 264.107 310.513 260.903C310.559 260.102 310.493 259.3 310.317 258.518C310.12 257.725 309.759 256.982 309.258 256.337C308.743 255.662 308.09 255.105 307.342 254.703C306.595 254.301 305.77 254.063 304.923 254.005L193.673 254.05C192.36 254.058 191.085 254.499 190.046 255.303C189.007 256.107 188.262 257.23 187.924 258.5C187.762 259.13 187.693 259.781 187.719 260.431V266.412C187.719 271.71 187.719 276.92 187.719 282.04V285.858C187.719 286.49 187.719 287.14 187.719 287.736C187.78 288.348 187.93 288.948 188.164 289.516C188.642 290.628 189.445 291.57 190.468 292.216C191.491 292.863 192.686 293.185 193.896 293.139H208.35L258.359 293.183L292.081 293.263L301.248 293.308H303.633H304.443C304.443 293.308 304.167 293.308 303.633 293.308H301.248L292.081 293.352L258.359 293.423L208.35 293.477H193.878C192.581 293.52 191.301 293.172 190.205 292.478C189.108 291.785 188.245 290.778 187.728 289.587C187.48 288.981 187.318 288.343 187.248 287.692C187.248 287.033 187.248 286.41 187.248 285.769C187.248 284.506 187.248 283.233 187.248 281.951V260.395C187.22 259.706 187.295 259.016 187.47 258.348C187.84 256.98 188.651 255.772 189.778 254.911C190.904 254.05 192.283 253.585 193.7 253.587L304.95 253.685C305.841 253.748 306.709 254 307.495 254.425C308.281 254.85 308.967 255.438 309.507 256.15C310.027 256.834 310.405 257.615 310.619 258.446C310.79 259.253 310.855 260.079 310.815 260.903C310.815 264.107 310.815 267.133 310.815 269.963C310.815 275.614 310.815 280.483 310.771 284.47C310.771 285.458 310.771 286.401 310.771 287.282C310.74 288.357 310.433 289.405 309.877 290.325C309.322 291.245 308.539 292.006 307.602 292.533C306.904 292.933 306.132 293.184 305.333 293.272C305.032 293.309 304.728 293.321 304.425 293.308Z" fill="#263238"/>
<path d="M301.71 261.998C301.68 261.998 301.65 261.991 301.623 261.979C301.595 261.967 301.57 261.949 301.55 261.927C301.529 261.907 301.512 261.883 301.5 261.856C301.488 261.829 301.482 261.8 301.482 261.771C301.482 261.742 301.488 261.713 301.5 261.686C301.512 261.659 301.529 261.635 301.55 261.615L304.585 258.705C304.628 258.664 304.685 258.641 304.745 258.641C304.805 258.641 304.862 258.664 304.905 258.705C304.946 258.747 304.969 258.803 304.969 258.861C304.969 258.919 304.946 258.975 304.905 259.017L301.87 261.927C301.85 261.95 301.826 261.968 301.798 261.98C301.77 261.993 301.74 261.999 301.71 261.998Z" fill="#263238"/>
<path d="M304.755 262.007C304.695 262.008 304.638 261.985 304.594 261.945L301.595 258.99C301.553 258.949 301.528 258.892 301.527 258.833C301.527 258.774 301.549 258.717 301.591 258.674C301.632 258.632 301.688 258.607 301.748 258.606C301.807 258.606 301.864 258.628 301.907 258.67L304.906 261.607C304.947 261.648 304.969 261.704 304.969 261.762C304.969 261.821 304.947 261.877 304.906 261.918C304.869 261.967 304.815 261.999 304.755 262.007Z" fill="#263238"/>
<path d="M213.983 281.24L212.71 279.46C211.961 278.404 211.56 277.141 211.562 275.846V271.913C211.561 270.376 211.011 268.889 210.01 267.723C209.01 266.556 207.625 265.785 206.106 265.549V263.671C206.106 263.435 206.012 263.209 205.846 263.042C205.679 262.875 205.452 262.781 205.216 262.781C204.98 262.781 204.754 262.875 204.587 263.042C204.42 263.209 204.326 263.435 204.326 263.671V265.522C202.763 265.71 201.323 266.463 200.278 267.641C199.233 268.819 198.657 270.338 198.657 271.913V275.998C198.657 277.401 198.187 278.764 197.322 279.869L196.334 281.24H213.983Z" fill="#E0E0E0"/>
<path d="M204.229 284.105C204.71 284.296 205.235 284.351 205.745 284.263C206.256 284.175 206.732 283.948 207.121 283.607C207.453 283.3 207.701 282.914 207.842 282.485H202.707C202.836 282.845 203.038 283.174 203.3 283.453C203.562 283.732 203.878 283.954 204.229 284.105Z" fill="#E0E0E0"/>
<path d="M283.268 267.16C283.268 267.294 269.473 267.392 252.456 267.392C235.44 267.392 221.645 267.294 221.645 267.16C221.645 267.027 235.44 266.929 252.456 266.929C269.473 266.929 283.268 267 283.268 267.16Z" fill="#263238"/>
<path d="M297.793 274.618C297.793 274.752 280.741 274.85 259.719 274.85C238.697 274.85 221.645 274.752 221.645 274.618C221.645 274.485 238.688 274.387 259.719 274.387C280.749 274.387 297.793 274.494 297.793 274.618Z" fill="#E0E0E0"/>
<path d="M297.793 279.086C297.793 279.21 280.741 279.317 259.719 279.317C238.697 279.317 221.645 279.21 221.645 279.086C221.645 278.961 238.688 278.854 259.719 278.854C280.749 278.854 297.793 278.961 297.793 279.086Z" fill="#E0E0E0"/>
<path d="M395.569 242.729C386.358 247.509 379.291 255.723 374.209 264.766C369.127 273.808 365.852 283.75 362.639 293.602L359.773 344.43C370.498 326.185 379.104 304.745 381.427 283.723L374.307 283.082C379.095 282.352 383.109 278.89 385.664 274.778C388.218 270.667 389.535 265.932 390.817 261.268L382.095 262.55C388.967 257.92 393.792 250.822 395.569 242.729Z" fill="#455A64"/>
<path d="M395.569 242.729C386.358 247.509 379.291 255.723 374.209 264.766C369.127 273.808 365.852 283.75 362.639 293.602L359.773 344.43C370.498 326.185 379.104 304.745 381.427 283.723L374.307 283.082C379.095 282.352 383.109 278.89 385.664 274.778C388.218 270.667 389.535 265.932 390.817 261.268L382.095 262.55C388.967 257.92 393.792 250.822 395.569 242.729Z" fill="#E33A32"/>
<g opacity="0.3">
<path d="M395.569 242.729C386.358 247.509 379.291 255.723 374.209 264.766C369.127 273.808 365.852 283.75 362.639 293.602L359.773 344.43C370.498 326.185 379.104 304.745 381.427 283.723L374.307 283.082C379.095 282.352 383.109 278.89 385.664 274.778C388.218 270.667 389.535 265.932 390.817 261.268L382.095 262.55C388.967 257.92 393.792 250.822 395.569 242.729Z" fill="black"/>
</g>
<path d="M358.189 356.347C358.189 356.347 334.915 328.499 335.182 301.905H344.59C344.59 301.905 334.373 295.195 335.182 291.43C335.992 287.665 336.259 273.434 336.259 273.434L344.857 275.588C344.857 275.588 338.413 272.366 337.603 267.258C336.793 262.149 339.481 238.52 339.481 238.52C339.481 238.52 349.956 249.538 353.178 260.814C356.4 272.09 364.864 285.253 362.381 319.634C359.898 354.015 358.189 356.347 358.189 356.347Z" fill="#E33A32"/>
<path d="M369.981 358.972C369.981 358.972 395.195 342.178 400.793 320.747L393.237 318.691C393.237 318.691 402.92 315.522 403.089 312.327C403.258 309.132 406.16 297.624 406.16 297.624L398.782 297.473C398.782 297.473 404.665 296.289 406.436 292.364C408.207 288.439 411.179 268.851 411.179 268.851C411.179 268.851 400.348 275.41 395.293 283.776C390.238 292.142 380.554 300.864 375.028 329.05C369.501 357.236 369.981 358.972 369.981 358.972Z" fill="#E33A32"/>
<path d="M345.836 262.808C345.879 262.898 345.909 262.994 345.925 263.092C345.978 263.315 346.05 263.6 346.13 263.982C346.308 264.766 346.557 265.878 346.877 267.284C347.198 268.691 347.58 270.479 347.99 272.526C348.399 274.573 348.88 276.905 349.36 279.486C350.357 284.648 351.416 290.825 352.493 297.696C353.57 304.566 354.594 312.14 355.528 320.115C356.463 328.089 357.148 335.707 357.691 342.641C358.234 349.574 358.581 355.83 358.794 361.081C358.919 363.707 358.981 366.083 359.044 368.201C359.106 370.32 359.15 372.091 359.159 373.541C359.168 374.992 359.159 376.122 359.159 376.923V377.813C359.167 377.914 359.167 378.015 359.159 378.116C359.144 378.016 359.144 377.914 359.159 377.813C359.159 377.591 359.159 377.306 359.159 376.923C359.159 376.114 359.088 374.983 359.035 373.533C358.981 372.082 358.928 370.266 358.839 368.193C358.75 366.119 358.661 363.743 358.51 361.073C358.26 355.822 357.842 349.574 357.308 342.65C356.774 335.725 356.018 328.116 355.101 320.141C354.184 312.167 353.143 304.611 352.11 297.74C351.078 290.869 350.037 284.693 349.084 279.522C348.631 276.941 348.194 274.6 347.785 272.553C347.376 270.506 347.055 268.735 346.762 267.293C346.468 265.851 346.263 264.766 346.103 263.974C346.041 263.618 345.987 263.333 345.952 263.084C345.904 262.996 345.865 262.903 345.836 262.808Z" fill="#263238"/>
<path d="M354.958 373.399C354.958 373.399 333.66 349.244 327.057 334.639L332.041 332.512C328.427 333.109 324.716 331.551 321.912 329.193C319.109 326.834 317.044 323.728 315.024 320.666L321.601 319.554C315.56 317.825 310.417 313.839 307.236 308.42C314.997 309.702 322.019 313.965 327.804 319.287C332.394 323.704 336.566 328.536 340.264 333.723C342.122 336.217 343.74 338.881 345.097 341.679C348.675 349.075 354.967 364.526 354.958 373.399Z" fill="#E33A32"/>
<path d="M401.13 282.913C401.108 282.999 401.075 283.083 401.033 283.162L400.712 283.865C400.401 284.506 399.965 285.405 399.422 286.535C398.283 288.858 396.663 292.231 394.714 296.423C390.798 304.798 385.644 316.483 380.554 329.638C375.463 342.792 371.422 354.914 368.681 363.742C367.31 368.192 366.234 371.752 365.513 374.227C365.157 375.437 364.872 376.389 364.667 377.075L364.427 377.813C364.407 377.899 364.377 377.983 364.338 378.062C364.343 377.975 364.358 377.888 364.382 377.804C364.427 377.609 364.489 377.359 364.569 377.048C364.747 376.354 365.005 375.392 365.326 374.173C365.993 371.672 367.017 368.068 368.343 363.644C371.013 354.744 375 342.632 380.082 329.46C385.164 316.288 390.397 304.611 394.393 296.272C396.387 292.097 398.051 288.742 399.244 286.482C399.831 285.36 400.285 284.47 400.623 283.812L400.988 283.126C401.077 283.019 401.122 282.904 401.13 282.913Z" fill="#263238"/>
<path d="M356.766 383.759C356.709 383.616 356.673 383.467 356.659 383.314C356.596 382.958 356.525 382.54 356.445 382.032C356.276 380.92 356 379.309 355.609 377.333C355.217 375.357 354.674 373.025 353.971 370.453C353.268 367.881 352.369 365.113 351.301 362.23C350.233 359.346 349.023 356.676 347.874 354.282C346.726 351.888 345.569 349.779 344.555 348.052C343.54 346.325 342.695 344.919 342.081 343.967L341.395 342.863C341.304 342.742 341.232 342.607 341.182 342.463C341.182 342.463 341.297 342.57 341.475 342.81L342.241 343.86C342.908 344.75 343.807 346.147 344.857 347.865C345.908 349.583 347.082 351.701 348.284 354.095C349.485 356.489 350.669 359.186 351.764 362.105C352.858 365.024 353.722 367.81 354.434 370.391C355.146 372.972 355.626 375.331 355.973 377.324C356.321 379.318 356.552 380.938 356.65 382.059C356.703 382.575 356.739 383.002 356.774 383.358C356.791 383.492 356.788 383.627 356.766 383.759Z" fill="#263238"/>
<path d="M384.871 378.071H338.262V387.577H384.871V378.071Z" fill="#455A64"/>
<path d="M342.703 387.577L347.741 419.555H375.9L380.599 387.577H342.703Z" fill="#455A64"/>
<path d="M382.006 387.576C382.006 387.719 373.186 387.826 362.319 387.826C351.452 387.826 342.623 387.719 342.623 387.576C342.623 387.434 351.443 387.327 362.319 387.327C373.195 387.327 382.006 387.443 382.006 387.576Z" fill="#263238"/>
<path d="M108.12 151.577L109.09 140.078C103.498 136.361 99.4981 130.687 97.8774 124.171C96.2566 117.655 97.1318 110.768 100.331 104.865C103.53 98.9611 108.822 94.4677 115.166 92.2677C121.51 90.0678 128.447 90.3204 134.615 92.9759C140.782 95.6314 145.733 100.498 148.494 106.618C151.255 112.739 151.628 119.671 149.537 126.052C147.447 132.433 143.045 137.801 137.198 141.102C131.35 144.402 124.479 145.396 117.936 143.887L108.12 151.577Z" fill="white"/>
<path fill-rule="evenodd" clip-rule="evenodd" d="M136.701 107.418C137.981 107.418 139.209 106.91 140.115 106.004C141.02 105.099 141.529 103.871 141.529 102.591C141.529 101.31 141.02 100.082 140.115 99.1767C139.209 98.2713 137.981 97.7627 136.701 97.7627C135.42 97.7627 134.192 98.2713 133.287 99.1767C132.382 100.082 131.873 101.31 131.873 102.591C131.873 103.871 132.382 105.099 133.287 106.004C134.192 106.91 135.42 107.418 136.701 107.418ZM137.304 100.78C137.304 100.62 137.241 100.467 137.128 100.353C137.014 100.24 136.861 100.177 136.701 100.177C136.541 100.177 136.387 100.24 136.274 100.353C136.161 100.467 136.097 100.62 136.097 100.78V101.987H134.89C134.73 101.987 134.577 102.051 134.464 102.164C134.351 102.277 134.287 102.43 134.287 102.591C134.287 102.751 134.351 102.904 134.464 103.017C134.577 103.13 134.73 103.194 134.89 103.194H136.097V104.401C136.097 104.561 136.161 104.715 136.274 104.828C136.387 104.941 136.541 105.004 136.701 105.004C136.861 105.004 137.014 104.941 137.128 104.828C137.241 104.715 137.304 104.561 137.304 104.401V103.194H138.511C138.671 103.194 138.825 103.13 138.938 103.017C139.051 102.904 139.115 102.751 139.115 102.591C139.115 102.43 139.051 102.277 138.938 102.164C138.825 102.051 138.671 101.987 138.511 101.987H137.304V100.78Z" fill="#E64B41"/>
<path d="M124.107 106.28C117.172 106.28 111.529 111.923 111.529 118.858C111.529 125.794 117.172 131.436 124.107 131.436C131.043 131.436 136.685 125.794 136.685 118.858C136.685 111.923 131.043 106.28 124.107 106.28ZM124.107 126.598C122.843 126.598 121.838 126.063 121.704 124.931C121.7 124.897 121.704 124.863 121.714 124.83C121.725 124.798 121.742 124.768 121.765 124.743C121.788 124.718 121.815 124.698 121.847 124.684C121.878 124.67 121.911 124.663 121.945 124.663H126.266C126.3 124.663 126.334 124.67 126.366 124.684C126.397 124.698 126.425 124.719 126.448 124.744C126.471 124.77 126.488 124.8 126.499 124.833C126.509 124.866 126.512 124.9 126.508 124.934C126.354 126.045 125.358 126.598 124.107 126.598ZM130.033 123.696H118.181C117.465 123.696 117.093 122.789 117.504 122.305C118.492 121.136 119.19 120.644 119.19 117.419C119.19 114.464 120.746 113.415 122.032 112.904C122.12 112.867 122.2 112.812 122.266 112.742C122.332 112.673 122.383 112.59 122.415 112.5C122.638 111.759 123.269 111.118 124.107 111.118C124.945 111.118 125.575 111.759 125.8 112.5C125.833 112.591 125.883 112.673 125.949 112.743C126.015 112.812 126.095 112.867 126.184 112.904C127.466 113.415 129.026 114.465 129.026 117.42C129.026 120.645 129.723 121.136 130.711 122.306C131.118 122.789 130.745 123.696 130.033 123.696Z" fill="#E64B41"/>
<path d="M108.242 151.38L118.13 143.762L118.228 143.681L118.112 143.628L118.05 143.779C120.151 144.266 122.301 144.505 124.458 144.491C127.025 144.46 129.575 144.064 132.032 143.317C133.393 142.906 134.715 142.376 135.983 141.732C136.624 141.385 137.301 141.056 137.95 140.691L139.873 139.427C145.436 135.381 149.254 129.371 150.553 122.615C151.325 118.861 151.276 114.984 150.41 111.25C149.436 107.341 147.613 103.694 145.07 100.57C142.439 97.2806 139.062 94.6659 135.218 92.9425L133.714 92.3106C133.215 92.0881 132.681 91.9635 132.174 91.7944C131.667 91.6253 131.151 91.4384 130.626 91.3405L129.05 91.0023C128.529 90.8819 128 90.8015 127.466 90.762L125.882 90.5751H124.298C123.773 90.544 123.247 90.544 122.722 90.5751C118.619 90.8079 114.62 91.9574 111.019 93.9393C107.607 95.8021 104.647 98.3942 102.35 101.531C98.2396 107.178 96.4467 114.184 97.3396 121.111C97.7726 124.033 98.6489 126.872 99.9384 129.53C101.078 131.827 102.543 133.947 104.29 135.823C105.744 137.385 107.378 138.768 109.159 139.943V139.872C108.589 147.224 108.269 150.819 108.269 151.38C108.322 150.819 108.651 147.233 109.319 139.89V139.846C107.56 138.663 105.944 137.28 104.504 135.725C102.782 133.849 101.338 131.736 100.214 129.45C98.9492 126.812 98.091 123.997 97.6689 121.102C96.8008 114.243 98.587 107.312 102.662 101.727C104.941 98.6329 107.869 96.0751 111.241 94.233C114.802 92.2793 118.756 91.1481 122.811 90.9222C123.33 90.891 123.85 90.891 124.369 90.9222H125.935L127.502 91.1091C128.026 91.15 128.547 91.2303 129.059 91.3494L130.617 91.6787C131.142 91.7766 131.631 91.9813 132.147 92.1237C132.664 92.2661 133.18 92.4174 133.669 92.6399L135.147 93.2629C138.944 94.9646 142.281 97.5455 144.883 100.792C147.385 103.892 149.172 107.505 150.117 111.374C150.994 115.044 151.076 118.858 150.357 122.562C149.054 129.256 145.255 135.206 139.73 139.205L137.835 140.46C137.185 140.833 136.517 141.154 135.885 141.501C134.628 142.141 133.318 142.671 131.969 143.085C129.538 143.838 127.012 144.24 124.467 144.278C122.324 144.305 120.185 144.081 118.094 143.61L118.041 143.762V143.619C111.802 148.568 108.705 151.015 108.242 151.38Z" fill="#263238" stroke="#263238" stroke-width="0.5"/>
<path d="M152.86 76.1005L153.688 91.7289C153.723 92.3455 153.982 92.9279 154.416 93.367C154.851 93.8062 155.43 94.0718 156.046 94.1141C156.69 94.1552 157.325 93.9486 157.822 93.5366C158.318 93.1246 158.638 92.5384 158.716 91.898L160.612 76.2162C160.645 75.9364 160.618 75.6528 160.533 75.3842C160.448 75.1156 160.307 74.868 160.119 74.6578C159.932 74.4475 159.702 74.2794 159.445 74.1645C159.188 74.0496 158.909 73.9906 158.627 73.9912H154.818C154.548 73.993 154.282 74.05 154.035 74.1586C153.789 74.2672 153.567 74.4252 153.383 74.6228C153.2 74.8204 153.059 75.0534 152.969 75.3075C152.879 75.5617 152.842 75.8315 152.86 76.1005Z" fill="#E33A32"/>
<path d="M160.131 101.973C159.894 102.688 159.449 103.316 158.855 103.779C158.26 104.242 157.541 104.517 156.79 104.571C156.038 104.626 155.287 104.456 154.633 104.083C153.978 103.71 153.448 103.152 153.11 102.478C152.773 101.804 152.643 101.046 152.737 100.298C152.83 99.5505 153.144 98.8475 153.637 98.2779C154.13 97.7084 154.782 97.298 155.508 97.0987C156.235 96.8993 157.004 96.9199 157.719 97.1579C158.677 97.4768 159.47 98.1632 159.922 99.066C160.374 99.9689 160.45 101.014 160.131 101.973Z" fill="#E33A32"/>
</svg>
