<svg xmlns="http://www.w3.org/2000/svg" viewBox="0 0 1068.12 117.66"><defs><style>.cls-1{isolation:isolate;}.cls-2{mix-blend-mode:multiply;}.cls-3{fill:#1d1d1b;}</style></defs><title>Fichier 1</title><g class="cls-1"><g id="Calque_2" data-name="Calque 2"><g id="Objects"><g class="cls-2"><path class="cls-3" d="M989.79,52.13a47.31,47.31,0,0,0-16.22,3.95,30.35,30.35,0,0,0-12.85,10.4A29.24,29.24,0,0,0,956,82.27a35.22,35.22,0,0,0,3.14,16.24,28.43,28.43,0,0,0,11.11,12.06,42,42,0,0,0,15.65,5.4,28.69,28.69,0,0,0,4.12.32,24.61,24.61,0,0,0,4.1-.45,31.64,31.64,0,0,0,7.83-2.67,42.47,42.47,0,0,0,7.06-4.36,58.11,58.11,0,0,0,6.18-5.56.61.61,0,0,1,.35-.15l38.38-.13-.49.23a74.12,74.12,0,0,0,5-7.49,75.58,75.58,0,0,0,4.09-8,57.69,57.69,0,0,0,3-8.46,39.32,39.32,0,0,0,1.3-8.8l.21.51-9.18-9.14.49.21c-3.84-.15-7.65-.45-11.46-.83s-7.61-.89-11.38-1.57a76.77,76.77,0,0,1-11.21-2.77,30.75,30.75,0,0,1-5.37-2.36,11.15,11.15,0,0,1-4.46-4.15.8.8,0,0,1,.32-1.09h0a34.16,34.16,0,0,1,4.7-2,34.54,34.54,0,0,1,4.9-1.26,25.61,25.61,0,0,1,10.17.06l-.62,1.57a119.35,119.35,0,0,0-17.61-7.87,117.09,117.09,0,0,0-18.63-5,89.46,89.46,0,0,0-19.17-1.47,68.48,68.48,0,0,0-18.85,3.27,1,1,0,0,1-1-.24l0,0a84.29,84.29,0,0,0-12.36-9.59,127.41,127.41,0,0,0-13.71-7.76A154,154,0,0,0,902.86,8.1c-5.1-1.31-10.26-2.41-15.46-3.24-2.59-.47-5.21-.77-7.82-1.14s-5.23-.6-7.86-.79a245.3,245.3,0,0,0-31.62-.36c-10.55.53-21.07,1.57-31.53,3S787.71,9,777.4,11.33s-20.55,5-30.67,8-20.17,6.41-29.92,10.33h0a1.23,1.23,0,0,1-.37.08l-40.56,2.65L677,31.19v6.54l-1.61-1.18c3.67-1.13,7.35-2.11,11.1-2.93,1.88-.4,3.77-.76,5.7-1a19.4,19.4,0,0,1,6.09,0,1.2,1.2,0,0,1,1,1.41,1.08,1.08,0,0,1-.22.5h0a34.85,34.85,0,0,1-4.65,5,34.23,34.23,0,0,1-5.48,4,25.84,25.84,0,0,1-6.32,2.64,21.46,21.46,0,0,1-6.87.68l1.3-1.26a96.15,96.15,0,0,0,2.46,16,88.4,88.4,0,0,0,5.13,15.35A59.63,59.63,0,0,0,693,90.6a42.41,42.41,0,0,0,12.18,10.22l-1.59,1.59a46,46,0,0,1-4.4-13.81,36.37,36.37,0,0,1,.63-14.5,31.15,31.15,0,0,1,6.89-12.81L707.91,60c.42-.44.88-.84,1.31-1.26A33.13,33.13,0,0,1,712,56.33a34,34,0,0,1,6.28-3.73,32.69,32.69,0,0,1,14.24-2.87A36.44,36.44,0,0,1,746.66,53a34.23,34.23,0,0,1,11.71,8.56,25.83,25.83,0,0,1,4,6.17,21.43,21.43,0,0,1,1.25,3.5,25.11,25.11,0,0,1,.63,3.63,54.25,54.25,0,0,1-.25,14.4A41.48,41.48,0,0,1,759.55,103a27.81,27.81,0,0,1-9.94,10.6,29.85,29.85,0,0,1-13.93,4.08L679,117.4l-226.34-.33L0,116.7,226.34,116l226.35-.48L679,115.4l56.52.16a27.7,27.7,0,0,0,12.94-3.8,25.6,25.6,0,0,0,9.17-9.81,39.24,39.24,0,0,0,4.22-13,51.92,51.92,0,0,0,.22-13.81A20.89,20.89,0,0,0,756.71,63a32.21,32.21,0,0,0-11-8,34.42,34.42,0,0,0-13.26-3,30.36,30.36,0,0,0-13.26,2.69,31.19,31.19,0,0,0-5.85,3.49,27.46,27.46,0,0,0-2.61,2.21c-.41.39-.84.77-1.23,1.18l-1.17,1.26A28.79,28.79,0,0,0,702,74.68c-2.28,8.81-.43,18.51,3.59,26.6l0,0a1.17,1.17,0,0,1-.52,1.57,1.2,1.2,0,0,1-1.08,0,44.66,44.66,0,0,1-12.87-10.76,61.79,61.79,0,0,1-8.72-14.26,89.87,89.87,0,0,1-5.3-15.76,98.46,98.46,0,0,1-2.55-16.45,1.2,1.2,0,0,1,1.11-1.27h.18a19,19,0,0,0,6.09-.61,22.88,22.88,0,0,0,5.71-2.41,30.54,30.54,0,0,0,5.08-3.7A33.44,33.44,0,0,0,697,33.09l.72,1.92a17.38,17.38,0,0,0-5.23.06c-1.83.23-3.66.58-5.49,1-3.65.8-7.3,1.79-10.87,2.88h0a1.24,1.24,0,0,1-1.55-.82,1.19,1.19,0,0,1-.06-.37V31.19A1.23,1.23,0,0,1,675.7,30l40.57-2.59-.39.09c9.92-4,20-7.31,30.17-10.37s20.47-5.73,30.84-8,20.84-4.21,31.36-5.72S829.37.84,840,.33A244.51,244.51,0,0,1,871.9.74c2.66.19,5.3.52,8,.8s5.28.69,7.91,1.16c5.26.85,10.48,2,15.64,3.31a155.9,155.9,0,0,1,30,11,127.45,127.45,0,0,1,13.92,7.91A85.71,85.71,0,0,1,960,34.85l-1-.26a70.58,70.58,0,0,1,19.42-3.29,91.11,91.11,0,0,1,19.58,1.58,124.93,124.93,0,0,1,36.77,13.28.85.85,0,0,1,.33,1.16.87.87,0,0,1-.94.42h0a24.05,24.05,0,0,0-9.49-.09,34.51,34.51,0,0,0-4.68,1.19,32.18,32.18,0,0,0-4.43,1.83l.33-1.09a9.74,9.74,0,0,0,3.82,3.52,28.62,28.62,0,0,0,5.08,2.25,75.12,75.12,0,0,0,11,2.76c3.73.68,7.49,1.19,11.27,1.59s7.57.71,11.35.87h0a.73.73,0,0,1,.48.21l9.14,9.18h0a.72.72,0,0,1,.2.51,40.47,40.47,0,0,1-1.39,9.11,58,58,0,0,1-3.06,8.65,79.12,79.12,0,0,1-4.19,8.14,78.31,78.31,0,0,1-5.09,7.62.62.62,0,0,1-.48.23h0l-38.38-.13.35-.15a61.3,61.3,0,0,1-6.33,5.61,43.84,43.84,0,0,1-7.24,4.4,32.68,32.68,0,0,1-8,2.67,25.09,25.09,0,0,1-4.24.44,29.82,29.82,0,0,1-4.24-.36,42.26,42.26,0,0,1-15.85-5.61,29,29,0,0,1-11.24-12.37,35.67,35.67,0,0,1-3.07-16.45,29.53,29.53,0,0,1,4.91-15.92,30.57,30.57,0,0,1,13-10.37A47.38,47.38,0,0,1,989.79,52.13Z"/><path class="cls-3" d="M760.47,27.41c7.77-2.57,15.63-4.86,23.53-7s15.85-4.12,23.86-5.86c16-3.42,32.23-6.19,48.68-7,4.11-.18,8.23-.24,12.35,0,2.07,0,4.13.28,6.19.44s4.12.48,6.14.89a146.28,146.28,0,0,1,23.94,6.06,161.77,161.77,0,0,1,22.71,9.72c3.67,1.88,7.23,4,10.72,6.16a107.75,107.75,0,0,1,10.15,7.17l0,0a1.11,1.11,0,0,1,.17,1.57l0,.05a3.31,3.31,0,0,1-.7.58l-.3.19-.28.14c-.36.16-.74.37-1.1.5-.73.23-1.46.54-2.18.69l-2.18.52-2.18.37c-1.45.27-2.9.4-4.35.55l-2.18.23-2.17.13c-1.45.08-2.9.18-4.35.24l-4.35.08c-2.9.1-5.79,0-8.68,0q-17.34-.37-34.59-2L870.7,41l-8.6-1-8.6-.95L844.92,38c-11.46-1.35-22.85-3.16-34.26-4.8h0a.3.3,0,0,1-.25-.34.5.5,0,0,1,.05-.13l11.69-16.24L811,33.05l-.21-.47c11.45,1.38,22.89,2.79,34.34,4l8.59.95,8.6.82,8.6.82,8.61.66c11.48.88,23,1.55,34.46,1.72,2.87,0,5.75.09,8.61,0l4.3-.1c1.43-.06,2.85-.18,4.28-.26l2.14-.13,2.12-.24c1.42-.16,2.84-.29,4.22-.56l2.08-.36,2-.49c.68-.15,1.28-.43,1.93-.63.32-.11.57-.26.86-.39l.21-.1.15-.1c.1-.06.25-.19.16-.08l.17,1.66a105.74,105.74,0,0,0-9.92-6.93c-3.45-2.14-7-4.19-10.55-6.07a160.07,160.07,0,0,0-22.33-9.69A145,145,0,0,0,880.85,11c-2-.41-4-.63-6-.9s-4-.4-6.06-.45c-4-.24-8.11-.15-12.17-.07-16.28.58-32.48,3.08-48.5,6.25S776.19,22.89,760.47,27.41Z"/><path class="cls-3" d="M949.21,38.85c-.06,4.86-.29,9.67-.63,14.5s-.82,9.63-1.52,14.42A97.53,97.53,0,0,1,944,82a37.84,37.84,0,0,1-2.77,6.87A16.45,16.45,0,0,1,939.09,92l-.67.72c-.24.22-.52.42-.78.63a8.29,8.29,0,0,1-1.76,1,.36.36,0,0,1-.2.06h-.07Q915,96,894.32,95.77c-6.89-.07-13.77-.3-20.65-.76s-13.73-1.15-20.54-2.29c-1.69-.31-3.4-.57-5.08-1l-2.53-.54L843,90.6c-1.68-.38-3.32-.94-5-1.43-.82-.27-1.63-.59-2.44-.88l-1.22-.44-1.19-.53a27.87,27.87,0,0,1-8.76-5.54l-7.21-7.38C814.79,72,812.34,69.55,810,67s-4.63-5.19-5.93-8.43a13,13,0,0,1-.93-5.07,20.45,20.45,0,0,1,.78-5.1,57.76,57.76,0,0,1,3.81-9.58,58.31,58.31,0,0,0-3.7,9.61,20.28,20.28,0,0,0-.72,5.07,12.76,12.76,0,0,0,1,5c1.31,3.17,3.63,5.78,6,8.27s4.85,4.87,7.3,7.29l7.28,7.29a27.19,27.19,0,0,0,8.63,5.31l1.18.51,1.21.43c.8.28,1.6.58,2.42.84,1.64.46,3.27,1,4.94,1.36l2.5.6,2.52.5c1.67.36,3.37.6,5.06.89,6.77,1.06,13.62,1.66,20.47,2s13.71.53,20.58.53c13.72,0,27.47-.61,41.13-1.75l-.27.06A10.17,10.17,0,0,0,939.58,88a35.24,35.24,0,0,0,2.54-6.53,94.77,94.77,0,0,0,2.79-14c.64-4.73,1.06-9.5,1.35-14.28s.46-9.58.47-14.34v0a1.24,1.24,0,1,1,2.48,0Z"/></g></g></g></g></svg>