<?xml version="1.0" encoding="utf-8"?>
<!-- Generator: Adobe Illustrator 25.2.3, SVG Export Plug-In . SVG Version: 6.00 Build 0)  -->
<svg version="1.1" id="Calque_1" xmlns="http://www.w3.org/2000/svg" xmlns:xlink="http://www.w3.org/1999/xlink" x="0px" y="0px"
	 viewBox="0 0 422.9 292.9" style="enable-background:new 0 0 422.9 292.9;" xml:space="preserve">
<style type="text/css">
	.st0{fill:#0B487F;}
	.st1{fill:#00DBD5;}
	.st2{fill:#FBAC15;}
	.st3{fill:#FB4E8B;}
	.st4{fill:#93D500;}
</style>
<g>
	<g>
		<path class="st0" d="M422.8,121.4l0.1,98.9c0.1,19-13.5,33.2-32.5,33.3c-18.6,0.1-32.8-13.8-33-32.9l-0.1-98.9
			c-0.1-19,13.4-33.2,32.5-33.3C408.5,88.4,422.7,102.4,422.8,121.4"/>
		<path class="st1" d="M422.7,47.9c0.1,18.4-14.8,33.5-33.2,33.6C371,81.6,356,66.7,355.9,48.3c-0.1-18.4,14.8-33.5,33.2-33.6
			C407.5,14.6,422.6,29.5,422.7,47.9"/>
		<path class="st0" d="M66.9,118.9l0.1,98.9c0.1,19-13.5,33.2-32.5,33.3c-18.6,0.1-32.8-13.8-33-32.9l-0.1-98.9
			C1.3,100.4,14.9,86.2,34,86C52.6,85.9,66.8,99.9,66.9,118.9"/>
		<path class="st1" d="M66.8,45.4C66.9,63.8,52,78.9,33.6,79C15.1,79.1,0.1,64.2,0,45.7c-0.1-18.4,14.8-33.5,33.2-33.6
			C51.7,12.1,66.7,26.9,66.8,45.4"/>
		<path class="st2" d="M99.6,180.4c30.1-21.9,71.8-41.5,110.5-41.9c14.1-0.1,27.7,0.5,40.9,3.5l54.4-48.5l6.9-6.1
			c10-9,15.9-18.8,17.5-29.5c1.6-10.7-1.3-20.3-8.7-28.6c-7.2-8.1-16.1-11.9-26.6-11.5c-10.6,0.4-21.1,5.1-31.7,14.1l-6.8,6.1
			L114.8,163.7c0,0-13.8,13-14.4,15L99.6,180.4z"/>
		<path class="st3" d="M328.3,67.2L328.3,67.2c2.2-4.5,3.5-9.6,3.7-15c0.5-20-15.3-36.7-35.3-37.2c-5.6-0.1-11,1-15.8,3.2h0
			c-2.2,1-4.3,2.2-6.2,3.6C201,62.1,146.9,13.9,129.7,0L76.8,53.8c3.6,5.6,49.6,55.9,118.7,61.6c79.2,4.8,114-24.2,126.6-39.4
			c2.4-2.6,4.4-5.5,6-8.7C328.2,67.2,328.3,67.2,328.3,67.2"/>
		<path class="st4" d="M172.9,111.9c7.2,1.7,14.8,2.9,22.7,3.5c58.8,3.6,93.3-11.4,112.5-25.6l12.7-11.4c0.9-0.9,1.7-1.9,2.4-2.7
			c2.4-2.6,4.5-5.5,6.1-8.8c0.1-0.1,0.1-0.2,0.1-0.2l0,0c2.2-4.6,3.6-9.7,3.7-15.1c0.5-20.2-15.4-37-35.6-37.5
			c-5.7-0.1-11.1,1-15.9,3.2h0c-2.2,1-4.3,2.2-6.2,3.6L172.9,111.9z"/>
		<path class="st0" d="M95.7,186.7L95.7,186.7c-2.2,4.5-3.5,9.6-3.7,15c-0.5,20,15.3,36.7,35.3,37.2c5.6,0.1,11-1,15.8-3.2h0
			c2.2-1,4.3-2.2,6.2-3.6c73.6-40.4,127.7,7.8,144.8,21.7l52.9-53.8c-3.6-5.6-49.6-55.9-118.7-61.6c-79.2-4.8-114,24.2-126.6,39.4
			c-2.4,2.6-4.4,5.5-6,8.7C95.7,186.6,95.7,186.7,95.7,186.7"/>
		<path class="st1" d="M251,142c-7.2-1.7-14.8-2.9-22.7-3.5c-58.8-3.6-93.3,11.4-112.5,25.6l-12.7,11.4c-0.9,0.9-1.7,1.9-2.4,2.7
			c-2.4,2.6-4.5,5.5-6.1,8.8c-0.1,0.1-0.1,0.2-0.1,0.2l0,0c-2.2,4.6-3.6,9.7-3.7,15.1c-0.5,20.2,15.4,37,35.6,37.5
			c5.7,0.1,11.1-1,15.9-3.2v0c2.2-1,4.3-2.2,6.2-3.6L251,142z"/>
		<path class="st0" d="M6.3,292.6c-0.9,0-1.5-0.2-2-0.6c-0.5-0.4-0.7-1-0.7-1.7c0-0.6,0.2-1.1,0.6-1.6l8.9-12.3H6.4H6
			c-0.7,0-1.3-0.2-1.8-0.6c-0.4-0.4-0.6-0.9-0.6-1.6c0-0.6,0.2-1.2,0.7-1.6c0.4-0.4,1-0.6,1.7-0.6h0.5h10.1c0.5,0,0.8,0,1.1,0
			c0.3,0,0.5,0.1,0.7,0.2c0.4,0.2,0.7,0.5,1,0.9c0.3,0.4,0.4,0.9,0.4,1.3c0,0.5-0.2,1.1-0.7,1.7l-8.8,12h6.9h0.5
			c0.7,0,1.3,0.2,1.7,0.6c0.4,0.4,0.6,0.9,0.6,1.6c0,0.7-0.2,1.2-0.6,1.6c-0.4,0.4-1,0.6-1.7,0.6h-0.5H6.3z"/>
		<path class="st0" d="M33.7,289.7v-14.6v-0.5c0-0.8,0.2-1.4,0.7-1.9c0.4-0.5,1-0.7,1.7-0.7c0.7,0,1.3,0.2,1.7,0.7
			c0.4,0.5,0.6,1.1,0.6,1.9v0.5v14.6v0.5c0,0.8-0.2,1.4-0.6,1.9c-0.4,0.5-1,0.7-1.7,0.7c-0.7,0-1.3-0.2-1.7-0.7
			c-0.4-0.5-0.6-1.1-0.6-1.9V289.7z"/>
		<path class="st0" d="M57.6,289.7v-13.2h-3.4h-0.5c-0.7,0-1.3-0.2-1.8-0.6c-0.4-0.4-0.6-0.9-0.6-1.6c0-0.6,0.2-1.2,0.7-1.6
			c0.4-0.4,1-0.6,1.7-0.6h0.5h11.4h0.5c0.7,0,1.3,0.2,1.7,0.6c0.4,0.4,0.7,0.9,0.7,1.6c0,0.7-0.2,1.2-0.7,1.6
			c-0.4,0.4-1,0.6-1.7,0.6h-0.5h-3.3v13.2v0.5c0,0.8-0.2,1.4-0.7,1.9c-0.4,0.5-1,0.7-1.7,0.7c-0.7,0-1.3-0.2-1.7-0.7
			c-0.4-0.5-0.6-1.1-0.6-1.9V289.7z"/>
		<path class="st0" d="M90.7,271.8c1.4,0,2.7,0.3,4,0.8c1.3,0.6,2.5,1.3,3.5,2.3c1,1,1.8,2.1,2.3,3.4c0.5,1.3,0.8,2.6,0.8,4.1
			c0,1.5-0.3,2.8-0.8,4.1c-0.6,1.3-1.3,2.4-2.3,3.3c-1,1-2.1,1.7-3.4,2.3c-1.3,0.6-2.6,0.8-4.1,0.8c-1.5,0-2.9-0.3-4.1-0.8
			c-1.3-0.6-2.4-1.3-3.4-2.3c-1-1-1.7-2.1-2.3-3.4c-0.6-1.3-0.8-2.6-0.8-4.1s0.3-2.8,0.8-4.1c0.6-1.3,1.3-2.4,2.3-3.4
			c1-1,2.1-1.7,3.3-2.3C87.9,272.1,89.3,271.8,90.7,271.8 M90.8,276.5c-0.8,0-1.6,0.2-2.3,0.5c-0.7,0.3-1.4,0.7-1.9,1.3
			c-0.5,0.5-1,1.2-1.3,1.9c-0.3,0.7-0.5,1.5-0.5,2.3c0,0.8,0.2,1.6,0.5,2.3c0.3,0.7,0.7,1.3,1.3,1.9c0.5,0.5,1.2,0.9,1.9,1.3
			c0.7,0.3,1.5,0.5,2.3,0.5c0.8,0,1.6-0.2,2.3-0.5c0.7-0.3,1.3-0.7,1.9-1.3c0.5-0.5,1-1.1,1.3-1.9c0.3-0.7,0.5-1.5,0.5-2.3
			c0-0.8-0.2-1.6-0.5-2.3c-0.3-0.7-0.7-1.3-1.3-1.9c-0.5-0.5-1.2-1-1.9-1.3C92.4,276.6,91.6,276.5,90.8,276.5"/>
		<path class="st0" d="M114.7,275.1v-0.5c0-0.8,0.2-1.4,0.6-1.9c0.4-0.5,1-0.7,1.7-0.7c0.7,0,1.3,0.2,1.7,0.7
			c0.4,0.5,0.6,1.1,0.6,1.9v0.5v9.6c0,0.5,0.1,1,0.3,1.5c0.2,0.5,0.4,0.8,0.8,1.2c0.3,0.3,0.7,0.6,1.1,0.8c0.4,0.2,0.9,0.3,1.4,0.3
			c0.6,0,1.2-0.1,1.7-0.4c0.5-0.3,0.9-0.6,1.3-1.1c0.2-0.3,0.4-0.7,0.5-1c0.1-0.3,0.2-0.8,0.2-1.3v-9.4v-0.5c0-0.8,0.2-1.4,0.7-1.9
			c0.4-0.5,1-0.7,1.7-0.7c0.7,0,1.3,0.2,1.7,0.7c0.4,0.5,0.6,1.1,0.6,1.9v0.5v9.4c0,1.2-0.2,2.3-0.6,3.3c-0.4,1-1,1.9-1.7,2.7
			c-0.7,0.8-1.6,1.4-2.6,1.8c-1,0.4-2.1,0.6-3.3,0.6c-1.2,0-2.3-0.2-3.3-0.6c-1-0.4-1.9-1-2.7-1.8c-0.8-0.7-1.4-1.6-1.8-2.6
			c-0.4-1-0.6-2.1-0.6-3.2V275.1z"/>
		<path class="st0" d="M150.6,280.7v8.9v0.5c0,0.8-0.2,1.4-0.6,1.9c-0.4,0.5-1,0.7-1.7,0.7c-0.7,0-1.3-0.2-1.7-0.7
			c-0.4-0.5-0.6-1.1-0.6-1.9v-0.5v-15c0-0.5,0-0.8,0.1-1c0.1-0.2,0.2-0.5,0.3-0.7c0.5-0.7,1.1-1,1.8-1c0.4,0,0.8,0.1,1.1,0.3
			c0.3,0.2,0.7,0.5,1.1,1.1l8.6,10.8v-9.1v-0.5c0-0.8,0.2-1.4,0.7-1.9c0.4-0.5,1-0.7,1.7-0.7c0.7,0,1.3,0.2,1.7,0.7
			c0.4,0.5,0.6,1.1,0.6,1.9v0.5v14.8c0,0.6,0,1-0.1,1.2c0,0.3-0.1,0.5-0.3,0.7c-0.2,0.3-0.5,0.6-0.9,0.8c-0.4,0.2-0.8,0.3-1.2,0.3
			c-0.4,0-0.8-0.1-1.1-0.3c-0.3-0.2-0.7-0.6-1.1-1.2L150.6,280.7z"/>
		<path class="st0" d="M191.1,290.7l-0.7-1.5h-8.2l-0.6,1.5l-0.2,0.5c-0.5,1.1-1.3,1.7-2.3,1.7c-0.6,0-1.2-0.2-1.7-0.7
			c-0.5-0.4-0.7-1-0.7-1.6c0-0.4,0.1-0.8,0.3-1.3l0.2-0.5l6.8-15.1c0.4-0.8,1.1-1.4,1.9-1.5c0.6-0.1,1.2,0.1,1.7,0.4
			c0.4,0.2,0.7,0.6,0.9,1.1l7,15.2c0.2,0.5,0.4,0.9,0.4,1.1c0.1,0.2,0.1,0.5,0.1,0.8c0,0.6-0.2,1.1-0.7,1.6c-0.5,0.5-1,0.7-1.7,0.7
			c-1,0-1.8-0.5-2.3-1.6L191.1,290.7z M188.8,285l-2.5-5.9l-2.4,5.9H188.8z"/>
		<path class="st0" d="M227.7,289.7v-14.3v-0.6c0-1.8,0.9-2.7,2.7-2.7h0.6h3.5c0.4,0,0.9,0,1.4,0.1c0.5,0.1,1,0.2,1.5,0.3
			c1.8,0.4,3.3,1.5,4.3,3.1c0.4,0.6,0.7,1.3,0.9,2c0.2,0.7,0.3,1.4,0.3,2.1c0,0.7-0.1,1.4-0.3,2c-0.2,0.7-0.5,1.3-0.8,1.9
			c-0.4,0.6-0.8,1.1-1.3,1.6c-0.5,0.5-1.1,0.9-1.7,1.2c-0.6,0.3-1.1,0.5-1.7,0.6c-0.6,0.1-1.3,0.2-2.2,0.2h-2.3v2.6v0.5
			c0,0.8-0.2,1.4-0.7,1.9c-0.4,0.5-1,0.7-1.7,0.7c-0.7,0-1.3-0.2-1.7-0.7c-0.4-0.5-0.6-1.1-0.6-1.9V289.7z M234.3,282.8
			c0.7,0,1.2,0,1.5-0.1c0.3-0.1,0.6-0.2,0.9-0.3c0.5-0.3,0.8-0.6,1.1-1.1c0.3-0.5,0.4-1,0.4-1.5c0-0.6-0.2-1.1-0.5-1.6
			c-0.3-0.5-0.7-0.9-1.3-1.2c-0.5-0.2-1.2-0.3-2.2-0.3h-1.8v6.1H234.3z"/>
		<path class="st0" d="M267.4,290.7l-0.7-1.5h-8.2l-0.6,1.5l-0.2,0.5c-0.5,1.1-1.3,1.7-2.3,1.7c-0.6,0-1.2-0.2-1.7-0.7
			c-0.5-0.4-0.7-1-0.7-1.6c0-0.4,0.1-0.8,0.3-1.3l0.2-0.5l6.8-15.1c0.4-0.8,1.1-1.4,1.9-1.5c0.6-0.1,1.2,0.1,1.7,0.4
			c0.4,0.2,0.7,0.6,0.9,1.1l7,15.2c0.2,0.5,0.4,0.9,0.4,1.1c0.1,0.2,0.1,0.5,0.1,0.8c0,0.6-0.2,1.1-0.7,1.6c-0.5,0.5-1,0.7-1.7,0.7
			c-1,0-1.8-0.5-2.3-1.6L267.4,290.7z M265.1,285l-2.5-5.9l-2.4,5.9H265.1z"/>
		<path class="st0" d="M286.8,289.7v-5.8l-5.3-7.6c-0.3-0.5-0.6-0.9-0.7-1.2c-0.1-0.3-0.2-0.6-0.2-0.9c0-0.6,0.2-1.2,0.7-1.6
			s1-0.7,1.7-0.7c0.8,0,1.5,0.4,2.1,1.2l0.3,0.4l3.7,5.4l3.8-5.4l0.3-0.4c0.3-0.4,0.6-0.7,1-0.9c0.3-0.2,0.7-0.3,1.1-0.3
			c0.6,0,1.2,0.2,1.7,0.7c0.5,0.5,0.7,1,0.7,1.6c0,0.5-0.2,1-0.6,1.6l-0.3,0.4l-5.3,7.6v5.8v0.5c0,0.8-0.2,1.4-0.7,1.9
			c-0.4,0.5-1,0.7-1.7,0.7c-0.7,0-1.3-0.2-1.7-0.7c-0.4-0.5-0.6-1.1-0.6-1.9V289.7z"/>
		<path class="st0" d="M316.5,282l-1.9,8.2l-0.1,0.5c-0.3,1.4-1.1,2.1-2.4,2.1c-0.7,0-1.2-0.2-1.6-0.7c-0.4-0.4-0.7-1-0.7-1.6
			c0-0.1,0-0.3,0-0.4c0-0.2,0-0.3,0.1-0.4l0.1-0.5l3.6-15.2c0.1-0.6,0.4-1.1,0.8-1.4c0.4-0.3,0.9-0.5,1.4-0.5c1,0,1.8,0.6,2.2,1.8
			l3.3,9.1l3.2-8.9c0.3-0.7,0.6-1.2,0.9-1.6c0.4-0.3,0.8-0.5,1.3-0.5c0.6,0,1.1,0.2,1.5,0.5c0.4,0.4,0.7,0.9,0.8,1.5l3.7,15.1
			l0.1,0.5c0.1,0.3,0.1,0.6,0.1,0.9c0,0.6-0.2,1.1-0.7,1.6c-0.5,0.4-1,0.7-1.6,0.7c-0.6,0-1.1-0.2-1.5-0.5c-0.4-0.3-0.7-0.8-0.9-1.5
			l-0.1-0.5l-2-8.2l-2.7,8.8l-0.2,0.4c-0.2,0.5-0.4,0.9-0.8,1.2c-0.4,0.3-0.8,0.4-1.2,0.4c-1,0-1.7-0.7-2.2-2L316.5,282z"/>
		<path class="st0" d="M349.7,292.6c-1.8,0-2.7-1-2.7-2.7v-0.6v-13.9v-0.6c0-1.8,1-2.7,2.7-2.7h0.6h7.5h0.5c0.7,0,1.3,0.2,1.7,0.6
			c0.4,0.4,0.6,0.9,0.6,1.6c0,0.7-0.2,1.2-0.6,1.6c-0.4,0.4-1,0.6-1.7,0.6h-0.5h-6.1v3.8h4.8h0.4c0.7,0,1.2,0.2,1.6,0.5
			c0.4,0.3,0.6,0.8,0.6,1.4s-0.2,1.1-0.6,1.4c-0.4,0.4-0.9,0.5-1.6,0.5h-0.4h-4.8v4.2h6.2h0.5c0.7,0,1.3,0.2,1.7,0.6
			c0.4,0.4,0.7,0.9,0.7,1.6c0,0.7-0.2,1.2-0.7,1.6c-0.4,0.4-1,0.6-1.7,0.6h-0.5h-7.7H349.7z"/>
		<path class="st0" d="M378.9,280.7v8.9v0.5c0,0.8-0.2,1.4-0.6,1.9c-0.4,0.5-1,0.7-1.7,0.7c-0.7,0-1.3-0.2-1.7-0.7
			c-0.4-0.5-0.6-1.1-0.6-1.9v-0.5v-15c0-0.5,0-0.8,0.1-1c0.1-0.2,0.2-0.5,0.3-0.7c0.5-0.7,1.1-1,1.8-1c0.4,0,0.8,0.1,1.1,0.3
			c0.3,0.2,0.7,0.5,1.1,1.1l8.6,10.8v-9.1v-0.5c0-0.8,0.2-1.4,0.7-1.9c0.4-0.5,1-0.7,1.7-0.7c0.7,0,1.3,0.2,1.7,0.7
			c0.4,0.5,0.6,1.1,0.6,1.9v0.5v14.8c0,0.6,0,1-0.1,1.2c0,0.3-0.1,0.5-0.3,0.7c-0.2,0.3-0.5,0.6-0.9,0.8c-0.4,0.2-0.8,0.3-1.2,0.3
			c-0.4,0-0.8-0.1-1.1-0.3s-0.7-0.6-1.1-1.2L378.9,280.7z"/>
		<path class="st0" d="M411.2,289.7v-13.2h-3.4h-0.5c-0.7,0-1.3-0.2-1.8-0.6c-0.4-0.4-0.6-0.9-0.6-1.6c0-0.6,0.2-1.2,0.7-1.6
			c0.4-0.4,1-0.6,1.7-0.6h0.5h11.4h0.5c0.7,0,1.3,0.2,1.7,0.6c0.4,0.4,0.7,0.9,0.7,1.6c0,0.7-0.2,1.2-0.7,1.6
			c-0.4,0.4-1,0.6-1.7,0.6h-0.5h-3.3v13.2v0.5c0,0.8-0.2,1.4-0.7,1.9c-0.4,0.5-1,0.7-1.7,0.7c-0.7,0-1.3-0.2-1.7-0.7
			c-0.4-0.5-0.6-1.1-0.6-1.9V289.7z"/>
	</g>
</g>
</svg>
