<svg xmlns="http://www.w3.org/2000/svg" viewBox="0 0 784.32 546.1"><defs><style>.cls-1{fill:#b2146e;}.cls-2{fill:#9c1f60;}.cls-3{fill:#ee2a7b;}.cls-4{fill:none;}</style></defs><title>Fichier 1</title><g id="Calque_2" data-name="Calque 2"><g id="Layer_1" data-name="Layer 1"><path d="M287.45,487.19q-3,0-4.12,4-.79,2.85-5,5.87a33.47,33.47,0,0,1-7.94,4.37,18.41,18.41,0,0,1-5.63,1.35c-2.44,0-3.65-1.38-3.65-4.13v-.87a35.8,35.8,0,0,1,.31-4.53,38.77,38.77,0,0,0,.4-5c0-2.86-1-4.28-3.1-4.28q-4.2,0-14.68,10.87-2.53,2.7-2.94,2.7v-2.38c.06-.69.08-1.46.08-2.31s-.13-1.58-.23-2.22q-.48-3.89-3-3.89-2.7,0-7.7,4.53a22.63,22.63,0,0,1-3.17,2.54v-.08q0-.79,2-4.76a9.71,9.71,0,0,0,1-2.54,2.65,2.65,0,0,0-.23-1,3.48,3.48,0,0,0-6.43-.55,7.34,7.34,0,0,0-.49,1.66,4.25,4.25,0,0,0-1.89,2.07c-.53,1.37-3,2.75-7.39,4.12a8.17,8.17,0,0,1-1.74.4c-.21,0-.4-.58-.56-1.74a10.7,10.7,0,0,0-1.74-4.61q-2.46-3.41-5.56-3.41a7.38,7.38,0,0,0-4.76,1.9,24,24,0,0,0-2,1.91q-3,0-4.1,4-.79,2.85-5,5.87a33.47,33.47,0,0,1-7.94,4.37,18.41,18.41,0,0,1-5.63,1.35c-2.44,0-3.65-1.38-3.65-4.13v-.87a35.8,35.8,0,0,1,.31-4.53,38.77,38.77,0,0,0,.4-5c0-2.86-1-4.28-3.1-4.28q-4.2,0-14.68,10.87c-1.69,1.8-2.67,2.7-2.93,2.7v-2.38c0-.69.08-1.46.08-2.31s-.14-1.58-.24-2.22q-.48-3.89-3-3.89-2.7,0-7.7,4.53a22.63,22.63,0,0,1-3.17,2.54v-.08q0-.79,2-4.76a9.71,9.71,0,0,0,.95-2.54,2.45,2.45,0,0,0-.23-1,3.48,3.48,0,0,0-6.43-.55,12.76,12.76,0,0,0-.8,3.65l-1.11,7.62a13.66,13.66,0,0,0-.23,2.38,2.38,2.38,0,0,0,2.06,2.54l.55.08c1.33,0,3-1.17,4.92-3.49a18.59,18.59,0,0,1,1.27-1.43q6.12-6,7.31-5.95c.16,0,.23.07.23.23.21.22.32,1.67.32,4.37,0,4.13.45,6.37,1.35,6.74l.48.08q2.06,0,8.69-6.47t9.16-7a.91.91,0,0,1,.64.16,1.94,1.94,0,0,1,.16,1l-.24,2.86a55.83,55.83,0,0,0-.32,6.51,7.46,7.46,0,0,0,2.38,5.08,8.25,8.25,0,0,0,5.08,1.66,13,13,0,0,0,4-.71,37.93,37.93,0,0,0,10.36-5.48l.81-.6-.06.13q-3.26,8-3.25,13.65a11.41,11.41,0,0,0,1.19,5,4.43,4.43,0,0,0,4.2,2.7q4,0,10.08-7.31a52.17,52.17,0,0,0,5.56-8.65,41.78,41.78,0,0,0,2.38-5.39,9,9,0,0,1,.72-2,11.76,11.76,0,0,1,2.46-.71,15.86,15.86,0,0,0,2.61-.72c2.4-.8,4.28-1.42,5.7-1.86l-.38,2.58a13.77,13.77,0,0,0-.24,2.38,2.38,2.38,0,0,0,2.07,2.54l.55.08c1.32,0,3-1.17,4.92-3.49a18.59,18.59,0,0,1,1.27-1.43q6.12-6,7.31-5.95a.2.2,0,0,1,.23.23c.21.22.32,1.67.32,4.37,0,4.13.45,6.37,1.35,6.74l.48.08q2.06,0,8.69-6.47t9.16-7a.91.91,0,0,1,.64.16,1.94,1.94,0,0,1,.16,1l-.24,2.86a55.83,55.83,0,0,0-.32,6.51,7.46,7.46,0,0,0,2.38,5.08,8.25,8.25,0,0,0,5.08,1.66,13,13,0,0,0,4-.71,37.93,37.93,0,0,0,10.36-5.48,56.1,56.1,0,0,0,7.42-6.27,4.43,4.43,0,0,1,1.19-.87,3.17,3.17,0,0,0,1.82-2.86,1.94,1.94,0,0,0-.47-1.27A2.94,2.94,0,0,0,287.45,487.19Zm-80.55,11a48.09,48.09,0,0,1-5.32,9.72,31.08,31.08,0,0,1-6.59,7.42,4.57,4.57,0,0,1-2.54,1.12c-1,0-1.5-1-1.5-3.1a21.15,21.15,0,0,1,1.58-7.54,50.44,50.44,0,0,1,5.16-10c1-1.48,1.72-2.22,2.14-2.22a2.13,2.13,0,0,1,1.43.87,11.28,11.28,0,0,0,6,2.54Zm.79-6.27a3,3,0,0,1-1.19-.55c-1.11-.69-1.67-1.43-1.67-2.23,0-.16.11-.23.32-.23.42,0,1.09.5,2,1.5a2.6,2.6,0,0,1,.71,1.35A.14.14,0,0,1,207.69,492Z"/><path d="M315.39,477.67a3.83,3.83,0,0,0,3.1.39,4.11,4.11,0,0,0,2.38-2.14,4.27,4.27,0,0,0,.16-4.05,3.6,3.6,0,0,0-3.34-2.06,3.49,3.49,0,0,0-3,1.55,5,5,0,0,0-1,3.37A3.75,3.75,0,0,0,315.39,477.67Z"/><path d="M369.44,486.79c-1.38,0-2.46.8-3.26,2.38a6.07,6.07,0,0,1-2.46,2.62q-1.26.88-4,2.62l-10.32,6.83a34.75,34.75,0,0,1-4.6,3v-.08a60.69,60.69,0,0,1,2.06-5.95c.53-1.48,1-2.8,1.51-4,.16-.24.35-.49.55-.75l.24,0a2.31,2.31,0,0,0,1.15-.52,14,14,0,0,0,1.47-1.15,5.52,5.52,0,0,0,1.11-1.27,4,4,0,0,0,.53-1.94,5.74,5.74,0,0,0,1.3-3.14c0-1.43-.77-2.14-2.3-2.14a5.2,5.2,0,0,0-3.64,1.7,5.33,5.33,0,0,0-1,.36,3.93,3.93,0,0,0-2.42,3.73q0,2.55-12.93,12.23Q316.81,513,311.1,513.54a6.79,6.79,0,0,1-1.74,0,1.8,1.8,0,0,1-.87-.52q-2.39-2.78,1.42-13a43.55,43.55,0,0,1,2.43-5.68,5,5,0,0,1,1.86-2.18,4.58,4.58,0,0,0,2.14-3.13,5,5,0,0,0-.31-3.77,3.33,3.33,0,0,0-2.43-1.47,3.12,3.12,0,0,0-2.65.83,6.22,6.22,0,0,0-1.51,2.38,7.86,7.86,0,0,0-.64,2.94,14.27,14.27,0,0,1-.55,3.33q-.56,2.14-1.83,6.19A52.84,52.84,0,0,0,305,505a24.22,24.22,0,0,0-.55,4.4,9.91,9.91,0,0,0,.51,3,6.91,6.91,0,0,0,1.31,2.46,3.64,3.64,0,0,0,.92.75,9.1,9.1,0,0,0,1.15.6,5.37,5.37,0,0,0,1.9.39,10.11,10.11,0,0,0,2.38-.39q6.27-1.2,27.86-17.22c.83-.64,1.57-1.2,2.27-1.71-.34,1.14-.67,2.33-1,3.61l-.32,1.19q-.71,2.46-1.35,4.29l-.23.87q-.48,1.5-3.58,4.13a86.47,86.47,0,0,0-7.93,8c-3.49,4.08-5.35,7.06-5.56,9l-.08,1a2.65,2.65,0,0,0,.84,2.14,3,3,0,0,0,2,.72q3,0,7.14-4.6a53.05,53.05,0,0,0,9.05-15.32,15.34,15.34,0,0,1,1.51-2.94q2-2.15,12.78-9.52,8.49-5.79,10.31-6.51a12.84,12.84,0,0,1,2-.48c2.48-.37,3.73-1.4,3.73-3.09l-.16-1A2.46,2.46,0,0,0,369.44,486.79Zm-33.73,30.56a30.62,30.62,0,0,1-6.83,9.44c-1.43,1.38-2.3,2.07-2.62,2.07a.14.14,0,0,1-.15-.16q0-1.28,2.69-4.76a62.05,62.05,0,0,1,6-7c.84-.9,1.37-1.35,1.58-1.35s.08,0,.08.08A4.92,4.92,0,0,1,335.71,517.35Z"/><path d="M385.83,510.56q4.64-13.21,10.51-26.19t10.8-22.74q1.67-3.25,2.38-5.08a7.56,7.56,0,0,0,.67-2.77,2.39,2.39,0,0,0-.75-1.67q-2.87-2.94-6.67,1.11-2.77,3.09-.47,6.11l.71.95-2.7,6.35c-.1.32-.24.67-.39,1q-1.2,2.68-2.62,6c-1,2.19-1.8,4.16-2.54,5.91q-3.42,7.69-8,19.05T378.61,521q-3.54,11.07-3.77,18.05,0,5.4,3.17,6.75a3.54,3.54,0,0,0,3.25-.28,3.33,3.33,0,0,0,1.35-3,3,3,0,0,0-.27-1.39,8.35,8.35,0,0,0-1.15-1.47l-1.51-1.59.39-3.73A106.57,106.57,0,0,1,385.83,510.56Z"/><path d="M503,485.92a6.11,6.11,0,0,0-2.54-.79A2.69,2.69,0,0,0,498,486.4a11.35,11.35,0,0,0-.71,1.34q-.65,1.9-5.08,5.72a81.43,81.43,0,0,1-11,7.54q-9.06,5.31-14.77,5.32t-5.79-3.18a11.52,11.52,0,0,1,1.27-4.52,21.16,21.16,0,0,1,2.32-4.1c1.37-.56,2.49-1.06,3.36-1.51,0,.35,0,.76,0,1.24v1.35c0,.95,0,1.7,0,2.22a7,7,0,0,0,.16,1.27,3.26,3.26,0,0,0,.36.88,2.93,2.93,0,0,0,2.46,1.58,4.27,4.27,0,0,0,2.38-.95,15.92,15.92,0,0,0,4.48-5.67,13.71,13.71,0,0,0,1.55-5.68,6,6,0,0,0-2.7-5.47,3.2,3.2,0,0,0-1.66-.72l-.64.08a18,18,0,0,0-6.24,3.19,2.29,2.29,0,0,0-.5-.09,3.15,3.15,0,0,0-1.87.75,6.26,6.26,0,0,0-1.63,1.87q-1.19,2.61-7.22,5.16-5.31,2.3-7.62,2.3a3.34,3.34,0,0,1-1.11-.2,2.87,2.87,0,0,0-.87-.2,2,2,0,0,0-1.11.32,1.59,1.59,0,0,0-1,1.35c0,.42.45,1.11,1.35,2.06A131.68,131.68,0,0,1,436.19,515a141.2,141.2,0,0,1-12.7,14.84,62.5,62.5,0,0,1,2.62-10.24q5.31-17.06,7.85-22.14a14.63,14.63,0,0,0,1.51-6.51c0-2.38-.68-3.65-2-3.85a3.11,3.11,0,0,0-2.19-.91,3.71,3.71,0,0,0-3.41,2.46c-.53,1.37-3,2.75-7.38,4.12a8.08,8.08,0,0,1-1.75.4c-.21,0-.39-.58-.55-1.74a10.59,10.59,0,0,0-1.75-4.61q-2.46-3.41-5.55-3.41a7.43,7.43,0,0,0-4.77,1.9q-5.48,4.53-9,13.58-3.26,8-3.26,13.65a11.55,11.55,0,0,0,1.19,5,4.44,4.44,0,0,0,4.21,2.7c2.65,0,6-2.44,10.08-7.31a53.49,53.49,0,0,0,5.56-8.65,41.78,41.78,0,0,0,2.38-5.39,8.92,8.92,0,0,1,.71-2,12,12,0,0,1,2.46-.71,15.93,15.93,0,0,0,2.62-.72c2.43-.81,4.33-1.44,5.75-1.87,0,.12,0,.24,0,.37s.24.6.24,1.34a7.27,7.27,0,0,1-.2,1.51c-.13.64-.39,1.6-.79,2.9s-.94,3.08-1.63,5.36l-.16.55Q424.6,511.32,423,517t-2.22,8.26a18.81,18.81,0,0,0-.64,4.36q0,3.73,2.7,3.73h.32l.87-.4q3.25-1.18,14-15.55,7.86-10.49,10.32-15.72l1.11-2.22q5-1.26,10.11-3.08a14.78,14.78,0,0,0-1.86,6.73v.64q1,4.76,6.35,5.71a9.42,9.42,0,0,0,1.75.16,21.91,21.91,0,0,0,5-.79q8-1.51,24.28-12.46c3.66-2.33,5.93-3.71,6.83-4.13q2.94-1.59,2.94-3.33A3.11,3.11,0,0,0,503,485.92Zm-30.4,8.89a8.57,8.57,0,0,1,1-2.62,4.64,4.64,0,0,0,.71-2.38l-.08-1.91c0-.74.21-1.11.64-1.11.58,0,.87.58.87,1.75,0,2.11-1.11,4.58-3.33,7.38Zm-58.81,3.41a47.52,47.52,0,0,1-5.31,9.72,31.3,31.3,0,0,1-6.59,7.42,4.6,4.6,0,0,1-2.54,1.12c-1,0-1.51-1-1.51-3.1a21.18,21.18,0,0,1,1.59-7.54,49.92,49.92,0,0,1,5.16-10c1-1.48,1.72-2.22,2.14-2.22a2.15,2.15,0,0,1,1.43.87,11.28,11.28,0,0,0,6,2.54Zm.8-6.27a2.9,2.9,0,0,1-1.19-.55c-1.11-.69-1.67-1.43-1.67-2.23,0-.16.11-.23.32-.23q.63,0,2,1.5a2.56,2.56,0,0,1,.72,1.35A.14.14,0,0,1,414.6,492Z"/><path class="cls-1" d="M675,59A19.79,19.79,0,0,0,681,50.93a21.27,21.27,0,0,0,1.82-9.1,12.11,12.11,0,0,0-.85-3.95A7.82,7.82,0,0,0,679.93,35l-.33-.28c-.13-.09-.25-.17-.36-.26s-.49-.32-.72-.47a10.59,10.59,0,0,0-1.7-.71,23.25,23.25,0,0,0-4.39-.89c-1.65-.25-3.45-.43-5.43-.81a20.51,20.51,0,0,1-6.08-2.23,15.64,15.64,0,0,1-5.11-4.53,13.62,13.62,0,0,1-2.44-6.49A16.82,16.82,0,0,1,657,6.63,20,20,0,0,1,666,0a28.1,28.1,0,0,0-5.53,8.63,14,14,0,0,0-.74,8.65,8,8,0,0,0,1.78,3.14,9.83,9.83,0,0,0,3.06,2.12,13.9,13.9,0,0,0,3.94,1.15c1.5.26,3.23.41,5.09.66a29,29,0,0,1,6,1.39,18.71,18.71,0,0,1,3.11,1.54,14.64,14.64,0,0,1,2.74,2.27,14.27,14.27,0,0,1,3.43,6.11,16.74,16.74,0,0,1,.41,6.53A21.82,21.82,0,0,1,684.39,53a19.53,19.53,0,0,1-4.26,3.87A13,13,0,0,1,675,59Z"/><path class="cls-1" d="M516.67,349.4q-6.39,8-6.38,16a10.82,10.82,0,0,0,3.19,8,14.83,14.83,0,0,0,9.57,3.19c12.76,0,22.87-3.72,30.84-10.63,1.6-1.6,2.66-2.66,2.66-3.19a22.33,22.33,0,0,0-3.72.53,76.4,76.4,0,0,1-25,4.78c-8.51,0-12.77-2.12-12.77-5.85,0-1.59.53-3.72,2.66-6.38,3.73-4.25,8-8.51,12.23-12.76,5.85-6.38,9-11.17,9-14.89q0-6.39-14.36-6.38c-3.72,0-6.91.53-9,2.12-1.59,1.07-3.19,3.73-4.78,7.45v1.06c0,.53.53.53,1.06,0a18.43,18.43,0,0,1,6.91-1.59A40.57,40.57,0,0,1,530,332.38c1.6.53,1.6,1.07.54,2.13C526.24,339.29,521.46,344.62,516.67,349.4Z"/><path class="cls-2" d="M380,249.1c5.17-2.16,10.34-5.6,15.93-9.91a59.42,59.42,0,0,0,12.92-12.49c3,1.72,4.74,3,5.61,4.31,2.58-3.88,3.87-6.46,3.87-8.19-.86-1.29-2.58-2.58-5.6-4.31a41.56,41.56,0,0,0,2.16-11.62c0-3.45-1.3-6-3-6.46-2.58-.86-6,0-9.48,3.44-3.87,3.45-6,7.33-6,11.2,0,3.44,3,6.89,9.05,9.91-4.31,4.73-11.2,9.9-20.24,15.07-7.76,4.74-15.51,9-22.83,13.78-1.72.86-2.58,1.72-2.58,2.16v.43a18.73,18.73,0,0,0,3.44-.87Q378.73,249.75,380,249.1Zm22-38.34c0-.43.85-1.29,1.72-1.72a5.72,5.72,0,0,1,3-1.29c1.72,0,2.59,1.29,3,3.45a26.45,26.45,0,0,1-.43,5.59C404.57,214.21,402,212.49,402,210.76Z"/><path class="cls-3" d="M269.82,301c-5.09,1.13-9.34,4.77-12.29,9.07a64.44,64.44,0,0,0-7.22,14.12,25.93,25.93,0,0,0-4.82-13,18.52,18.52,0,0,0-16.63-7,17.26,17.26,0,0,0-13.93,11.26,24.4,24.4,0,0,0-.87,9.7,27.63,27.63,0,0,0,2.49,10.06c2.85,5.73,8.31,9.66,13.78,13s11.26,6.41,15.46,11.24a27.92,27.92,0,0,1,5.66,10.43c4.86-3.52,8.05-8.7,11.75-13.43,4.13-5.27,9.21-9.71,13.84-14.55S286,331.62,288,325.24s1.47-13.91-2.85-19A16,16,0,0,0,269.82,301Z"/><path class="cls-1" d="M588.19,120c7-2.9,13.91-7.53,21.45-13.34,7-5.22,12.76-10.43,17.39-16.81,3.48,2.32,5.8,3.48,5.8,4.64,0,0-1.74,4.06-4.06,11.59s-3.48,13.92-3.48,18c0,9.86,2.32,14.49,8.12,14.49,5.22,0,9.28-6.37,11.59-19.13v-1.16c0-.58-.58-.58-.58,0l-.58.58c-2.9,5.22-5.79,8.12-7.53,8.12-4.06,0-5.8-4.06-5.8-11,0-5.8,1.74-13.92,6.38-23.77a14.83,14.83,0,0,0,1.16-6.38c0-2.32-1.74-4.63-5.8-7,1.74-5.79,2.9-11,2.9-15.65s-1.74-8.12-4.06-8.7c-3.48-1.15-8.12,0-12.76,4.64-5.21,4.64-8.11,9.86-8.11,15.08,0,4.63,4.06,9.27,12.18,13.33-5.81,6.38-15.08,13.34-27.25,20.3-10.45,6.37-20.88,12.17-30.74,18.54-2.31,1.75-3.47,2.33-3.47,2.91v.58c1.16,0,2.32-.58,4.64-1.16Q586.44,120.88,588.19,120Zm29.57-51.6c0-.58,1.15-1.74,2.31-2.32,1.75-1.16,2.9-1.74,4.06-1.74,2.33,0,3.48,1.74,4.06,4.64a35.68,35.68,0,0,1-.58,7.54C621.23,73.05,617.76,70.73,617.76,68.41Z"/><path class="cls-1" d="M643.71,196.72c1.19,3.6,4.29,4.77,7.65,5.78s7,2.48,6.88,6.62a8.83,8.83,0,0,1,.72-2.81,33,33,0,0,0,3.13-10.25,10.48,10.48,0,0,0-.26-4.06c3.58,2.21,7.38,4.33,8.23,8.55a10,10,0,0,1-.73,2.58c.31-.64.58-1.3.87-1.95a.24.24,0,0,0,0,.08.48.48,0,0,1,0-.12,63,63,0,0,0,3.9-11.87c.91-4.08,1.19-8.21-1.21-11.89-2.58-4-7.07-5.75-7.48-10.51a9.57,9.57,0,0,1,.86-3.22c-.29.53-.59,1.17-.88,1.81,0-.08,0-.14,0-.21,0,.16-.09.32-.13.48a18.28,18.28,0,0,0-1.79,7.82c.34,4.7,5.4,6.75,7.7,10.29,2.4,3.71,2.14,7.2.73,10.84-1.16-9.08-15.56-8.75-15.06-18.49-.11,2.16-1.61,4.27-1.72,6.45,0,.16,0,.29,0,.44a6.76,6.76,0,0,0-.18,1c-.15,3.73,1.68,6.4,3.43,9.53a15.88,15.88,0,0,1,1.87,4.48,11.82,11.82,0,0,1,.19,2.22c-.12.21-.29.5-.51.93a1.86,1.86,0,0,0-.1.25c-.62-4-5.23-4.83-8.66-6-3.71-1.28-6.08-4.06-6.11-7.74a13.75,13.75,0,0,1,1-4C644.3,187.12,642.46,193,643.71,196.72Z"/><path class="cls-1" d="M698.18,68.76c1.21-4.84-1.26,4.07-1.39,4.5q-2.41,8.64-4.6,17.35c-12.65,50.82,7.28,95.27,34.48,137.4,28.21,43.7,60.86,91.37,47.87,146.14,1.44-6.1,4.78-16.69,6.61-24.43C806.43,243.17,671.29,176.8,698.18,68.76Z"/><path class="cls-1" d="M729.85,268.72c-25.85-39.85-86.37-42-108.67,2.33-14.17,28.11-19.39,63.86,2.43,89.05,23.81,27.59,64.48,40.58,78.29,76.13-44.38-31.09-98.27-35.72-151-35.06-62.48.75-124.87,5.54-187.19,9.74-46.58,3.12-96.4,12-142.16-1.15-47.89-13.71-84.66-58-72-109.32a9.49,9.49,0,0,0,.3-1.38c-.23.62-1.58,5.58-1.67,5.87-1.61,5.77-3.19,11.55-4.6,17.35-11.64,47,13.39,90,57.77,108.21,45.79,18.83,98.1,9.65,145.86,6.4,64.49-4.33,129-9.35,193.66-10.33,53.17-.82,107.58,3.14,152.68,34l16.73-44.71a4.06,4.06,0,0,0-.23-1.25c-8.92-27.84-34.77-42.77-56.84-59.43-11-8.33-22-17.45-29.55-29.26a56.55,56.55,0,0,1-8-19.68c-.62-3.48-.33-7-.85-10.46,9.25-13.09,17.65-24.47,33.75-29.92a57.43,57.43,0,0,1,17.71-2.95c-6.52,17.19-13,38.64-3,55,15,24.51,66.52,21.85,65.08,56.75.33-8.3,6.17-16.43,6.72-24.83.4-1.25.76-2.53,1.12-3.77a14.08,14.08,0,0,0,1.11-4C743.82,317.2,744.12,290.7,729.85,268.72ZM735,342.59c-.1.23-.17.49-.27.72-3-17.22-22-24.31-37.13-30.47-19.68-8-35.78-22.8-32.37-45.14.39-1.64.79-3.25,1.28-4.82a66.28,66.28,0,0,1,35.29,10,71.5,71.5,0,0,1,28.08,34.41,79,79,0,0,1,5.25,22.79C735.39,334.35,734.87,338.42,735,342.59Z"/><path class="cls-1" d="M553,244.84c-.07-42.9-18.57-83.41-52.45-112.51C464.36,101.27,394.13,68,408.07,9.23,394.85,25.34,390.3,45.9,385.24,65.62c-5.57,21.87-8.88,46.34-.78,68.06,10.36,27.81,38.37,44.87,59.1,64.42,9.68,9.15,19.09,19.12,25.59,30.86a66.54,66.54,0,0,1,7,17.68,32.63,32.63,0,0,1,.55,6c-8.26.13-16.5.43-24.7,1.25-21.38,2.2-32.7,14.86-39.29,34.57-2.49,7.48-4.53,18.6-6.46,24.47,8.39-25.16,24-33.16,49.2-34.31,14.07-.65,28.17-.42,42.25-.92-19.13,19.32-35.76,42.18-58.95,56.65-41.69,26.08-92.13,5.05-95.28-45.26-1.32-20.8-7.78-36.38-28.25-44-16.69-6.2-35.42-5.93-53-5.21-47.59,2-95.84,7-141.34,21.78-48,15.64-92.26,43.69-114.11,90.72C3.15,360.23,3.61,370,0,377.75,41.3,288.83,154.16,270.92,241.45,266c29.22-1.68,79.05-7,91.94,27.65,4.26,11.41,2.23,23.71,4.75,35.42a52.22,52.22,0,0,0,16.34,27.69c16.23,14.59,39.26,18.5,59.73,11.54,49.33-16.79,69.27-74.29,116.47-93.81a123.06,123.06,0,0,0,15.71-4.07,149.7,149.7,0,0,1-4.16,34.67c1.47-6.1,4.75-16.69,6.62-24.43,1-4,1.71-8,2.33-11.94,29.26-11.09,52.68-33.1,63.34-64.26,2.56-7.44,4.5-18.6,6.5-24.43C609.63,213.22,584.05,234.57,553,244.84Zm-14.56,3.9a148.38,148.38,0,0,1-17.72,2.66c-13.05,1.15-26.14,1-39.23,1.18,2.3-9.74,3.55-19.65,1.81-29.19-4.72-25.75-26-44.87-44.81-61.31-20.17-17.64-43.85-35.16-49.92-62.84-2.79-12.73-2.53-26.31-.72-39.13a20.27,20.27,0,0,0,1.34-4.2,39.73,39.73,0,0,1,1.64-4.79,75.92,75.92,0,0,1,10.43-16.53c-12.79,55.66,48.52,87.84,84.63,116.64,31.39,25,52.25,58.32,58.52,95.41C542.39,247.27,540.39,248,538.46,248.74Z"/><polygon class="cls-2" points="578.68 490.15 574.72 490.15 552.3 467.74 529.07 490.97 552.3 514.2 574.72 491.79 578.68 491.79 601.09 514.2 624.33 490.97 601.09 467.74 578.68 490.15"/><polyline class="cls-4" points="693.6 460.54 710.33 415.83 710.37 415.8"/></g></g></svg>