<svg width="201" height="200" viewBox="0 0 201 200" fill="none" xmlns="http://www.w3.org/2000/svg">
<path d="M160.746 170.8C160.746 170.8 160.782 170.736 160.867 170.608L161.269 170.028L162.792 167.748C162.795 167.744 162.8 167.742 162.804 167.74C162.809 167.738 162.813 167.737 162.818 167.737C162.823 167.737 162.828 167.738 162.832 167.74C162.837 167.742 162.841 167.744 162.844 167.748L162.768 167.768C162.43 165.897 162.569 163.972 163.17 162.168C163.359 161.606 163.593 161.061 163.869 160.536C164.171 159.977 164.515 159.442 164.899 158.936C166.689 156.574 169.331 154.997 172.267 154.536C173.918 154.272 175.606 154.366 177.216 154.812C178.966 155.301 180.576 156.194 181.914 157.418C183.253 158.642 184.284 160.162 184.922 161.856L185.159 162.524L185.348 163.2L185.433 163.544L185.489 163.888L185.594 164.58C185.622 164.808 185.626 165.044 185.642 165.272C185.656 165.502 185.656 165.733 185.642 165.964C185.641 166.42 185.607 166.876 185.541 167.328C185.217 169.817 184.08 172.13 182.306 173.914C180.532 175.697 178.218 176.852 175.72 177.2C174.328 177.396 172.91 177.335 171.54 177.02C170.917 176.872 170.306 176.679 169.711 176.444C169.159 176.209 168.622 175.942 168.103 175.644C166.476 174.658 165.123 173.283 164.167 171.644H164.191L161.602 171.004L160.943 170.84L160.73 170.784L160.963 170.832L161.634 170.984L164.207 171.568C164.219 171.571 164.229 171.578 164.235 171.588C165.199 173.206 166.549 174.562 168.167 175.536C168.678 175.832 169.205 176.099 169.747 176.336C170.335 176.565 170.94 176.751 171.556 176.892C173.796 177.393 176.137 177.211 178.272 176.37C180.407 175.529 182.239 174.067 183.527 172.176C184.501 170.717 185.127 169.056 185.356 167.32C185.42 166.875 185.454 166.426 185.457 165.976C185.471 165.749 185.471 165.522 185.457 165.296C185.457 165.072 185.457 164.844 185.409 164.616L185.304 163.936L185.252 163.596L185.163 163.26L184.995 162.588L184.761 161.932C184.131 160.211 183.081 158.673 181.706 157.456C180.412 156.283 178.861 155.427 177.176 154.956C174.975 154.338 172.638 154.394 170.469 155.117C168.301 155.839 166.402 157.195 165.019 159.008C164.636 159.514 164.293 160.049 163.994 160.608C163.718 161.121 163.484 161.657 163.295 162.208C162.684 163.991 162.525 165.897 162.832 167.756C162.836 167.765 162.835 167.776 162.83 167.785C162.826 167.794 162.818 167.801 162.808 167.804C162.799 167.807 162.788 167.806 162.779 167.802C162.77 167.797 162.763 167.789 162.76 167.78H162.828C162.157 168.752 161.622 169.496 161.281 170.008C161.108 170.26 160.971 170.452 160.879 170.588C160.786 170.724 160.746 170.8 160.746 170.8Z" fill="#EBEBEB"/>
<path d="M171.148 93.8877L171.225 93.7677C171.281 93.6837 171.361 93.5637 171.462 93.4037C171.683 93.0797 172.001 92.6037 172.415 91.9837C172.419 91.9798 172.425 91.9776 172.431 91.9776C172.437 91.9776 172.442 91.9798 172.447 91.9837H172.399C172.129 90.4428 172.375 88.8564 173.098 87.4677C173.288 87.1181 173.503 86.7826 173.741 86.4637C174.614 85.3143 175.814 84.4531 177.186 83.9922C178.558 83.5313 180.037 83.4921 181.432 83.8797C182.523 84.1872 183.526 84.7456 184.361 85.5099C185.195 86.2742 185.837 87.223 186.235 88.2797L186.384 88.6797L186.493 89.1077L186.545 89.3197L186.581 89.5357L186.646 89.9677C186.646 90.1117 186.646 90.2557 186.674 90.3997C186.682 90.5436 186.682 90.6878 186.674 90.8317C186.671 91.1168 186.649 91.4014 186.609 91.6837C186.417 93.2427 185.714 94.6954 184.61 95.8179C183.506 96.9404 182.061 97.6705 180.499 97.8957C179.63 98.0169 178.745 97.979 177.89 97.7837C177.501 97.692 177.119 97.5717 176.748 97.4237C176.407 97.2743 176.074 97.106 175.751 96.9197C174.733 96.2971 173.887 95.4308 173.291 94.3997L171.683 93.9997L171.281 93.8957L171.148 93.8597L171.293 93.8917L171.695 93.9837L173.303 94.3477C173.903 95.3585 174.745 96.2052 175.755 96.8117C176.075 96.9969 176.405 97.1625 176.744 97.3077C177.112 97.4517 177.489 97.568 177.874 97.6557C178.718 97.8461 179.59 97.8814 180.447 97.7597C181.982 97.543 183.403 96.8314 184.492 95.7338C185.581 94.6363 186.278 93.2135 186.477 91.6837C186.515 91.4053 186.535 91.1247 186.537 90.8437C186.547 90.7026 186.547 90.5609 186.537 90.4197C186.537 90.2757 186.537 90.1357 186.509 89.9917L186.445 89.5677L186.412 89.3557L186.356 89.1477L186.252 88.7277L186.107 88.3277C185.719 87.2914 185.092 86.36 184.276 85.6084C183.461 84.8568 182.48 84.3058 181.411 83.9997C180.459 83.7322 179.461 83.6652 178.481 83.803C177.501 83.9407 176.56 84.2802 175.719 84.7997C174.988 85.2551 174.346 85.8393 173.826 86.5237C173.587 86.8356 173.373 87.166 173.187 87.5117C173.012 87.8333 172.865 88.1692 172.748 88.5157C172.364 89.6354 172.264 90.8324 172.459 91.9997C172.463 92.0035 172.465 92.0085 172.465 92.0137C172.465 92.0189 172.463 92.024 172.459 92.0277C172.459 92.0277 172.459 92.0277 172.435 92.0277H172.459C172.057 92.6317 171.715 93.0997 171.494 93.4197L171.241 93.7797L171.148 93.8877Z" fill="#EBEBEB"/>
<path d="M102.733 128.17L104.502 128.65C105.203 129.935 106.362 130.912 107.75 131.389C109.138 131.867 110.656 131.811 112.005 131.232C113.353 130.653 114.436 129.593 115.039 128.26C115.643 126.928 115.723 125.419 115.265 124.03C114.808 122.641 113.844 121.473 112.565 120.755C111.286 120.036 109.783 119.82 108.351 120.149C106.92 120.477 105.663 121.326 104.829 122.529C103.995 123.732 103.643 125.202 103.843 126.65L102.733 128.17Z" fill="#EBEBEB"/>
<path d="M112.833 132.452L112.897 132.356L113.106 132.064L113.91 130.916H113.939H113.898C113.762 129.947 113.869 128.96 114.212 128.044C114.322 127.757 114.457 127.48 114.614 127.216C114.778 126.936 114.964 126.668 115.169 126.416C115.919 125.494 116.93 124.818 118.072 124.475C119.213 124.133 120.431 124.14 121.569 124.496C122.46 124.779 123.271 125.266 123.938 125.92C124.604 126.573 125.106 127.373 125.404 128.256L125.512 128.604L125.593 128.96L125.629 129.136L125.653 129.316L125.697 129.672C125.697 129.788 125.697 129.908 125.697 130.028C125.705 130.146 125.705 130.265 125.697 130.384C125.688 130.619 125.662 130.852 125.621 131.084C125.47 131.985 125.113 132.84 124.58 133.584C124.072 134.28 123.418 134.858 122.662 135.276C121.964 135.659 121.196 135.901 120.403 135.988C119.683 136.065 118.955 136.009 118.256 135.824C117.938 135.741 117.628 135.633 117.327 135.5C117.051 135.368 116.782 135.22 116.523 135.056C115.702 134.52 115.029 133.789 114.566 132.928L113.243 132.556L112.909 132.46L112.801 132.428L112.918 132.456L113.263 132.544L114.574 132.888C115.043 133.734 115.714 134.452 116.527 134.98C116.785 135.141 117.054 135.286 117.331 135.412C117.629 135.542 117.937 135.649 118.252 135.732C119.717 136.109 121.272 135.91 122.594 135.176C123.361 134.751 124.022 134.158 124.526 133.442C125.03 132.727 125.365 131.907 125.504 131.044C125.543 130.816 125.567 130.586 125.577 130.356C125.585 130.239 125.585 130.121 125.577 130.004C125.577 129.888 125.577 129.772 125.577 129.656L125.532 129.304V129.128L125.492 128.956L125.416 128.604L125.307 128.264C125.014 127.373 124.504 126.568 123.824 125.92C123.178 125.294 122.395 124.827 121.536 124.556C120.759 124.312 119.939 124.232 119.128 124.321C118.318 124.41 117.535 124.666 116.829 125.072C116.213 125.426 115.668 125.889 115.221 126.44C115.019 126.693 114.835 126.961 114.67 127.24C114.513 127.501 114.379 127.776 114.268 128.06C113.921 128.964 113.808 129.941 113.939 130.9C113.939 130.905 113.937 130.911 113.933 130.915C113.929 130.92 113.924 130.923 113.919 130.924H113.951L113.119 132.044L112.901 132.336L112.833 132.452Z" fill="#EBEBEB"/>
<path d="M40.7109 180.436L40.518 180.46L39.9391 180.52L37.6437 180.76C37.6343 180.76 37.6251 180.757 37.6178 180.751C37.6104 180.745 37.6054 180.737 37.6035 180.728L37.6598 180.764C36.6167 181.975 35.2879 182.909 33.7925 183.484C33.3261 183.662 32.8462 183.804 32.3574 183.908C31.8271 184.012 31.2895 184.077 30.7494 184.1C29.575 184.155 28.4003 183.995 27.2841 183.628C26.0036 183.203 24.8259 182.518 23.8259 181.616C22.8259 180.713 22.0254 179.614 21.4752 178.388C20.8743 177.029 20.599 175.55 20.6712 174.068C20.7339 172.517 21.1798 171.006 21.9697 169.668L22.2792 169.16L22.629 168.68L22.8059 168.444L23.0028 168.224L23.4048 167.788C23.5415 167.644 23.6903 167.52 23.831 167.388C23.9678 167.245 24.1142 167.111 24.2691 166.988C24.5703 166.748 24.8857 166.526 25.2138 166.324C26.4864 165.535 27.9232 165.045 29.4147 164.892C30.7649 164.766 32.1266 164.923 33.4123 165.352C34.6979 165.781 35.8791 166.473 36.8799 167.384C37.7522 168.179 38.4691 169.129 38.9944 170.184C39.2331 170.662 39.4347 171.158 39.5974 171.668C39.7359 172.146 39.8446 172.632 39.923 173.124C40.1521 174.7 39.9779 176.308 39.4165 177.8V177.776C39.8386 178.648 40.1642 179.32 40.3853 179.776L40.6265 180.284C40.6828 180.4 40.7069 180.456 40.7069 180.456C40.7069 180.456 40.6707 180.392 40.6145 180.276C40.5582 180.16 40.4657 179.988 40.3532 179.764L39.3562 177.796C39.3541 177.792 39.353 177.788 39.353 177.784C39.353 177.779 39.3541 177.775 39.3562 177.772C39.8947 176.287 40.0549 174.693 39.8225 173.132C39.7407 172.646 39.6306 172.165 39.4929 171.692C39.3283 171.19 39.1268 170.7 38.8899 170.228C38.3643 169.193 37.6531 168.263 36.7914 167.484C35.254 166.08 33.2951 165.22 31.2171 165.035C29.1391 164.85 27.0577 165.35 25.2942 166.46C24.9719 166.658 24.663 166.877 24.3696 167.116C24.2185 167.232 24.0736 167.356 23.9355 167.488C23.7988 167.62 23.6501 167.744 23.5335 167.888L23.1315 168.316L22.9385 168.532L22.7657 168.768L22.4199 169.236L22.1184 169.74C21.3395 171.059 20.9003 172.55 20.8401 174.08C20.7738 175.54 21.049 176.995 21.6441 178.332C22.4182 180.078 23.7033 181.552 25.3319 182.561C26.9604 183.57 28.8567 184.067 30.7735 183.988C31.3029 183.965 31.8297 183.903 32.3493 183.8C32.8335 183.704 33.3093 183.57 33.7724 183.4C35.2573 182.839 36.5801 181.923 37.6236 180.732C37.6266 180.728 37.6303 180.726 37.6345 180.724C37.6386 180.722 37.6431 180.721 37.6477 180.721C37.6523 180.721 37.6568 180.722 37.6609 180.724C37.6651 180.726 37.6688 180.728 37.6718 180.732C37.6718 180.732 37.6718 180.756 37.6718 180.772L37.6397 180.724L39.915 180.528L40.5099 180.48L40.7109 180.436Z" fill="#EBEBEB"/>
<path d="M12.2092 189.6C12.2092 189.66 51.2274 189.704 99.3468 189.704C147.466 189.704 186.488 189.668 186.488 189.6C186.488 189.532 147.494 189.496 99.3468 189.496C51.1992 189.496 12.2092 189.552 12.2092 189.6Z" fill="#263238"/>
<path d="M82.4142 52.2401C82.8724 52.2737 83.3267 52.1355 83.6879 51.8529C84.049 51.5702 84.2908 51.1633 84.3659 50.7122C84.4409 50.2612 84.3438 49.7985 84.0935 49.4151C83.8432 49.0316 83.4578 48.7552 83.0131 48.6401C83.278 48.3399 83.4413 47.9644 83.4799 47.5668C83.5184 47.1692 83.4303 46.7695 83.228 46.4245C83.0258 46.0794 82.7195 45.8064 82.3527 45.6441C81.9859 45.4818 81.577 45.4384 81.184 45.5201C81.1476 45.1276 81.0095 44.7512 80.7833 44.4277C80.5571 44.1041 80.2504 43.8445 79.8932 43.674C79.5361 43.5036 79.1406 43.4282 78.7454 43.4552C78.3502 43.4822 77.9688 43.6106 77.6384 43.8281C77.1751 43.4906 76.6118 43.3168 76.0379 43.3342C75.464 43.3516 74.9124 43.5592 74.4706 43.9241C74.0815 43.8724 73.686 43.9465 73.3423 44.1353C72.9987 44.3241 72.725 44.6177 72.5616 44.9729C72.3982 45.3281 72.3537 45.726 72.4347 46.1083C72.5157 46.4905 72.7178 46.8367 73.0114 47.0961" fill="#263238"/>
<path d="M82.7038 52.4841C82.4496 50.5493 81.4725 48.7806 79.967 47.5302C78.4615 46.2798 76.538 45.6393 74.5794 45.7361H74.1774C69.8398 46.2041 67.8137 50.1361 68.4047 54.4361L69.7554 68.8361L69.8278 69.5361L79.9702 71.0402L79.7732 67.3681C79.7732 67.3681 83.9259 66.5121 83.7691 62.3481C83.6887 60.3441 83.1942 56.2161 82.7038 52.4841Z" fill="#FFBF9D"/>
<path d="M79.8037 67.368C77.8608 67.4648 75.931 67.0038 74.244 66.04C74.244 66.04 75.6832 68.972 79.8398 68.392L79.8037 67.368Z" fill="#FF9A6C"/>
<path d="M81.6628 56.5036C81.6728 56.6588 81.6211 56.8116 81.5188 56.9291C81.4165 57.0466 81.2719 57.1194 81.1161 57.1317C81.0408 57.1411 80.9643 57.1355 80.8911 57.1152C80.818 57.0949 80.7496 57.0602 80.6901 57.0133C80.6306 56.9663 80.5811 56.9081 80.5445 56.8418C80.5079 56.7756 80.4849 56.7028 80.4769 56.6276C80.4669 56.4731 80.5181 56.3209 80.6195 56.2035C80.721 56.0861 80.8646 56.0129 81.0196 55.9996C81.0954 55.989 81.1725 55.9938 81.2464 56.0136C81.3202 56.0335 81.3893 56.068 81.4494 56.115C81.5095 56.1621 81.5593 56.2208 81.596 56.2876C81.6327 56.3544 81.6555 56.4279 81.6628 56.5036Z" fill="#263238"/>
<path d="M81.9067 54.5643C81.8344 54.6483 81.364 54.3363 80.7249 54.3683C80.0857 54.4003 79.6234 54.7443 79.551 54.6723C79.4787 54.6003 79.5832 54.4923 79.7802 54.3363C80.0499 54.1299 80.3769 54.0112 80.7168 53.9963C81.0511 53.9788 81.3823 54.0685 81.6615 54.2523C81.8665 54.4123 81.9389 54.5283 81.9067 54.5643Z" fill="#263238"/>
<path d="M75.8195 56.8122C75.8275 56.9669 75.775 57.1186 75.6731 57.2356C75.5712 57.3527 75.4278 57.426 75.2728 57.4402C75.1969 57.4497 75.1199 57.444 75.0463 57.4235C74.9726 57.4029 74.9038 57.368 74.8439 57.3207C74.784 57.2734 74.7342 57.2147 74.6974 57.148C74.6606 57.0813 74.6376 57.0079 74.6296 56.9322C74.6207 56.7774 74.6728 56.6251 74.7749 56.5078C74.877 56.3906 75.021 56.3175 75.1763 56.3042C75.2522 56.2948 75.3292 56.3005 75.4029 56.321C75.4765 56.3415 75.5453 56.3765 75.6052 56.4238C75.6651 56.4711 75.7149 56.5298 75.7517 56.5965C75.7885 56.6632 75.8116 56.7366 75.8195 56.8122Z" fill="#263238"/>
<path d="M75.5795 54.9961C75.5111 55.0761 75.0408 54.7681 74.3976 54.8001C73.7544 54.8321 73.3001 55.1761 73.2278 55.1041C73.1554 55.0321 73.2599 54.9241 73.4569 54.7681C73.7255 54.5625 74.051 54.4438 74.3895 54.4281C74.7252 54.41 75.0578 54.4997 75.3383 54.6841C75.5553 54.8121 75.6277 54.9601 75.5795 54.9961Z" fill="#263238"/>
<path d="M78.1648 59.612C78.4978 59.4894 78.8449 59.4088 79.198 59.372C79.3628 59.348 79.5155 59.308 79.5356 59.196C79.5407 59.0264 79.4945 58.8592 79.403 58.716C79.2301 58.316 79.0452 57.916 78.8563 57.516C78.0925 55.78 77.5337 54.348 77.602 54.316C77.6704 54.284 78.3497 55.668 79.1095 57.404L79.6402 58.632C79.7517 58.8242 79.7929 59.0489 79.7567 59.268C79.7355 59.3269 79.7014 59.3804 79.6569 59.4247C79.6125 59.4689 79.5587 59.5028 79.4995 59.524C79.409 59.5507 79.3161 59.5682 79.2221 59.576C78.8725 59.6311 78.5174 59.6431 78.1648 59.612Z" fill="#263238"/>
<path d="M75.7327 53.5359C75.6564 53.7039 75.0936 53.5559 74.4142 53.5679C73.7348 53.5799 73.172 53.7199 73.0996 53.5679C73.0715 53.4879 73.1841 53.3399 73.4212 53.1959C73.7282 53.0243 74.0741 52.9334 74.4262 52.9319C74.7752 52.9262 75.1193 53.0132 75.4232 53.1839C75.6564 53.3079 75.7649 53.4559 75.7327 53.5359Z" fill="#263238"/>
<path d="M81.8074 51.9283C81.6788 52.0763 81.1401 51.9523 80.5009 51.9763C79.8617 52.0003 79.3271 52.1323 79.1944 51.9763C79.1381 51.9043 79.1944 51.7563 79.4436 51.6083C79.7607 51.4192 80.1231 51.3183 80.4929 51.3163C80.8592 51.3006 81.2231 51.3835 81.5461 51.5563C81.7793 51.7083 81.8637 51.8523 81.8074 51.9283Z" fill="#263238"/>
<path d="M82.207 50.5963C82.207 50.5963 80.9729 48.0443 79.6824 47.4963C78.1146 46.8363 77.5398 48.5403 76.0644 48.2083C74.5891 47.8763 73.0896 47.2403 71.6424 48.4323C70.0706 49.7403 70.8786 50.5643 70.8706 52.4323C70.8344 59.9403 69.5681 62.1243 69.0013 58.6163C68.937 58.2163 67.8476 57.9763 67.6064 56.3523C67.2928 54.2483 67.0838 51.6803 67.4817 50.1563C67.8194 48.8683 68.4988 47.9603 69.753 46.9323C71.7309 45.3083 74.5489 45.1363 76.4745 45.2323C78.4001 45.3283 82.2191 47.3243 82.207 50.5963Z" fill="#263238"/>
<path d="M69.2773 58.4723C69.2645 58.3196 69.2206 58.1711 69.1485 58.0358C69.0763 57.9005 68.9772 57.7812 68.8573 57.6851C68.7374 57.5889 68.5992 57.5181 68.4509 57.4767C68.3027 57.4353 68.1476 57.4243 67.9949 57.4443C67.2191 57.5603 66.3869 58.0403 66.5075 59.6443C66.7407 62.4843 69.5587 61.6443 69.5547 61.5843C69.5507 61.5243 69.3858 59.6603 69.2773 58.4723Z" fill="#FFBF9D"/>
<path d="M68.8492 60.5639C68.8492 60.5639 68.801 60.6039 68.7206 60.6479C68.6067 60.707 68.4747 60.7213 68.3508 60.6879C68.1561 60.5865 67.9923 60.4351 67.8763 60.2494C67.7604 60.0637 67.6966 59.8505 67.6915 59.6319C67.6616 59.3903 67.6891 59.145 67.7719 58.9159C67.7926 58.8269 67.8344 58.7442 67.8939 58.6746C67.9533 58.605 68.0287 58.5506 68.1136 58.5159C68.1697 58.4966 68.2307 58.4973 68.2864 58.5177C68.3421 58.5381 68.389 58.577 68.4191 58.6279C68.4633 58.7039 68.4513 58.7639 68.4633 58.7639C68.4754 58.7639 68.5236 58.7119 68.4914 58.5959C68.4682 58.5186 68.4166 58.4529 68.3467 58.4119C68.262 58.3622 68.1619 58.3451 68.0653 58.3639C67.9504 58.3963 67.8458 58.4574 67.7613 58.5414C67.6769 58.6254 67.6155 58.7296 67.5829 58.8439C67.4816 59.0977 67.4444 59.3724 67.4744 59.6439C67.5387 60.2159 67.8764 60.7279 68.3025 60.8119C68.3806 60.8275 68.4611 60.8255 68.5383 60.8061C68.6155 60.7867 68.6874 60.7504 68.7487 60.6999C68.8492 60.6319 68.8573 60.5679 68.8492 60.5639Z" fill="#FF9A6C"/>
<path d="M69.0554 52.9598C69.4217 53.2226 69.8466 53.3928 70.2936 53.4558C70.5181 53.4779 70.7431 53.419 70.9276 53.2897C71.1121 53.1605 71.2438 52.9696 71.2986 52.7518C71.3227 52.5518 71.2624 52.3238 71.383 52.1638C71.5036 52.0038 71.8212 52.0158 72.0624 52.0318C72.482 52.0433 72.8927 51.9108 73.2258 51.6566C73.5588 51.4025 73.7939 51.042 73.8915 50.6358C74.0277 50.7691 74.2087 50.8473 74.3996 50.8555C74.5904 50.8636 74.7775 50.801 74.9246 50.6798C75.2109 50.4264 75.4598 50.1342 75.6643 49.8118C75.7681 49.6519 75.9094 49.5195 76.0761 49.4261C76.2428 49.3327 76.4298 49.2812 76.6211 49.2758C76.8251 49.3357 77.0357 49.3706 77.2482 49.3798C77.6221 49.3278 77.7829 48.8838 77.8231 48.5078C77.8633 48.1318 77.8834 47.7078 78.1929 47.4838C78.5131 47.3381 78.8748 47.3097 79.214 47.4038C79.5597 47.4398 80.018 47.3358 80.0743 47.0038C80.0839 46.9127 80.0754 46.8206 80.0492 46.7327C80.023 46.6448 79.9796 46.563 79.9215 46.4918C79.6712 46.1596 79.3158 45.9209 78.9125 45.8142C78.5092 45.7075 78.0815 45.7391 77.6984 45.9038C77.534 45.4373 77.2342 45.0298 76.837 44.7328C76.4397 44.4358 75.9629 44.2627 75.4669 44.2353C74.9708 44.2079 74.4776 44.3275 74.0498 44.5789C73.622 44.8303 73.2787 45.2023 73.0634 45.6478C72.7467 45.3886 72.3717 45.2094 71.9704 45.1255C71.5691 45.0416 71.1533 45.0554 70.7585 45.1658C70.3637 45.2761 70.0016 45.4798 69.703 45.7595C69.4043 46.0391 69.178 46.3864 69.0434 46.7718C68.6884 46.6973 68.3192 46.7283 67.9818 46.861C67.6443 46.9937 67.3536 47.2223 67.1458 47.5182C66.9379 47.8141 66.8222 48.1643 66.8129 48.5252C66.8036 48.8861 66.9013 49.2418 67.0937 49.5478C66.8342 49.6919 66.6157 49.8993 66.4589 50.1505C66.3021 50.4017 66.212 50.6885 66.1972 50.9838C66.2173 51.5758 66.8203 52.1318 67.4032 51.9478C67.2795 52.1876 67.2567 52.4664 67.3396 52.723C67.4225 52.9795 67.6045 53.1928 67.8454 53.3158C68.0864 53.4389 68.3666 53.4617 68.6244 53.3792C68.8823 53.2967 69.0966 53.1156 69.2203 52.8758" fill="#263238"/>
<path d="M77.9574 46.7236V46.7756C77.9621 46.8262 77.9621 46.8771 77.9574 46.9276C77.9315 47.1218 77.8716 47.31 77.7805 47.4836C77.6368 47.7615 77.4304 48.0024 77.1775 48.1876C76.8481 48.4444 76.4423 48.5851 76.0238 48.5876L76.068 48.5236C76.1213 48.6503 76.1487 48.7863 76.1487 48.9236C76.1487 49.061 76.1213 49.1969 76.068 49.3236C75.9383 49.574 75.7746 49.8055 75.5816 50.0116C75.4911 50.1345 75.3887 50.2484 75.2761 50.3516C75.1457 50.4516 74.9923 50.5176 74.8298 50.5436C74.6623 50.5756 74.4894 50.5665 74.3262 50.517C74.163 50.4675 74.0143 50.3792 73.8932 50.2596L74.0017 50.2236C73.9764 50.5215 73.8889 50.8109 73.745 51.0733C73.601 51.3357 73.4037 51.5653 73.1656 51.7476C72.9032 51.9605 72.5791 52.0839 72.241 52.0996C71.9222 52.0996 71.6057 52.0469 71.3043 51.9436L71.3807 51.9036C71.2501 52.2563 71.0315 52.5701 70.7455 52.8156C70.616 52.9379 70.4609 53.03 70.2912 53.0853C70.1216 53.1407 69.9418 53.1579 69.7646 53.1356C69.4606 53.0866 69.1777 52.9498 68.9511 52.7421C68.7246 52.5345 68.5643 52.2651 68.4903 51.9676L68.5546 51.9956C68.2626 52.1701 67.9186 52.2379 67.5818 52.1876C67.3307 52.1544 67.091 52.0625 66.8823 51.9196C66.7513 51.8292 66.637 51.7169 66.5446 51.5876C66.5113 51.5435 66.4842 51.4951 66.4642 51.4436C66.5901 51.632 66.7563 51.7903 66.9509 51.9072C67.1455 52.0241 67.3637 52.0966 67.5898 52.1196C67.9101 52.1595 68.2345 52.0904 68.5104 51.9236L68.5627 51.8876V51.9476C68.637 52.2245 68.7906 52.4739 69.0046 52.6657C69.2187 52.8574 69.4841 52.9831 69.7687 53.0276C69.9305 53.0467 70.0945 53.0296 70.2489 52.9778C70.4032 52.9259 70.5441 52.8404 70.6611 52.7276C70.9275 52.4932 71.1306 52.1962 71.2521 51.8636L71.2721 51.8116H71.3284C71.6172 51.909 71.92 51.9589 72.2249 51.9596C72.537 51.9445 72.8359 51.8294 73.0771 51.6316C73.3043 51.4612 73.4931 51.2454 73.6316 50.9981C73.77 50.7509 73.855 50.4775 73.8811 50.1956V50.0636L73.9776 50.1636C74.1389 50.3123 74.3464 50.4016 74.5657 50.4169C74.7851 50.4322 75.0031 50.3725 75.1836 50.2476C75.2889 50.1489 75.3845 50.0404 75.469 49.9236C75.6501 49.7153 75.8003 49.4822 75.9152 49.2316C75.9666 49.1205 75.9952 49.0003 75.9994 48.8781C76.0035 48.7558 75.9831 48.6339 75.9394 48.5196L75.9152 48.4516H75.9836C76.3823 48.4551 76.7715 48.3302 77.0931 48.0956C77.3396 47.9193 77.5441 47.6913 77.6921 47.4276C77.8171 47.2083 77.9067 46.9707 77.9574 46.7236Z" fill="#455A64"/>
<path d="M78.5055 61.3124L76.8131 60.7764C76.6883 61.0505 76.6056 61.3418 76.5679 61.6404C76.5494 61.7899 76.5651 61.9417 76.6138 62.0844C76.6625 62.2271 76.743 62.357 76.8493 62.4644C77.011 62.5985 77.2075 62.6845 77.4161 62.7124C77.6426 62.7611 77.8789 62.7329 78.0875 62.6324C78.2824 62.5155 78.426 62.3299 78.4895 62.1124C78.5496 61.8987 78.582 61.6782 78.5859 61.4564" fill="#FF9A6C"/>
<path d="M78.0257 62.6719C77.7926 62.6766 77.5603 62.6428 77.3383 62.5719C77.11 62.4886 76.9181 62.3288 76.7956 62.1199C76.6682 61.8492 76.6302 61.5454 76.687 61.2519C76.7112 61.1117 76.7587 60.9765 76.8277 60.8519L76.7031 60.8959C77.3151 61.1709 77.9683 61.3439 78.6367 61.4079C78.6367 61.3559 77.8327 61.1319 76.7795 60.7039L76.6951 60.6719L76.6508 60.7479C76.5253 60.9737 76.4575 61.2268 76.4533 61.4849C76.4491 61.7429 76.5086 61.9981 76.6267 62.2279C76.7758 62.4725 77.013 62.6513 77.29 62.7279C77.409 62.774 77.5369 62.7929 77.6643 62.7832C77.7916 62.7735 77.9151 62.7355 78.0257 62.6719Z" fill="#263238"/>
<path d="M79.2605 177.736L79.1238 185.412C79.1238 185.412 86.9226 188.128 87.0352 189.552L72.0647 189.824L71.7833 177.852L79.2605 177.736Z" fill="#263238"/>
<path d="M74.4841 184.852C74.3428 184.9 74.2238 184.997 74.1498 185.126C74.0757 185.255 74.0516 185.407 74.0821 185.552C74.1252 185.694 74.2211 185.815 74.3503 185.889C74.4795 185.963 74.6323 185.986 74.7776 185.952C74.9231 185.898 75.044 185.793 75.1179 185.657C75.1918 185.521 75.2137 185.363 75.1796 185.212C75.1211 185.066 75.0081 184.948 74.8641 184.883C74.7202 184.818 74.5567 184.812 74.4077 184.864" fill="#E0E0E0"/>
<path d="M72.064 189.824L72.0841 188.624L86.4355 188.812C86.4355 188.812 87.1069 189.092 87.0425 189.56L72.064 189.824Z" fill="#455A64"/>
<path d="M79.3629 185.332C79.3629 185.404 78.997 185.444 78.6433 185.684C78.2895 185.924 78.1006 186.236 78.0322 186.208C77.9639 186.18 78.0644 185.76 78.5026 185.476C78.9408 185.192 79.3789 185.264 79.3629 185.332Z" fill="white"/>
<path d="M80.9492 185.952C80.9492 186.02 80.6517 186.152 80.4105 186.464C80.1693 186.776 80.101 187.1 80.0286 187.1C79.9563 187.1 79.9 186.7 80.2095 186.3C80.5191 185.9 80.9452 185.88 80.9492 185.952Z" fill="white"/>
<path d="M81.8716 187.804C81.8073 187.804 81.6988 187.46 81.8716 187.056C82.0445 186.652 82.3942 186.492 82.4264 186.552C82.4585 186.612 82.2495 186.828 82.1048 187.16C81.9601 187.492 81.944 187.796 81.8716 187.804Z" fill="white"/>
<path d="M79.2005 183.58C79.1724 183.648 78.8347 183.552 78.4206 183.58C78.0066 183.608 77.689 183.752 77.6528 183.688C77.6166 183.624 77.9181 183.364 78.4046 183.328C78.891 183.292 79.2367 183.524 79.2005 183.58Z" fill="white"/>
<path d="M60.9979 177.268L60.1939 186.52L61.6653 194.012C61.6906 194.139 61.6897 194.269 61.6625 194.396C61.6353 194.522 61.5825 194.642 61.5072 194.748C61.432 194.853 61.3359 194.943 61.2248 195.01C61.1138 195.077 60.9901 195.121 60.8613 195.14C60.7098 195.159 60.5557 195.142 60.4123 195.09C60.2688 195.038 60.1401 194.952 60.0372 194.84C58.7025 193.392 53.8222 188.04 53.9187 187.372C54.0313 186.572 54.1237 177.552 54.1237 177.552L60.9979 177.268Z" fill="#263238"/>
<path d="M60.8477 195.152L53.9453 186.752L53.9212 187.152C53.898 187.493 53.9978 187.83 54.2026 188.104C54.7493 188.812 56.285 190.812 59.9954 194.852C60.1014 194.968 60.2347 195.057 60.3835 195.109C60.5322 195.161 60.6917 195.176 60.8477 195.152Z" fill="#455A64"/>
<g opacity="0.6">
<path d="M56.0533 183.888C56.1614 183.98 56.232 184.108 56.252 184.248C56.272 184.388 56.2399 184.53 56.1618 184.648C56.0755 184.761 55.9485 184.836 55.8075 184.858C55.6665 184.88 55.5226 184.846 55.4061 184.764C55.2914 184.668 55.2164 184.533 55.1956 184.386C55.1748 184.238 55.2097 184.088 55.2935 183.964C55.3972 183.856 55.539 183.793 55.689 183.787C55.839 183.781 55.9855 183.833 56.0975 183.932" fill="white"/>
</g>
<path d="M58.98 190.964C59.2253 190.691 59.5181 190.465 59.8443 190.296C60.194 190.182 60.5625 190.136 60.9297 190.16C60.9297 190.14 60.8252 190.06 60.6081 190.016C60.3236 189.966 60.0308 189.998 59.7639 190.108C59.497 190.218 59.267 190.401 59.1006 190.636C58.98 190.812 58.9559 190.956 58.98 190.964Z" fill="white"/>
<path d="M59.5632 192.248C59.8401 192.116 60.1247 192.001 60.4155 191.904C60.7194 191.864 61.0255 191.844 61.332 191.844C61.194 191.746 61.0345 191.682 60.8667 191.658C60.6989 191.633 60.5276 191.649 60.3672 191.704C59.8085 191.828 59.5029 192.22 59.5632 192.248Z" fill="white"/>
<path d="M57.846 189.296C58.2561 189.057 58.6834 188.848 59.1244 188.672C59.5858 188.561 60.0547 188.483 60.5273 188.44C60.0449 188.314 59.5363 188.328 59.0613 188.479C58.5864 188.631 58.1648 188.914 57.846 189.296Z" fill="white"/>
<path d="M57.8575 186.46C57.8575 186.52 58.4043 186.336 59.0635 186.356C59.7228 186.376 60.2695 186.568 60.2695 186.512C59.9059 186.285 59.4875 186.161 59.0587 186.152C58.6298 186.143 58.2065 186.249 57.8334 186.46H57.8575Z" fill="white"/>
<path d="M58.0238 183.74C58.4374 183.636 58.8634 183.587 59.2901 183.596C59.7089 183.673 60.1148 183.808 60.4961 183.996C60.4961 183.976 60.4157 183.856 60.2107 183.716C59.9356 183.543 59.6237 183.437 59.2999 183.405C58.9761 183.373 58.6492 183.416 58.3454 183.532C58.1283 183.612 58.0117 183.716 58.0238 183.74Z" fill="white"/>
<path d="M59.31 183.076C59.35 182.965 59.3624 182.845 59.3461 182.728C59.338 182.404 59.2627 182.086 59.1251 181.792C59.0455 181.568 58.8945 181.375 58.6949 181.244C58.624 181.21 58.5447 181.198 58.4668 181.209C58.3889 181.219 58.3159 181.253 58.2567 181.304C58.1524 181.413 58.0898 181.554 58.0798 181.704C58.0804 182.018 58.1913 182.321 58.3933 182.561C58.5952 182.802 58.8755 182.964 59.1853 183.02C59.4946 183.075 59.8135 183.037 60.1003 182.909C60.3872 182.781 60.6287 182.57 60.7933 182.304C60.8347 182.238 60.8611 182.164 60.8708 182.086C60.8805 182.009 60.8733 181.93 60.8496 181.856C60.8151 181.786 60.7604 181.727 60.6925 181.687C60.6246 181.647 60.5464 181.628 60.4677 181.632C60.2348 181.668 60.0155 181.764 59.8326 181.912C59.5656 182.096 59.3341 182.327 59.1492 182.592C59.0205 182.78 58.9763 182.896 58.9884 182.904C59.2508 182.569 59.5625 182.275 59.913 182.032C60.0768 181.91 60.2691 181.832 60.4718 181.804C60.515 181.799 60.5587 181.808 60.5964 181.829C60.6341 181.851 60.6637 181.884 60.6808 181.924C60.6929 181.974 60.6945 182.025 60.6855 182.076C60.6765 182.126 60.6571 182.174 60.6285 182.216C60.4771 182.44 60.2635 182.616 60.0138 182.722C59.7641 182.827 59.4889 182.859 59.2215 182.812C58.9606 182.763 58.7243 182.626 58.5513 182.426C58.3782 182.225 58.2786 181.972 58.2688 181.708C58.2698 181.601 58.3098 181.497 58.3813 181.416C58.4128 181.386 58.4533 181.366 58.4967 181.361C58.5401 181.355 58.5842 181.363 58.6226 181.384C58.7902 181.494 58.9205 181.651 58.9964 181.836C59.1745 182.228 59.2806 182.648 59.31 183.076Z" fill="white"/>
<path d="M86.5366 113.612C87.2521 116.8 87.4892 120.075 87.2401 123.332C87.0793 125.392 80.0885 182.428 80.0885 182.428H70.6495L73.3027 128.828L72.5269 128.992C72.5269 128.992 67.3773 151.856 66.9552 155.556C66.5773 158.884 62.2317 183.056 62.2317 183.056L53.6007 183.152L56.3544 151.184L59.5704 120.504L60.7764 111.576L86.5366 113.612Z" fill="#263238"/>
<path d="M71.83 123.352C71.9543 123.443 72.0893 123.518 72.232 123.576C72.6025 123.76 72.9958 123.894 73.4018 123.976C73.6901 124.029 73.9858 124.029 74.2741 123.976C74.613 123.921 74.9286 123.77 75.1826 123.54C75.4479 123.275 75.6379 122.945 75.7334 122.584C75.8459 122.216 75.9103 121.836 75.9866 121.452C76.2881 119.904 76.4932 118.492 76.6097 117.452C76.67 116.94 76.7102 116.524 76.7303 116.252C76.7461 116.102 76.7461 115.95 76.7303 115.8C76.6852 115.944 76.6556 116.093 76.6419 116.244C76.5937 116.568 76.5293 116.972 76.457 117.444C76.3042 118.464 76.0791 119.868 75.7776 121.412C75.6248 122.172 75.5203 122.948 75.0419 123.412C74.8196 123.599 74.558 123.734 74.2762 123.808C73.9945 123.881 73.6998 123.891 73.4138 123.836C73.015 123.766 72.6253 123.652 72.2521 123.496C72.116 123.435 71.9748 123.387 71.83 123.352Z" fill="#455A64"/>
<path d="M74.6711 116.084C74.6711 116.084 74.6108 116.036 74.4781 116.028C74.2881 116.02 74.1016 116.08 73.9515 116.196C73.8332 116.278 73.7355 116.386 73.6658 116.511C73.5961 116.637 73.5563 116.777 73.5495 116.92C73.558 117.102 73.6199 117.277 73.7277 117.424C73.8354 117.571 73.9842 117.683 74.1556 117.747C74.3269 117.81 74.5132 117.822 74.6914 117.781C74.8695 117.74 75.0316 117.648 75.1575 117.516C75.2464 117.405 75.3089 117.275 75.3402 117.137C75.3716 116.998 75.3709 116.854 75.3384 116.716C75.2984 116.532 75.198 116.366 75.053 116.244C74.9444 116.164 74.8721 116.152 74.8681 116.16C75.039 116.314 75.1547 116.519 75.1977 116.744C75.2168 116.86 75.211 116.979 75.1805 117.093C75.15 117.207 75.0956 117.313 75.0208 117.404C74.9199 117.502 74.7918 117.569 74.6529 117.594C74.514 117.62 74.3706 117.604 74.2409 117.548C74.1057 117.506 73.9865 117.425 73.8989 117.314C73.8113 117.203 73.7596 117.069 73.7505 116.928C73.7519 116.811 73.7792 116.695 73.8307 116.589C73.8821 116.483 73.9563 116.39 74.048 116.316C74.2252 116.174 74.4437 116.093 74.6711 116.084Z" fill="#455A64"/>
<path d="M113.196 79.9316L108.232 81.6716L102.809 88.6636L104.288 91.1116L105.755 89.7996C105.755 89.7996 111.339 88.8076 111.737 88.0516C111.852 87.8323 111.907 87.5871 111.897 87.3402C111.887 87.0932 111.812 86.8531 111.681 86.6436C111.814 86.1635 111.829 85.6587 111.725 85.1716C111.688 84.9968 111.603 84.8356 111.479 84.7058C111.356 84.5759 111.199 84.4824 111.025 84.4356C111.115 84.3953 111.195 84.3376 111.261 84.2657C111.327 84.1939 111.378 84.1095 111.411 84.0177C111.443 83.9258 111.457 83.8283 111.451 83.731C111.445 83.6337 111.419 83.5387 111.375 83.4516C111.321 83.2508 111.22 83.0656 111.081 82.9112C110.941 82.7568 110.766 82.6377 110.571 82.5636C110.571 82.5636 113.9 81.0556 114.189 80.6276C114.232 80.5631 114.251 80.4863 114.245 80.4094C114.238 80.3325 114.206 80.26 114.153 80.2036C114.043 80.0638 113.891 79.9622 113.719 79.9133C113.547 79.8645 113.364 79.8709 113.196 79.9316Z" fill="#FFBF9D"/>
<path d="M101.958 87.2116L102.959 85.8716L105.126 82.1316L109.95 80.8916C109.95 80.8916 110.754 81.2556 109.64 82.6276C109.322 83.0229 108.908 83.3307 108.436 83.5218C107.965 83.7129 107.452 83.781 106.947 83.7196C106.947 83.7196 107.289 86.7036 106.436 88.0356C105.584 89.3676 103.285 89.4836 103.285 89.4836L101.958 87.2116Z" fill="#FFBF9D"/>
<path d="M106.492 88.2403C106.578 88.1526 106.649 88.0529 106.705 87.9443C106.874 87.6564 107.008 87.3505 107.107 87.0323C107.435 85.9618 107.387 84.8119 106.971 83.7723L106.894 83.9083L107.067 83.8803C107.697 83.8085 108.312 83.637 108.888 83.3723C109.369 83.1452 109.758 82.7613 109.99 82.2843C110.152 81.9673 110.205 81.6064 110.142 81.2563C110.127 81.128 110.077 81.0063 109.998 80.9043C109.998 80.9043 110.038 81.0323 110.066 81.2683C110.096 81.5998 110.026 81.9326 109.865 82.2243C109.63 82.6594 109.259 83.0063 108.808 83.2123C108.243 83.4565 107.646 83.6169 107.035 83.6883L106.866 83.7123L106.742 83.7323L106.79 83.8483C107.189 84.8509 107.253 85.9543 106.975 86.9963C106.843 87.4217 106.682 87.8374 106.492 88.2403Z" fill="#FF9A6C"/>
<path d="M110.891 84.584C110.724 84.6314 110.559 84.6874 110.397 84.752C110.079 84.868 109.617 85.008 109.05 85.22C108.736 85.3303 108.434 85.4724 108.15 85.644C107.972 85.741 107.831 85.8926 107.748 86.076C107.71 86.1802 107.699 86.292 107.715 86.4015C107.731 86.511 107.774 86.6148 107.84 86.704C107.966 86.8837 108.142 87.0228 108.347 87.104C108.564 87.1834 108.801 87.196 109.026 87.14C109.134 87.12 109.239 87.1 109.344 87.088C109.458 87.0712 109.571 87.0458 109.681 87.012C109.902 86.952 110.115 86.876 110.332 86.796L110.907 86.58L110.843 86.396C110.453 86.5476 110.084 86.7478 109.746 86.992L109.259 87.308C109.093 87.3993 108.934 87.5008 108.781 87.612C108.7 87.6718 108.633 87.7488 108.586 87.8373C108.539 87.9259 108.512 88.0238 108.507 88.124C108.507 88.2274 108.542 88.3277 108.608 88.408C108.671 88.4796 108.751 88.5345 108.841 88.568C109.13 88.6719 109.439 88.7128 109.746 88.688C110.176 88.6441 110.597 88.5363 110.996 88.368C111.145 88.3196 111.288 88.2539 111.422 88.172C111.268 88.202 111.118 88.2448 110.972 88.3C110.573 88.4355 110.158 88.5202 109.737 88.552C109.453 88.5688 109.168 88.5252 108.901 88.424C108.837 88.4044 108.78 88.3647 108.739 88.3107C108.699 88.2568 108.677 88.1913 108.676 88.124C108.682 88.0492 108.704 87.9766 108.742 87.9116C108.78 87.8465 108.831 87.7906 108.893 87.748C109.042 87.6444 109.196 87.5496 109.356 87.464L109.85 87.152C110.177 86.9211 110.531 86.7291 110.903 86.58L110.843 86.396L110.264 86.612C110.051 86.688 109.838 86.764 109.629 86.824C109.528 86.8551 109.424 86.8792 109.319 86.896C109.207 86.896 109.094 86.932 108.99 86.952C108.802 87.0028 108.602 86.9944 108.419 86.928C108.246 86.8602 108.097 86.7416 107.993 86.588C107.941 86.5229 107.906 86.4462 107.892 86.3645C107.877 86.2829 107.883 86.1989 107.908 86.12C107.979 85.9703 108.094 85.8459 108.238 85.764C108.511 85.5939 108.799 85.4493 109.098 85.332C109.653 85.108 110.111 84.932 110.421 84.808C110.587 84.7548 110.745 84.6794 110.891 84.584Z" fill="#FF9A6C"/>
<path d="M110.518 82.6045C110.16 82.6622 109.814 82.777 109.493 82.9445C109.135 83.1065 108.789 83.295 108.46 83.5085C108.271 83.6285 108.082 83.7605 107.893 83.9085C107.775 83.9791 107.672 84.073 107.592 84.1845C107.512 84.2959 107.456 84.4225 107.427 84.5565C107.424 84.6321 107.439 84.7073 107.469 84.7766C107.5 84.8458 107.546 84.9073 107.603 84.9565C107.709 85.049 107.838 85.11 107.977 85.1325C108.215 85.1667 108.456 85.1667 108.693 85.1325C109.081 85.0782 109.465 84.998 109.843 84.8925C110.199 84.8176 110.541 84.6823 110.852 84.4925C110.852 84.4685 110.45 84.6045 109.81 84.7405C109.435 84.8266 109.055 84.8921 108.673 84.9365C108.454 84.9665 108.232 84.9665 108.013 84.9365C107.808 84.9045 107.611 84.7445 107.611 84.5365C107.675 84.3222 107.819 84.1403 108.013 84.0285C108.194 83.8845 108.379 83.7485 108.56 83.6285C108.878 83.4112 109.21 83.2148 109.553 83.0405C110.152 82.7725 110.526 82.6325 110.518 82.6045Z" fill="#FF9A6C"/>
<path d="M92.7714 91.0885L89.1252 76.8445L82.2068 72.6045L85.1374 97.0045L85.8891 98.8605C87.67 102.636 91.5654 102 94.9985 100.328C95.1191 100.268 95.2397 100.208 95.3562 100.144L105.406 92.4325L102.086 86.7285L92.7714 91.0885Z" fill="#FF725E"/>
<path d="M91.6627 95.4279C91.727 95.4279 91.7471 94.4159 92.0848 93.2279C92.4225 92.0399 92.925 91.1599 92.8888 91.1279C92.4211 91.7341 92.0881 92.4321 91.9119 93.1759C91.6677 93.9002 91.5827 94.6682 91.6627 95.4279Z" fill="#263238"/>
<path d="M82.1965 71.3437C83.9975 71.4557 87.2577 72.5437 88.6285 75.0997C89.7823 77.2437 90.0958 86.4117 90.1602 86.6277L86.6869 87.5237L82.2649 94.0517L64.1025 90.0117L62.9649 92.8597L62.2694 72.4597C62.2694 72.4597 80.4036 71.2357 82.1965 71.3437Z" fill="#FF725E"/>
<path d="M61.1073 102.188L59.7163 82.6963L60.0379 73.4483L68.5322 69.7243L69.3764 66.4883L78.1681 70.6243L80.0013 68.6003L80.7731 70.8843L82.6987 71.5083L87.189 79.1363L87.1207 91.9003C87.1207 91.9003 87.595 107.5 87.2172 112.908C87.1948 113.237 87.0753 113.553 86.8736 113.815C86.6719 114.076 86.3971 114.273 86.0835 114.38C84.5209 114.858 82.8943 115.097 81.2595 115.088C72.4155 115.3 60.3555 114.744 60.3555 114.744L60.2309 114.344C59.8859 113.269 59.7843 112.131 59.9334 111.012L61.1073 102.188Z" fill="#FF725E"/>
<path d="M79.3283 74.9482C79.2037 74.4602 79.1072 74.0722 79.0348 73.7842C78.9987 73.6642 78.9745 73.5642 78.9504 73.4842C78.9263 73.4042 78.9183 73.3802 78.9142 73.3842C78.9089 73.4187 78.9089 73.4537 78.9142 73.4882L78.9745 73.7962C79.0389 74.0842 79.1193 74.4762 79.2278 74.9682C79.4489 75.9882 79.7785 77.4602 80.1444 79.2842C80.5102 81.1082 80.9122 83.2842 81.1855 85.7402C81.4589 88.1962 81.5353 90.8962 81.5875 93.7402C81.6438 99.4242 81.4951 104.576 81.3946 108.3C81.3463 110.148 81.3021 111.648 81.274 112.7C81.274 113.204 81.2539 113.608 81.2499 113.9V114.212C81.2437 114.248 81.2437 114.284 81.2499 114.32C81.254 114.286 81.254 114.251 81.2499 114.216C81.2499 114.131 81.2579 114.027 81.274 113.904C81.274 113.608 81.3102 113.208 81.3383 112.704C81.3865 111.64 81.4549 110.14 81.5353 108.304C81.676 104.576 81.8529 99.4282 81.7926 93.7362C81.7604 90.8882 81.6639 88.1722 81.3906 85.7122C81.1172 83.2522 80.679 81.0722 80.2971 79.2482" fill="#263238"/>
<path d="M69.3723 66.4883C69.3723 66.4883 70.3532 66.7723 72.8778 68.1123C75.4023 69.4523 78.1641 70.6243 78.1641 70.6243L77.951 74.5763L68.5924 69.9043" fill="#FF725E"/>
<path d="M80.0052 68.5996L78.164 70.6236L79.1489 74.8596L80.7891 71.0316" fill="#FF725E"/>
<g opacity="0.3">
<path d="M78.198 71.0645C78.2784 71.1245 78.793 75.9485 78.793 75.9485L69.4143 70.3125L77.9528 74.5765L78.198 71.0645Z" fill="black"/>
</g>
<path d="M78.0784 70.5918C78.0784 70.5918 78.2593 70.8998 78.5568 71.3918C78.8543 71.8838 79.2442 72.5918 79.6181 73.3918L79.7106 73.5838L79.7668 73.7078L79.8271 73.5838C80.1319 72.9444 80.3937 72.2856 80.611 71.6118C80.6914 71.3558 80.7477 71.1438 80.7839 70.9998C80.8088 70.9261 80.8237 70.8494 80.8281 70.7718C80.7126 71.0326 80.612 71.2997 80.5266 71.5718C80.3417 72.0758 80.0683 72.7718 79.7226 73.5158H79.8392L79.7508 73.3238C79.4276 72.641 79.0583 71.9808 78.6453 71.3478C78.4845 71.1038 78.3518 70.9158 78.2433 70.7838C78.1971 70.7129 78.1416 70.6483 78.0784 70.5918Z" fill="#263238"/>
<path d="M68.5294 69.7236C68.5689 69.7542 68.6121 69.7797 68.658 69.7996L69.0359 69.9956L70.4348 70.7156C71.6127 71.3276 73.2287 72.1956 75.0176 73.1476C76.1071 73.7276 77.1402 74.2596 78.0367 74.7076L78.1211 74.7476V74.6596C78.1211 73.4996 78.1412 72.5236 78.1492 71.8156V71.0156C78.1586 70.9212 78.1586 70.8261 78.1492 70.7316C78.1431 70.8262 78.1431 70.9211 78.1492 71.0156C78.1492 71.2156 78.1291 71.4836 78.1171 71.8156C78.097 72.5196 78.0728 73.4956 78.0407 74.6556L78.1251 74.6076C77.2327 74.1516 76.2035 73.6116 75.1141 73.0316C73.3252 72.0836 71.7011 71.2236 70.5112 70.6316C69.9163 70.3356 69.4298 70.1036 69.0962 69.9476L68.6942 69.7716C68.6421 69.7472 68.5865 69.731 68.5294 69.7236Z" fill="#263238"/>
<path d="M87.356 83.3242C87.3035 83.3242 87.2591 87.0122 87.2591 91.5562C87.2591 96.1002 87.3035 99.7882 87.356 99.7882C87.4086 99.7882 87.457 96.1002 87.457 91.5562C87.457 87.0122 87.4126 83.3242 87.356 83.3242Z" fill="#263238"/>
<path d="M79.3376 71.3124C79.4852 70.4244 79.5257 69.522 79.4582 68.6244C79.4582 68.6244 78.8431 66.8844 78.9356 66.5764C79.028 66.2684 79.1808 65.9364 79.7959 66.2404C80.1844 66.3952 80.5252 66.6489 80.7841 66.976C81.043 67.3032 81.211 67.6923 81.2712 68.1044C81.2929 68.5717 81.3753 69.0342 81.5164 69.4804L82.0993 68.5924L81.9747 67.6764C81.9747 67.6764 81.1104 67.4604 81.0822 67.0004C81.3607 66.777 81.652 66.57 81.9546 66.3804C81.9546 66.3804 83.5103 66.4564 83.6671 67.0364C83.8239 67.6164 84.2179 68.8684 84.2179 68.8684C84.2179 68.8684 85.5083 69.0844 85.661 70.1204C85.661 70.1204 86.3967 71.1004 86.3686 71.7204C86.5897 72.114 86.715 72.5538 86.7344 73.0044C86.7062 73.5844 85.0178 76.0284 85.0178 76.0284L84.5475 79.5044L79.7597 78.2644L80.0732 74.7764C80.0732 74.7764 79.0924 72.5644 79.3376 71.3124Z" fill="#FFBF9D"/>
<path d="M79.3347 71.2876C79.3113 71.3646 79.2951 71.4436 79.2865 71.5236C79.2631 71.7564 79.2631 71.9909 79.2865 72.2236C79.4071 73.0993 79.6493 73.9541 80.0061 74.7636V74.7356C79.9136 75.7116 79.801 76.8916 79.6724 78.2236V78.2836H79.7327L84.5205 79.5396L84.617 79.5676V79.4676C84.7698 78.3676 84.9266 77.1996 85.0914 75.9916V76.0316C85.5255 75.3956 85.9637 74.7356 86.3657 74.0316C86.4662 73.8556 86.5627 73.6716 86.6552 73.4836C86.7607 73.2901 86.8211 73.0755 86.832 72.8556C86.7912 72.4217 86.6538 72.0022 86.43 71.6276V71.6796C86.4274 71.4414 86.3725 71.2066 86.2692 70.9916C86.1167 70.6512 85.928 70.3281 85.7064 70.0276V70.0716C85.6463 69.7058 85.446 69.3775 85.1477 69.1556C84.8588 68.9546 84.5297 68.8182 84.1828 68.7556L84.2592 68.8236L83.6924 66.9596C83.612 66.7866 83.4682 66.6507 83.2904 66.5796C83.1423 66.5083 82.9875 66.4521 82.8281 66.4116C82.5197 66.3354 82.2047 66.2885 81.8874 66.2716H81.8593H81.8352L81.3528 66.5956L81.1156 66.7596L80.999 66.8476L80.9668 66.8796L80.9427 66.9036C80.9265 66.9241 80.918 66.9495 80.9186 66.9756V67.0636C80.9882 67.2607 81.1324 67.4229 81.3206 67.5156C81.4896 67.6083 81.6691 67.6808 81.8553 67.7316L81.7909 67.6556C81.8311 67.9676 81.8713 68.2756 81.9156 68.5716V68.5156L81.3367 69.4036H81.4814C81.3781 69.0602 81.3067 68.708 81.2683 68.3516C81.2591 67.9936 81.177 67.6412 81.0272 67.3156C80.6942 66.7408 80.1714 66.2984 79.5478 66.0636C79.4751 66.025 79.3941 66.0042 79.3117 66.003C79.2293 66.0017 79.1477 66.0201 79.0739 66.0564C79 66.0928 78.9359 66.1462 78.8869 66.2121C78.8378 66.278 78.8053 66.3547 78.792 66.4356C78.7618 66.5062 78.7494 66.5831 78.7558 66.6596C78.761 66.7308 78.7704 66.8016 78.784 66.8716C78.8121 67.0036 78.8403 67.1316 78.8764 67.2716C79.0091 67.7716 79.1619 68.2156 79.3026 68.6116C79.3564 69.2772 79.3564 69.946 79.3026 70.6116C79.2825 70.8396 79.2624 71.0116 79.2463 71.1276C79.2401 71.1848 79.2401 71.2424 79.2463 71.2996C79.2646 71.2449 79.278 71.1887 79.2865 71.1316C79.3106 71.0156 79.3428 70.8436 79.3709 70.6196C79.4433 69.9554 79.4581 69.2863 79.4151 68.6196C79.2825 68.2196 79.1377 67.7796 79.0131 67.2836C78.981 67.1596 78.9528 67.0356 78.9287 66.8836C78.9167 66.8202 78.9087 66.756 78.9046 66.6916C78.8999 66.6299 78.911 66.568 78.9368 66.5116C78.9476 66.4491 78.9732 66.39 79.0116 66.3393C79.0499 66.2886 79.0997 66.2477 79.1571 66.22C79.2144 66.1922 79.2776 66.1784 79.3413 66.1798C79.405 66.1811 79.4676 66.1975 79.5237 66.2276C80.1128 66.4556 80.6043 66.8796 80.9146 67.4276C81.0769 67.7331 81.1766 68.0675 81.208 68.4116C81.2411 68.7836 81.3138 69.151 81.4251 69.5076L81.4774 69.6636L81.5698 69.5196L82.1568 68.6356V68.6116V68.5796C82.1206 68.2796 82.0804 67.9756 82.0362 67.6636V67.6036H81.9759C81.8062 67.5585 81.6428 67.4927 81.4894 67.4076C81.3385 67.3383 81.2204 67.2136 81.1598 67.0596V67.0076H81.0794C81.0911 67.0036 81.1039 67.0036 81.1156 67.0076C81.1156 67.0076 81.1678 67.0396 81.1518 67.0436H81.1759L81.2844 66.9596L81.5176 66.7956L81.996 66.4756H81.9397C82.2435 66.4945 82.545 66.5414 82.8402 66.6156C83.1216 66.6916 83.4552 66.8116 83.5517 67.0436C83.7366 67.6516 83.9215 68.2716 84.1145 68.9036V68.9556H84.1748C84.4925 69.0245 84.7914 69.161 85.0512 69.3556C85.3133 69.5477 85.4882 69.8354 85.5376 70.1556V70.1796V70.1996C85.7522 70.4868 85.9342 70.7967 86.0803 71.1236C86.1696 71.3115 86.2188 71.5158 86.225 71.7236V71.7516V71.7796C86.4255 72.128 86.5476 72.5156 86.5828 72.9156C86.5716 73.1062 86.518 73.292 86.426 73.4596C86.3376 73.6396 86.2451 73.8156 86.1446 73.9916C85.7426 74.6876 85.3125 75.3516 84.8823 75.9916V76.0116C84.7215 77.2116 84.5688 78.4116 84.42 79.4916L84.5326 79.4156L79.7367 78.1916L79.793 78.2676C79.9056 76.9356 80.0061 75.7556 80.0905 74.7796C79.7288 73.9814 79.4734 73.1396 79.3307 72.2756C79.2871 71.9476 79.2885 71.6152 79.3347 71.2876Z" fill="#FF9A6C"/>
<path d="M80.4989 71.1765C80.7671 70.9066 80.9886 70.5944 81.1542 70.2525C81.3762 69.9427 81.541 69.5959 81.6406 69.2285C81.37 69.4988 81.1472 69.8125 80.9813 70.1565C80.7622 70.466 80.5989 70.8112 80.4989 71.1765Z" fill="#FF9A6C"/>
<g opacity="0.3">
<path d="M76.5977 98.7845C73.1144 98.7488 69.7444 97.5488 67.0293 95.3775C64.3141 93.2062 62.4115 90.1896 61.6272 86.8125L76.5977 98.7845Z" fill="black"/>
</g>
<path d="M79.6005 78.0724L76.0549 87.6484L65.9727 76.1004C65.9727 76.1004 61.5508 71.1524 59.4563 74.0684C57.3619 76.9844 58.4312 82.5124 59.7538 85.1364C60.9799 87.5764 74.8529 99.0244 76.9393 99.2564C79.0257 99.4884 81.5543 99.4724 82.9452 96.8564C84.3361 94.2404 87.3672 79.9204 87.3672 79.9204L79.6005 78.0724Z" fill="#FF725E"/>
<path d="M65.8391 75.9482C65.8391 75.9482 65.8954 76.0242 66.016 76.1682L66.5467 76.7842C67.025 77.3282 67.7125 78.1202 68.5928 79.1282L76.0097 87.5562L76.0982 87.6562L76.1464 87.5322C77.2157 84.6882 78.4137 81.5322 79.7001 78.1042L79.5916 78.1602L86.711 79.8682L86.6386 79.7602C86.3934 81.2122 86.1241 82.7442 85.8346 84.2962C85.3683 86.8322 84.8859 89.3042 84.3593 91.6762C84.0819 92.8762 83.8166 94.0242 83.4829 95.1442C83.3267 95.6911 83.1305 96.2258 82.896 96.7442C82.6445 97.2411 82.3132 97.6937 81.9151 98.0842C81.1233 98.823 80.0929 99.2569 79.0087 99.3082C78.4921 99.3445 77.9731 99.3244 77.461 99.2482C76.964 99.1862 76.4814 99.04 76.0339 98.8162C74.4113 97.9373 72.8709 96.9159 71.431 95.7642C68.7496 93.6962 66.6833 91.8882 65.2562 90.6402L63.6482 89.1882L63.2221 88.8082L63.0734 88.6842C63.0734 88.6842 63.1176 88.7362 63.2101 88.8242L63.6121 89.2242C63.9739 89.5682 64.5125 90.0682 65.2201 90.7042C66.6311 91.9722 68.6853 93.7962 71.3626 95.8802C72.0299 96.4042 72.7495 96.9322 73.5053 97.4802C74.2908 98.0431 75.1171 98.5471 75.9776 98.9882C76.44 99.2204 76.939 99.3719 77.4529 99.4362C77.9767 99.5172 78.5079 99.5401 79.0368 99.5042C80.1625 99.455 81.2334 99.0067 82.0558 98.2402C82.4698 97.8359 82.8146 97.3671 83.0769 96.8522C83.3189 96.32 83.5205 95.7705 83.6799 95.2082C84.0216 94.0842 84.2869 92.9162 84.5643 91.7322C85.0949 89.3562 85.5773 86.8802 86.0437 84.3402C86.3291 82.7882 86.5984 81.2562 86.8477 79.8002V79.7122L86.7552 79.6922L79.6358 77.9922H79.5554L79.5272 78.0722L75.9816 87.4762L76.1183 87.4482L68.6491 79.0482L66.5708 76.7322C66.3336 76.4722 66.1688 76.2722 66.02 76.1322C65.8713 75.9922 65.8391 75.9482 65.8391 75.9482Z" fill="#263238"/>
<path d="M60.6779 73.4878C61.4084 73.5264 62.1317 73.6512 62.8326 73.8598C63.5101 74.1304 64.1525 74.4809 64.7461 74.9038C64.2648 74.3212 63.6216 73.8927 62.8969 73.6718C62.1923 73.3913 61.4194 73.3272 60.6779 73.4878Z" fill="#263238"/>
<path d="M42.3281 55.2524L41.1221 52.8524C41.8624 50.8391 41.8192 48.6231 41.001 46.6399C40.1827 44.6567 38.6486 43.0497 36.7001 42.1348C34.7516 41.2199 32.5296 41.0632 30.4709 41.6956C28.4123 42.3279 26.6657 43.7035 25.5745 45.5521C24.4833 47.4006 24.1265 49.5884 24.574 51.6855C25.0216 53.7825 26.2412 55.6372 27.9932 56.885C29.7453 58.1327 31.9029 58.6834 34.0422 58.4286C36.1815 58.1739 38.1477 57.1323 39.5543 55.5084L42.3281 55.2524Z" fill="white"/>
<path d="M63.6731 27.4759C63.9545 27.5679 68.0147 32.9199 68.0147 32.9199C68.0147 32.9199 61.5827 28.8839 61.7877 29.1639C61.9927 29.4439 63.2952 34.0479 63.2952 34.0479L59.0501 32.5439L60.7465 40.8839L54.4512 34.3399L53.0764 38.3399L51.9709 33.8799L49.5187 39.7959C49.5187 39.7959 48.1961 33.3959 48.1961 33.6919C48.1961 33.9879 44.1399 38.9519 44.1399 38.9519L44.7067 33.5039L41.5912 36.0399V31.7839L37.2496 35.4959L38.3833 30.5839L33.2859 30.4919L36.5019 27.4879L29.8046 28.5199L34.3311 24.6679L31.2116 22.9839C31.2116 22.9839 35.2678 21.6679 34.9864 21.6679C34.705 21.6679 28.8519 18.8679 29.1333 18.9439C29.4147 19.0199 36.0235 18.9439 36.0235 18.9439C36.0235 18.9439 31.0227 12.5439 31.4005 12.8439C31.7784 13.1439 38.0979 15.5639 38.0979 15.5639L36.5904 11.1639L41.2134 13.3239C41.2134 13.3239 39.8144 6.53594 39.8144 6.81594C39.8144 7.09594 45.0846 11.7839 45.0846 11.7839L45.9328 7.74794L48.57 11.4119L50.0855 4.83594L51.593 11.5119L53.7638 7.75594L54.9899 12.3559L59.5124 8.58394L59.0501 13.7839C59.0501 13.7839 65.655 8.31994 65.5424 8.58394C65.4298 8.84794 62.238 14.6879 62.238 14.6879L66.0127 13.9359L63.5605 18.5399L70.2579 17.7879L65.068 20.6959L72.0508 22.7639L65.4459 23.5159L69.4096 26.9879L63.6731 27.4759Z" fill="#FF725E"/>
<path d="M63.6771 27.4763L69.4377 27.0363H69.5061L69.4538 26.9923L65.4981 23.5083L65.474 23.5803L72.0829 22.8363L72.3281 22.8083L72.0909 22.7403L65.1082 20.6643V20.7723L70.302 17.8683L70.5794 17.7123L70.2619 17.7483L63.5645 18.4923L63.6329 18.5963C64.3886 17.1843 65.2409 15.6123 66.0891 13.9963L66.1655 13.8563L66.0087 13.8883L62.2339 14.6363L62.3183 14.7483L64.059 11.5803L64.9474 9.94434L65.3936 9.11234C65.466 8.96834 65.5383 8.83634 65.6107 8.68034V8.64834C65.6165 8.63579 65.6195 8.62214 65.6195 8.60834C65.6195 8.59453 65.6165 8.58089 65.6107 8.56834C65.6107 8.54434 65.5785 8.54034 65.5544 8.53234C65.4539 8.53234 65.474 8.55634 65.4419 8.56434L65.3374 8.63234L65.1404 8.77234C63.1022 10.3203 61.0761 12.0043 58.9777 13.7203L59.1184 13.7923C59.2631 12.1923 59.4279 10.4323 59.5928 8.62834L59.6129 8.41634L59.448 8.55234L54.9175 12.3083L55.0622 12.3523C54.6884 10.9403 54.2582 9.35634 53.8562 7.75234L53.7959 7.53234L53.6834 7.72834L51.5126 11.4843L51.6854 11.5123C51.2191 9.44434 50.7045 7.16034 50.1779 4.84434L50.0855 4.44434L49.989 4.84434C49.5186 6.88834 49.0001 9.13634 48.4734 11.4163L48.6503 11.3803L46.0132 7.71634L45.8805 7.53234L45.8323 7.75634C45.571 9.00834 45.2775 10.3963 44.9841 11.7923L45.1489 11.7403C43.5128 10.2643 41.7882 8.75634 40.148 7.11634L40.0033 6.95634L39.939 6.87634C39.939 6.87634 39.8948 6.80834 39.9028 6.83634C39.9108 6.86434 39.9028 6.83634 39.9028 6.86434C39.9028 6.89234 39.9028 6.86434 39.9028 6.88434C39.9028 6.90434 39.7782 6.97234 39.738 6.88434V6.93234L39.7661 7.03634L39.8144 7.24834L40.0073 8.10434L40.3812 9.83234C40.6277 10.9923 40.8743 12.1577 41.1209 13.3283L41.2656 13.2163L36.6426 11.0563L36.4215 10.9523L36.4979 11.1803L38.0094 15.5803L38.1461 15.4483C36.3572 14.7523 34.508 14.0363 32.6427 13.2683L31.9472 12.9683C31.8307 12.9203 31.7181 12.8643 31.6055 12.8123L31.5291 12.7723H31.493C31.4663 12.7536 31.4363 12.7401 31.4045 12.7323C31.3442 12.7323 31.2799 12.7963 31.2879 12.8003C31.2858 12.8176 31.2858 12.8351 31.2879 12.8523C31.2879 12.8963 31.2879 12.8803 31.2879 12.8923V12.9243L31.3121 12.9683L31.3684 13.0523C31.6578 13.4763 31.9673 13.8803 32.2769 14.2883C32.9 15.0883 33.5231 15.9163 34.1542 16.7323L35.9431 18.9843L36.0275 18.8163L31.6055 18.8563C30.8739 18.8563 30.1422 18.8563 29.4186 18.8563H29.1734H29.1372C28.9121 19.0603 29.1372 19.0523 29.0689 19.0403L29.1091 19.0643L29.1734 19.1003L29.294 19.1603L29.7684 19.3843L30.7493 19.8603C32.0598 20.4803 33.3542 21.1123 34.6849 21.6723L34.8135 21.7203L34.8859 21.7443H34.926H34.9944C34.9808 21.743 34.9678 21.7383 34.9565 21.7306C34.9452 21.7229 34.9361 21.7125 34.9301 21.7003C34.9246 21.6807 34.9246 21.66 34.9301 21.6403C34.9302 21.6289 34.9328 21.6177 34.9376 21.6073C34.9425 21.597 34.9495 21.5878 34.9582 21.5803H34.9381L34.8818 21.6043L34.7612 21.6563L34.2587 21.8363L33.2417 22.1843L31.2317 22.8523L31.0025 22.9283L31.2116 23.0443L34.3271 24.7323V24.5643L29.7965 28.4163L29.5232 28.6483L29.8809 28.5923L36.5783 27.5603L36.4939 27.3843L33.2779 30.3923L33.101 30.5603H33.3462L38.4395 30.6523L38.3471 30.5323C37.9638 32.1963 37.5873 33.839 37.2174 35.4603L37.1491 35.7483L37.3742 35.5563L41.7118 31.8483L41.555 31.7723C41.555 33.2163 41.555 34.6163 41.555 36.0003V36.1963L41.7078 36.0723L44.8193 33.5363L44.6705 33.4563C44.4776 35.3203 44.2886 37.1243 44.1037 38.9003L44.0756 39.2043L44.2645 38.9683L46.367 36.3483L47.38 35.0523L47.8704 34.4003L48.1076 34.0683L48.2242 33.8963L48.2765 33.8083C48.298 33.7688 48.3155 33.7273 48.3287 33.6843C48.3287 33.6843 48.3287 33.6483 48.3287 33.6603C48.3305 33.6682 48.3305 33.6764 48.3287 33.6843C48.3609 33.7203 48.1679 33.7483 48.18 33.6843V33.7283L48.2081 33.8203L48.2524 34.0163L48.3408 34.4163C48.3971 34.6803 48.4574 34.9363 48.5136 35.2163C48.6222 35.7363 48.7348 36.2523 48.8433 36.7643C49.055 37.7883 49.2667 38.8003 49.4784 39.8003L49.5347 40.0643L49.6392 39.8163C50.4955 37.7483 51.3035 35.8163 52.0914 33.9003H51.9387L53.0482 38.3603L53.0844 38.5843L53.1688 38.3363C53.6633 36.9123 54.1055 35.6203 54.5436 34.3363L54.419 34.3643L60.7184 40.9043L60.8792 41.0683L60.8309 40.8443L59.1144 32.5323L59.038 32.6003L63.2871 34.0963L63.3836 34.1323L63.3555 34.0323C62.9816 32.7483 62.6238 31.5403 62.2741 30.4123C62.1816 30.1323 62.0932 29.8563 62.0048 29.5843C61.9608 29.4485 61.9098 29.315 61.852 29.1843V29.1603C61.852 29.1843 61.8239 29.2003 61.8158 29.1963H61.8359L61.9284 29.2403L62.1093 29.3363C62.5917 29.6043 63.05 29.8803 63.4922 30.1363C65.2529 31.2043 66.7524 32.1363 68.0187 32.9363L68.1634 33.0243L68.0589 32.8883C66.6197 31.0043 65.5424 29.6323 64.8429 28.7363C64.5148 28.272 64.136 27.8454 63.7133 27.4643L63.7937 27.5323C63.8419 27.5803 63.9103 27.6603 64.0067 27.7643C64.1876 27.9803 64.461 28.3083 64.8107 28.7563C65.5263 29.6563 66.5916 31.0363 68.0267 32.9283L68.0669 32.8843C66.8046 32.0843 65.3132 31.1483 63.5484 30.0843C63.1103 29.8163 62.652 29.5403 62.1696 29.2843L61.9847 29.1843L61.8842 29.1363H61.856H61.8199C61.8199 29.1363 61.7756 29.1603 61.7756 29.1803C61.77 29.1986 61.77 29.2181 61.7756 29.2363C61.8319 29.3523 61.8761 29.4923 61.9244 29.6363C62.0074 29.903 62.0959 30.179 62.1897 30.4643C62.5354 31.5923 62.8892 32.8003 63.259 34.0643L63.3233 34.0043L59.0822 32.4963L58.9857 32.4603V32.5603C59.5003 35.1003 60.0551 37.8523 60.6741 40.9003L60.7867 40.8443C58.8249 38.8003 56.7386 36.6243 54.4954 34.2923L54.415 34.2043L54.3748 34.3203L52.9959 38.3203H53.1447C52.7909 36.8963 52.4331 35.4403 52.0392 33.8563L51.9829 33.6203L51.8904 33.8443C51.0864 35.7403 50.2825 37.6923 49.4342 39.7603H49.591L48.9599 36.7203C48.8473 36.2083 48.7388 35.6923 48.6302 35.1723C48.574 34.9123 48.5136 34.6523 48.4574 34.3723L48.3689 33.9723L48.3247 33.7763L48.2966 33.6763V33.6203C48.2974 33.6124 48.2974 33.6043 48.2966 33.5963C48.2966 33.5403 48.1157 33.5683 48.1438 33.5963C48.1419 33.6083 48.1419 33.6204 48.1438 33.6323C48.0915 33.6323 48.2162 33.6323 48.184 33.6323H48.1358C48.1358 33.6323 48.1358 33.6643 48.1076 33.6883L48.0554 33.7723C48.0192 33.8283 47.983 33.8843 47.9428 33.9363L47.7096 34.2643L47.187 34.9843C46.8534 35.4163 46.5157 35.8443 46.174 36.2803L44.0715 38.8923L44.2324 38.9603C44.4173 37.1843 44.6062 35.3603 44.8032 33.5123L44.8233 33.2923L44.6504 33.4323L41.5349 35.9683L41.6877 36.0403C41.6877 34.6563 41.6877 33.2403 41.6877 31.8123V31.6083L41.5269 31.7403C40.1038 32.959 38.6566 34.195 37.1853 35.4483L37.3461 35.5443C37.7199 33.9203 38.0938 32.2803 38.4797 30.6163L38.5079 30.4963H38.3832L33.2899 30.4003L33.3542 30.5723L36.5702 27.5683L36.8074 27.3443L36.4818 27.3963L29.7684 28.4083L29.8488 28.5843L34.3793 24.7363L34.4919 24.6403L34.3632 24.5683L31.2477 22.8763V23.0643L33.2779 22.3963L34.2949 22.0483L34.8014 21.8643L34.9301 21.8123L34.9944 21.7843H35.0346L35.0667 21.7603C35.0875 21.7431 35.1011 21.7188 35.1048 21.6922C35.1085 21.6656 35.1021 21.6385 35.0869 21.6163C35.0666 21.592 35.0379 21.5763 35.0064 21.5723C35.0064 21.5723 35.0064 21.6803 35.0064 21.6123V21.5763H34.9823H34.926L34.8014 21.5283C33.4869 20.9723 32.1844 20.3283 30.8779 19.7203L29.901 19.2443L29.4146 19.0043L29.294 18.9443L29.2337 18.9123C29.2538 18.9123 29.1614 18.9963 29.1654 18.9963C29.1694 18.9963 29.1453 19.1163 29.1413 19.0923C29.2397 19.1073 29.3391 19.1154 29.4387 19.1163C30.1744 19.1403 30.902 19.1163 31.6337 19.1163L36.0557 19.0763H36.2687L36.1401 18.9123L34.3391 16.5843L32.4618 14.1443C32.1563 13.7443 31.8467 13.3443 31.5613 12.9163L31.5131 12.8403L31.4889 12.8043C31.4724 12.806 31.4569 12.8131 31.4447 12.8243H31.3764C31.3657 12.853 31.3508 12.88 31.3322 12.9043H31.3523L31.4005 12.9283L31.493 12.9803C31.6095 13.0323 31.7261 13.0923 31.8427 13.1403L32.5422 13.4403C34.4115 14.2083 36.2607 14.9283 38.0496 15.6243L38.2586 15.7043L38.1863 15.4923L36.6747 11.0923L36.534 11.2163L41.1731 13.3843L41.3621 13.4723L41.3179 13.2723C41.0726 12.1003 40.8234 10.9323 40.5782 9.77634L40.2043 8.04434L40.0114 7.18834L39.9591 6.97234L39.9309 6.86434V6.80834V6.76834V6.74034C39.8948 6.66434 39.7299 6.74034 39.7661 6.74034V6.76434C39.7661 6.81634 39.7661 6.80834 39.7661 6.82034C39.7988 6.90816 39.851 6.98747 39.9189 7.05234L40.0676 7.21634C41.7279 8.87634 43.4404 10.3763 45.0846 11.8523L45.2132 11.9683L45.2494 11.8003C45.5429 10.4003 45.8363 9.00034 46.0976 7.76034L45.9207 7.80034L48.5579 11.4603L48.6865 11.6363L48.7347 11.4243C49.2573 9.14434 49.7759 6.89634 50.2463 4.85234H50.0573C50.5839 7.16434 51.1025 9.44834 51.5689 11.5163L51.6251 11.7523L51.7457 11.5443C52.4975 10.2363 53.2452 8.94434 53.9125 7.78834L53.7437 7.76434C54.1698 9.36434 54.5919 10.9643 54.9497 12.3643L54.9899 12.5043L55.0984 12.4123L59.6249 8.65234L59.4802 8.57634C59.3154 10.3803 59.1546 12.1763 59.0099 13.7403V13.9483L59.1666 13.8163C61.2611 12.1003 63.2912 10.4123 65.3172 8.86834L65.5102 8.73234L65.6067 8.66834H65.6268C65.6268 8.66834 65.6268 8.68834 65.6268 8.61234C65.5987 8.61234 65.667 8.61234 65.5665 8.58834V8.61234C65.5062 8.74434 65.4258 8.89234 65.3574 9.01234L64.9112 9.84434L64.0268 11.4803L62.2902 14.6523L62.2098 14.7963L62.3746 14.7643L66.1494 14.0123L66.065 13.9043L63.5364 18.5203L63.4721 18.6403H63.6087L70.29 17.8683L70.2498 17.7483L65.064 20.6643L64.9434 20.7323L65.076 20.7723L72.0628 22.8283V22.7283L65.4579 23.4923H65.3655L65.4338 23.5523L69.4056 27.0203V26.9683L63.6771 27.4763Z" fill="#263238"/>
<path d="M56.657 20.11C56.5792 20.1105 56.5024 20.1275 56.4317 20.1596C56.361 20.1918 56.2979 20.2386 56.2466 20.2968C56.1953 20.355 56.157 20.4233 56.1342 20.4973C56.1114 20.5713 56.1046 20.6492 56.1143 20.726C56.1143 20.85 56.1344 21.194 56.1344 21.57C56.1344 22.434 56.0821 23.742 55.6841 23.742C55.2861 23.742 55.0892 21.946 55.0892 21.418C55.0948 21.3454 55.0851 21.2724 55.0606 21.2038C55.0361 21.1352 54.9974 21.0725 54.947 21.0197C54.8966 20.9669 54.8356 20.9252 54.768 20.8974C54.7004 20.8695 54.6277 20.8561 54.5545 20.858C54.4785 20.8515 54.402 20.8601 54.3295 20.8835C54.2569 20.9068 54.1899 20.9444 54.1321 20.994C54.0744 21.0436 54.0273 21.1042 53.9935 21.1722C53.9597 21.2402 53.94 21.3143 53.9354 21.39C53.9354 21.646 53.8671 23.686 53.445 23.686C53.0229 23.686 52.9545 21.038 52.9545 20.582C52.9613 20.5086 52.9525 20.4346 52.9286 20.3648C52.9047 20.295 52.8662 20.231 52.8158 20.177C52.7653 20.1231 52.704 20.0803 52.6357 20.0515C52.5675 20.0227 52.494 20.0086 52.4199 20.01C52.3404 20.0016 52.2599 20.0099 52.1838 20.0344C52.1077 20.0589 52.0377 20.0991 51.9782 20.1522C51.9187 20.2054 51.8711 20.2704 51.8384 20.3431C51.8058 20.4158 51.7889 20.4944 51.7887 20.574V20.714C51.7887 21.81 51.8692 25.202 53.5656 25.202C53.9113 25.202 54.3012 24.69 54.5384 24.002C54.7676 24.802 55.0691 25.238 55.8047 25.238C57.0429 25.238 57.1836 22.762 57.1836 21.41C57.1836 21.13 57.1635 20.826 57.1635 20.678C57.1517 20.5417 57.096 20.4129 57.0048 20.3105C56.9135 20.2082 56.7916 20.1379 56.657 20.11Z" fill="white"/>
<path d="M48.9408 25.2013C50.4323 25.2013 51.2242 24.0013 51.2242 22.6733C51.2387 22.341 51.1863 22.0093 51.07 21.6975C50.9537 21.3858 50.7758 21.1003 50.5469 20.858C50.318 20.6157 50.0427 20.4215 49.7372 20.2867C49.4317 20.1519 49.1021 20.0793 48.768 20.0733C48.4422 20.0721 48.1195 20.1358 47.8189 20.2605C47.5182 20.3853 47.2456 20.5685 47.0172 20.7996C46.7887 21.0306 46.609 21.3048 46.4885 21.606C46.3681 21.9071 46.3093 22.2292 46.3158 22.5533C46.3019 22.9016 46.36 23.2491 46.4866 23.5743C46.6131 23.8994 46.8054 24.1952 47.0514 24.4434C47.2975 24.6917 47.5921 24.887 47.9171 25.0173C48.2421 25.1477 48.5906 25.2103 48.9408 25.2013ZM48.8243 21.2013C49.0109 21.1948 49.1967 21.2279 49.3694 21.2985C49.5422 21.3691 49.6978 21.4755 49.826 21.6106C49.9542 21.7457 50.0519 21.9064 50.1128 22.0821C50.1737 22.2577 50.1962 22.4443 50.179 22.6293C50.1866 22.802 50.1591 22.9746 50.0982 23.1366C50.0373 23.2986 49.9442 23.4467 49.8245 23.5721C49.7048 23.6975 49.561 23.7977 49.4016 23.8666C49.2422 23.9355 49.0704 23.9718 48.8966 23.9733C48.5182 23.994 48.147 23.8646 47.8644 23.6134C47.5818 23.3622 47.4109 23.0097 47.3891 22.6333C47.3984 22.2582 47.5528 21.9011 47.8202 21.6366C48.0875 21.372 48.4472 21.2204 48.8243 21.2133V21.2013Z" fill="white"/>
<path d="M45.0158 20.1099C44.938 20.1105 44.8612 20.1274 44.7905 20.1596C44.7198 20.1918 44.6567 20.2385 44.6054 20.2967C44.5541 20.3549 44.5158 20.4232 44.493 20.4972C44.4702 20.5712 44.4634 20.6491 44.4731 20.7259C44.4731 20.8499 44.4932 21.1939 44.4932 21.5699C44.4932 22.4339 44.4409 23.7419 44.047 23.7419C43.653 23.7419 43.448 21.9459 43.448 21.4179C43.4543 21.3452 43.445 21.272 43.4207 21.2031C43.3965 21.1342 43.3578 21.0712 43.3073 21.0182C43.2568 20.9653 43.1955 20.9236 43.1276 20.896C43.0597 20.8684 42.9866 20.8554 42.9133 20.8579C42.8376 20.8514 42.7613 20.8601 42.689 20.8835C42.6166 20.9069 42.5498 20.9445 42.4924 20.9942C42.435 21.0438 42.3883 21.1044 42.3549 21.1724C42.3215 21.2404 42.3023 21.3144 42.2983 21.3899C42.2983 21.6459 42.2259 23.6859 41.8078 23.6859C41.3897 23.6859 41.3134 21.0379 41.3134 20.5819C41.3208 20.5084 41.3124 20.4341 41.2888 20.364C41.2651 20.294 41.2267 20.2297 41.1761 20.1756C41.1255 20.1215 41.0639 20.0787 40.9953 20.0501C40.9268 20.0216 40.853 20.0079 40.7787 20.0099C40.7011 20.005 40.6233 20.016 40.5501 20.042C40.4768 20.0681 40.4098 20.1088 40.3529 20.1616C40.2961 20.2145 40.2507 20.2783 40.2195 20.3492C40.1883 20.4201 40.1721 20.4965 40.1717 20.5739V20.7139C40.1717 21.8099 40.2521 25.2019 41.9445 25.2019C42.2902 25.2019 42.6802 24.6899 42.9214 24.0019C43.1465 24.8019 43.448 25.2379 44.1836 25.2379C45.4258 25.2379 45.5625 22.7619 45.5625 21.4099C45.5625 21.1299 45.5625 20.8259 45.5625 20.6779C45.5486 20.536 45.4871 20.4028 45.3879 20.2998C45.2888 20.1967 45.1577 20.1299 45.0158 20.1099Z" fill="white"/>
<path d="M59.9344 23.8948C59.8596 23.8893 59.7845 23.9006 59.7146 23.9277C59.6448 23.9548 59.5819 23.9972 59.5306 24.0517C59.4793 24.1061 59.441 24.1713 59.4183 24.2425C59.3957 24.3136 59.3893 24.3889 59.3997 24.4628C59.3836 24.6839 59.4535 24.9026 59.5949 25.0739C59.7363 25.2451 59.9384 25.3557 60.1595 25.3828C60.2323 25.3847 60.3047 25.3714 60.372 25.3438C60.4393 25.3162 60.5001 25.2748 60.5504 25.2225C60.6008 25.1702 60.6396 25.1079 60.6643 25.0398C60.6891 24.9716 60.6992 24.8991 60.6942 24.8268C60.7064 24.7159 60.6964 24.6036 60.6647 24.4966C60.6331 24.3895 60.5804 24.2897 60.5098 24.2031C60.4391 24.1164 60.3519 24.0445 60.2531 23.9916C60.1543 23.9387 60.046 23.9058 59.9344 23.8948ZM59.1585 20.4748C59.2303 21.2839 59.3647 22.0863 59.5605 22.8748C59.6168 23.1708 59.7736 23.6228 60.0831 23.6228C60.3927 23.6228 60.5052 23.0708 60.5052 21.7428C60.5052 20.8108 60.3082 20.0068 59.5846 20.0068C59.5249 20.0071 59.466 20.0198 59.4115 20.044C59.3569 20.0682 59.3081 20.1034 59.268 20.1475C59.2279 20.1915 59.1975 20.2433 59.1786 20.2997C59.1598 20.356 59.1529 20.4157 59.1585 20.4748Z" fill="white"/>
<path d="M56.0864 112.716C56.0864 112.896 56.8502 114.112 57.7869 115.58C57.7627 116.64 57.7547 117.032 57.7547 117.776C57.7547 118.088 57.819 118.576 58.4863 118.576C58.6747 118.578 58.8572 118.511 58.9983 118.387C59.1395 118.263 59.2292 118.091 59.2501 117.904C59.2501 117.504 59.1778 117.144 59.1778 115.708C59.218 115.66 59.2542 115.588 59.3024 115.532C59.8893 114.732 60.4602 113.932 60.9586 113.24C61.0085 113.176 61.0341 113.097 61.031 113.016C61.031 112.872 60.9506 112.02 60.227 112.02C59.8652 112.02 59.2783 112.784 58.4381 114.04C57.9396 113.312 57.4974 112.644 57.1236 112.14C57.0755 112.081 57.0142 112.033 56.9444 112.001C56.8746 111.969 56.7983 111.954 56.7216 111.956C56.5424 111.988 56.3801 112.081 56.2638 112.22C56.1475 112.36 56.0846 112.535 56.0864 112.716Z" fill="white"/>
<path d="M50.8633 113.08C50.8633 113.48 51 113.784 51.4261 113.784C51.5829 113.784 51.9206 113.744 52.1537 113.744C52.7407 113.696 53.4602 113.744 53.9668 113.704C53.9668 113.848 53.9668 114.016 53.9668 114.56C53.3437 114.56 52.6522 114.56 52.1537 114.56C51.5105 114.56 51.0563 114.656 51.0322 115.22C51.0197 115.328 51.0305 115.439 51.0638 115.543C51.0971 115.647 51.1522 115.743 51.2255 115.825C51.2987 115.906 51.3885 115.972 51.4889 116.016C51.5893 116.061 51.6981 116.084 51.808 116.084C52.2502 116.084 53.2231 116.108 53.9828 116.108V116.652C53.9828 116.74 53.9828 116.832 53.9828 116.96C53.2954 116.936 52.218 116.928 51.4743 116.928C51.3825 116.92 51.29 116.93 51.2023 116.959C51.1147 116.987 51.0338 117.033 50.9646 117.094C50.8954 117.154 50.8394 117.228 50.7998 117.311C50.7603 117.394 50.7381 117.484 50.7347 117.576C50.7347 118.496 52.7447 118.544 53.5487 118.544C53.7014 118.544 53.8542 118.544 54.6823 118.544C55.2532 118.544 55.418 118.112 55.418 117.56C55.418 117.392 55.3938 116.912 55.3938 113.096C55.3938 112.164 54.224 112.164 52.8934 112.164C52.3065 112.156 50.8633 112.204 50.8633 113.08Z" fill="white"/>
<path d="M46.483 117.656C46.4941 117.353 46.5209 117.052 46.5634 116.752C46.8448 116.752 47.2227 116.752 47.6368 116.752H48.5855C48.6393 117.15 48.6662 117.55 48.6659 117.952C48.6561 118.046 48.6667 118.141 48.6968 118.231C48.727 118.32 48.7761 118.403 48.8408 118.472C48.9055 118.541 48.9843 118.596 49.072 118.633C49.1597 118.669 49.2543 118.687 49.3493 118.684C49.4485 118.69 49.5479 118.677 49.6414 118.643C49.7349 118.61 49.8204 118.557 49.8926 118.489C49.9647 118.421 50.0219 118.339 50.0605 118.248C50.0992 118.157 50.1185 118.059 50.1171 117.96C50.1171 117.16 49.6749 111.924 47.3594 111.924C45.9604 111.924 45.4419 114.616 45.2971 115.556C45.1859 116.253 45.1294 116.958 45.1283 117.664C45.1369 117.847 45.2082 118.021 45.3303 118.158C45.4525 118.295 45.6182 118.386 45.7996 118.416C45.8966 118.417 45.9925 118.397 46.0812 118.358C46.1698 118.319 46.249 118.261 46.3137 118.189C46.3783 118.117 46.4268 118.033 46.456 117.941C46.4852 117.849 46.4944 117.752 46.483 117.656ZM48.3845 115.2C47.878 115.2 47.279 115.232 46.885 115.248H46.8207C46.9333 114.332 47.2227 113.836 47.5443 113.836C47.8659 113.836 48.1996 114.376 48.3845 115.2Z" fill="white"/>
<path d="M41.0042 114.752V114.56C41.0042 114.312 41.0283 113.872 41.0283 113.36C41.0283 112.716 40.9077 111.98 40.3127 111.98C39.7178 111.98 39.5771 112.412 39.5771 112.96V113.008C39.5771 113.16 39.5972 113.856 39.5972 117.672C39.5939 117.78 39.6123 117.886 39.6513 117.986C39.6902 118.086 39.749 118.177 39.8239 118.254C39.8989 118.331 39.9887 118.392 40.0878 118.433C40.187 118.475 40.2935 118.497 40.4012 118.496C40.9238 118.496 41.0524 117.984 41.0524 117.344V116.244H42.8493C42.8493 116.492 42.8493 116.752 42.8493 117.044C42.8493 117.82 42.9297 118.608 43.5689 118.608C44.1317 118.608 44.3086 118.18 44.3086 117.636V117.58C44.3086 117.444 44.2845 116.868 44.2845 113.052C44.2845 112.838 44.2005 112.633 44.0503 112.48C43.9 112.326 43.6955 112.238 43.4805 112.232C42.9579 112.232 42.8292 112.752 42.8292 113.388C42.8292 113.884 42.9096 114.404 42.9096 114.74H42.0574C41.5951 114.74 41.3016 114.74 41.0042 114.752Z" fill="white"/>
<path d="M37.7091 116.58C37.6137 116.573 37.518 116.588 37.429 116.622C37.3399 116.657 37.2597 116.711 37.1943 116.78C37.1288 116.85 37.0797 116.933 37.0506 117.023C37.0214 117.114 37.0129 117.21 37.0257 117.304C37.0257 117.84 37.3875 118.48 37.9945 118.48C38.0877 118.483 38.1804 118.466 38.2666 118.43C38.3528 118.395 38.4306 118.342 38.495 118.275C38.5593 118.208 38.6089 118.128 38.6404 118.041C38.6719 117.953 38.6847 117.861 38.6779 117.768C38.6779 117.176 38.3242 116.58 37.7091 116.58ZM36.7202 112.22C36.7202 113 36.9453 113.8 37.2187 115.284C37.291 115.66 37.492 116.236 37.882 116.236C38.2719 116.236 38.4206 115.532 38.4206 113.836C38.4206 112.636 38.1714 111.624 37.2508 111.624C37.176 111.626 37.1024 111.644 37.0346 111.676C36.9668 111.707 36.9062 111.753 36.8565 111.808C36.8069 111.864 36.7692 111.929 36.7457 112C36.7223 112.071 36.7136 112.146 36.7202 112.22Z" fill="white"/>
<path d="M128.836 62.3398L128.442 66.6798H127.349V62.4278L128.836 62.3398Z" fill="white"/>
<path d="M101.394 12.248H122.358C122.917 12.2491 123.453 12.4708 123.848 12.8645C124.243 13.2582 124.465 13.7918 124.465 14.348V33.844C124.465 34.4003 124.243 34.9338 123.848 35.3276C123.453 35.7213 122.917 35.943 122.358 35.944H114.146C113.687 37.708 112.361 40.424 108.272 43.428C109.305 40.628 110.282 37.828 108.272 35.944H101.394C100.836 35.9409 100.303 35.7182 99.9095 35.3247C99.5163 34.9313 99.2956 34.3989 99.2956 33.844V14.348C99.2956 13.7932 99.5163 13.2608 99.9095 12.8673C100.303 12.4739 100.836 12.2512 101.394 12.248Z" fill="white"/>
<path d="M101.394 12.2483C101.185 12.2378 100.976 12.2635 100.775 12.3243C100.481 12.4117 100.21 12.5608 99.9788 12.7616C99.7479 12.9624 99.5629 13.2102 99.4365 13.4883C99.3511 13.6832 99.2942 13.8893 99.2677 14.1003C99.2436 14.3243 99.2677 14.5523 99.2476 14.7923C99.2476 15.2763 99.2476 15.8043 99.2476 16.3923C99.2476 17.5283 99.2476 18.8323 99.2476 20.2843C99.2476 23.1963 99.2476 26.6843 99.2275 30.6843C99.2275 31.6843 99.2275 32.7123 99.2275 33.7683C99.2097 34.3318 99.408 34.8809 99.7823 35.3043C99.9735 35.5191 100.205 35.6944 100.465 35.82C100.724 35.9456 101.006 36.0191 101.294 36.0363H108.301L108.232 36.0083C108.701 36.4409 109.039 36.995 109.209 37.6083C109.369 38.2354 109.405 38.8876 109.314 39.5283C109.086 40.8564 108.714 42.1561 108.204 43.4043L108.088 43.7203L108.361 43.5203C109.659 42.5791 110.847 41.4964 111.903 40.2923C113.005 39.0459 113.817 37.5719 114.278 35.9763L114.174 36.0563H121.856C122.081 36.0563 122.294 36.0563 122.531 36.0563C122.763 36.0377 122.991 35.9837 123.207 35.8963C123.637 35.7165 123.999 35.4074 124.244 35.0123C124.481 34.6196 124.594 34.1655 124.57 33.7083V32.4003C124.57 28.9603 124.57 25.6403 124.57 22.4803C124.57 20.8803 124.57 19.3563 124.57 17.8603C124.57 17.1123 124.57 16.3723 124.57 15.6443V14.5643C124.592 14.1979 124.531 13.8311 124.389 13.4923C124.244 13.1608 124.02 12.8701 123.735 12.646C123.45 12.422 123.114 12.2716 122.757 12.2083C122.416 12.1727 122.074 12.1606 121.731 12.1723H120.739H116.968L105.587 12.2043L102.492 12.2243H101.688H101.41C101.41 12.2243 101.503 12.2243 101.688 12.2243H102.492H105.587L116.968 12.2563H120.739H121.731C122.064 12.246 122.397 12.258 122.728 12.2923C123.059 12.3533 123.369 12.4949 123.632 12.7043C123.894 12.9136 124.1 13.1843 124.232 13.4923C124.361 13.8105 124.416 14.1538 124.393 14.4963V15.5763C124.393 16.3043 124.393 17.0443 124.393 17.7923C124.393 19.2883 124.393 20.8323 124.393 22.4123C124.393 25.5723 124.393 28.8923 124.393 32.3323V33.6283C124.417 34.0489 124.313 34.467 124.095 34.8283C123.874 35.1867 123.545 35.4667 123.155 35.6283C122.959 35.7062 122.753 35.7547 122.543 35.7723C122.338 35.7723 122.101 35.7723 121.884 35.7723H114.093L114.073 35.8483C113.623 37.4154 112.826 38.8626 111.742 40.0843C110.7 41.2788 109.525 42.3523 108.24 43.2843L108.397 43.4003C108.911 42.138 109.285 40.8235 109.511 39.4803C109.606 38.8127 109.568 38.133 109.398 37.4803C109.216 36.8394 108.86 36.2609 108.369 35.8083L108.341 35.7843H101.302C100.771 35.7831 100.262 35.5732 99.8868 35.2003C99.5398 34.8094 99.3558 34.3015 99.3722 33.7803C99.3722 32.7243 99.3722 31.6963 99.3722 30.6963C99.3722 26.6963 99.3722 23.1963 99.3521 20.2963C99.3521 18.8443 99.3521 17.5403 99.3521 16.4043C99.3521 15.8363 99.3521 15.3083 99.3521 14.8043C99.3521 14.5643 99.3521 14.3323 99.3521 14.1203C99.3995 13.721 99.5611 13.3437 99.8176 13.0332C100.074 12.7226 100.415 12.4918 100.799 12.3683C100.993 12.3078 101.192 12.2676 101.394 12.2483Z" fill="#263238"/>
<path d="M108.489 26.2639H110.362C110.362 26.4761 110.404 26.6861 110.487 26.8818C110.569 27.0775 110.689 27.255 110.841 27.4039C110.993 27.5528 111.173 27.6701 111.371 27.7491C111.569 27.8281 111.781 27.8671 111.994 27.8639C112.308 27.8756 112.618 27.7894 112.88 27.6173C113.143 27.4451 113.344 27.1957 113.457 26.9039C113.557 26.66 113.596 26.3962 113.573 26.134C113.55 25.8719 113.465 25.6189 113.325 25.3959C113.007 24.8759 112.312 24.4039 111.053 24.6239V20.4199H112.902V22.8759C113.663 23.0994 114.329 23.5653 114.797 24.202C115.266 24.8387 115.511 25.611 115.495 26.3999C115.495 29.1239 113.043 29.7559 111.994 29.7559C111.19 29.7439 108.456 29.5479 108.489 26.2639Z" fill="#FF725E"/>
<path d="M112.924 19.5557H111.047V17.8117H112.924V19.5557Z" fill="#FF725E"/>
<path d="M158.766 120.8C159.052 120.792 159.323 120.674 159.522 120.47C159.721 120.266 159.832 119.992 159.831 119.708C159.831 115.464 159.863 114.288 159.863 113.736C159.863 113.004 159.63 112.432 158.882 112.432C158.416 112.432 157.841 112.752 157.853 113.692C157.853 114.372 157.885 115.208 157.885 115.884C157.885 116.212 157.861 118.32 157.861 119.232C157.861 119.904 157.861 120.8 158.766 120.8Z" fill="white"/>
<path d="M46.4894 65.1554L45.3959 96.5154C45.346 97.8051 44.7961 99.0255 43.8614 99.9204C42.9268 100.815 41.6801 101.315 40.383 101.315H38.7107C38.7107 101.315 34.0595 108.351 25.4969 107.611C25.4969 107.611 30.5219 104.095 29.7782 99.8354H26.2326C25.5739 99.8354 24.9217 99.7063 24.3133 99.4553C23.7048 99.2044 23.152 98.8367 22.6865 98.3731C22.2209 97.9095 21.8518 97.3591 21.6001 96.7535C21.3484 96.1478 21.2191 95.4988 21.2196 94.8434V68.3034C21.2203 67.1658 21.6111 66.0625 22.3274 65.1759C23.0438 64.2892 24.0428 63.6724 25.1592 63.4274L40.4071 60.1154C41.153 59.9529 41.9263 59.9621 42.6681 60.1423C43.4099 60.3225 44.1005 60.6689 44.6872 61.1551C45.2739 61.6413 45.7413 62.2544 46.0536 62.9477C46.366 63.641 46.515 64.3961 46.4894 65.1554Z" fill="#455A64"/>
<path d="M34.2197 85.5797C32.9172 85.5797 32.2097 86.3797 32.2097 87.7237C32.2097 89.2997 33.275 91.1837 35.0759 91.1837C36.6357 91.1837 37.0859 89.9117 37.0859 89.0877C37.0819 87.3477 36.0407 85.5797 34.2197 85.5797ZM31.3052 72.7197C31.3052 75.0277 31.9685 77.3837 32.7725 81.7637C32.9855 82.8717 33.5765 84.5637 34.7383 84.5637C36.0649 84.5637 36.3262 82.4917 36.3262 77.4957C36.3262 73.9877 35.5905 70.9717 32.869 70.9717C31.9001 70.9757 31.3052 71.7997 31.3052 72.7197Z" fill="white"/>
<path d="M113.246 58.986C113.289 57.6481 113.754 56.3574 114.575 55.297C115.396 54.2366 116.532 53.4603 117.821 53.078C116.02 52.178 115.811 49.406 117.146 47.918C118.48 46.43 120.868 46.194 122.742 46.934C122.72 45.8431 123.089 44.7802 123.784 43.9363C124.479 43.0923 125.454 42.5228 126.533 42.33C127.613 42.1372 128.726 42.3337 129.673 42.8844C130.619 43.435 131.337 44.3036 131.698 45.334C131.925 44.7131 132.342 44.1792 132.892 43.8085C133.441 43.4378 134.094 43.2492 134.758 43.2696C135.422 43.29 136.062 43.5184 136.587 43.9221C137.112 44.3259 137.496 44.8844 137.684 45.518L138.858 44.782C139.842 43.7105 141.199 43.0513 142.653 42.9383C144.108 42.8252 145.551 43.2667 146.691 44.1732C147.83 45.0797 148.581 46.3834 148.79 47.82C149 49.2567 148.652 50.7188 147.818 51.91C149.161 52.3002 150.348 53.0996 151.21 54.1958C152.073 55.2919 152.568 56.6296 152.627 58.0206C152.686 59.4116 152.304 60.7858 151.537 61.9499C150.769 63.114 149.655 64.0094 148.349 64.51C149.35 66.198 149.061 68.474 147.855 70.026C147.226 70.7834 146.438 71.3944 145.546 71.816C144.654 72.2376 143.68 72.4595 142.693 72.466C141.725 72.4871 140.759 72.352 139.835 72.066C139.751 73.6208 139.259 75.1266 138.408 76.4329C137.556 77.7392 136.375 78.8002 134.982 79.51C135.559 77.3827 135.559 75.1413 134.982 73.014C134.631 73.1544 134.259 73.2381 133.881 73.262C133.157 73.2878 132.441 73.1019 131.821 72.7273C131.202 72.3526 130.706 71.8057 130.396 71.154C130.097 71.6334 129.666 72.0174 129.155 72.2602C128.643 72.5031 128.072 72.5945 127.51 72.5237C126.947 72.4529 126.417 72.2229 125.982 71.8609C125.547 71.499 125.226 71.0203 125.057 70.482C124.266 71.2625 123.22 71.734 122.109 71.8106C120.997 71.8872 119.896 71.5638 119.004 70.8993C118.113 70.2349 117.491 69.2737 117.252 68.1911C117.014 67.1085 117.174 65.9767 117.705 65.002C116.419 64.5943 115.296 63.7931 114.496 62.7128C113.695 61.6325 113.258 60.3282 113.246 58.986Z" fill="white"/>
<path d="M113.246 58.986C113.246 58.986 113.246 59.166 113.246 59.514C113.288 60.028 113.394 60.5347 113.564 61.022C113.844 61.8133 114.272 62.5448 114.826 63.178C115.586 64.0445 116.57 64.6865 117.672 65.034L117.644 64.966C117.211 65.7863 117.035 66.7173 117.141 67.638C117.251 68.6837 117.698 69.6659 118.416 70.438C119.243 71.2893 120.374 71.7821 121.563 71.81C122.209 71.8397 122.854 71.74 123.461 71.5166C124.067 71.2933 124.622 70.951 125.093 70.51L124.968 70.478C125.143 71.0298 125.474 71.5201 125.92 71.8909C126.367 72.2617 126.91 72.4975 127.487 72.5703C128.064 72.6431 128.65 72.5499 129.175 72.3018C129.701 72.0536 130.144 71.6608 130.452 71.17H130.303C130.693 71.9934 131.37 72.6483 132.208 73.014C132.645 73.2117 133.117 73.319 133.597 73.3293C134.077 73.3396 134.553 73.2527 134.998 73.074L134.878 73.014C135.45 75.127 135.45 77.353 134.878 79.466L134.821 79.674L135.014 79.574C136.392 78.8646 137.567 77.8185 138.427 76.534C139.325 75.194 139.845 73.6383 139.931 72.03L139.802 72.122C140.944 72.4886 142.15 72.6153 143.344 72.494C144.573 72.3652 145.748 71.9199 146.753 71.202C147.792 70.4644 148.539 69.3893 148.867 68.162C149.224 66.9116 149.07 65.5713 148.437 64.434L148.385 64.582C149.325 64.2041 150.171 63.6274 150.866 62.8919C151.56 62.1563 152.085 61.2795 152.405 60.322C152.703 59.4562 152.81 58.5367 152.718 57.626C152.627 56.7274 152.353 55.8566 151.914 55.066C151.473 54.2879 150.894 53.5954 150.206 53.022C149.517 52.4624 148.725 52.0425 147.874 51.786L147.931 51.942C149.663 49.382 148.944 45.67 146.56 43.942C145.382 43.1423 143.959 42.781 142.54 42.9215C141.121 43.0619 139.797 43.6951 138.801 44.71H138.821L137.647 45.446L137.792 45.502C137.601 44.8487 137.207 44.2724 136.666 43.8556C136.126 43.4388 135.466 43.2028 134.783 43.1815C134.099 43.1602 133.426 43.3546 132.861 43.737C132.295 44.1193 131.865 44.6699 131.633 45.31H131.798C131.523 44.5025 131.028 43.7867 130.368 43.2423C129.709 42.6978 128.911 42.3459 128.062 42.2257C127.214 42.1055 126.348 42.2217 125.562 42.5614C124.776 42.9011 124.1 43.451 123.61 44.15C123.006 44.9598 122.682 45.9419 122.685 46.95L122.785 46.878C121.685 46.4485 120.48 46.3593 119.328 46.622C118.267 46.8497 117.34 47.487 116.751 48.394C116.27 49.2328 116.127 50.222 116.349 51.162C116.435 51.5781 116.612 51.9703 116.867 52.311C117.122 52.6517 117.449 52.9327 117.825 53.134V53.046C116.706 53.3726 115.701 54.0029 114.922 54.866C114.356 55.4878 113.914 56.2114 113.62 56.998C113.447 57.4775 113.333 57.9756 113.278 58.482C113.278 58.826 113.278 58.998 113.278 58.998C113.278 58.998 113.278 58.826 113.322 58.486C113.384 57.9828 113.505 57.4887 113.684 57.014C113.983 56.2387 114.427 55.5263 114.991 54.914C115.765 54.0681 116.76 53.4532 117.865 53.138L117.986 53.106L117.877 53.05C117.512 52.851 117.195 52.5738 116.95 52.2383C116.706 51.9028 116.539 51.5174 116.462 51.11C116.251 50.1969 116.394 49.2381 116.864 48.426C117.44 47.5518 118.34 46.9405 119.368 46.726C120.492 46.4707 121.667 46.5613 122.737 46.986L122.842 47.026V46.918C122.84 45.9391 123.157 44.9861 123.746 44.202C124.355 43.3594 125.232 42.7462 126.235 42.462C128.281 41.89 130.837 43.11 131.645 45.33L131.726 45.562L131.81 45.33C132.031 44.7279 132.437 44.2105 132.971 43.8515C133.504 43.4925 134.138 43.3102 134.782 43.3306C135.425 43.351 136.046 43.573 136.556 43.9651C137.065 44.3571 137.437 44.8992 137.619 45.514L137.655 45.634L137.764 45.566L138.938 44.83C139.907 43.8632 141.185 43.264 142.551 43.1362C143.918 43.0083 145.286 43.3599 146.419 44.13C148.71 45.766 149.406 49.378 147.738 51.834L147.657 51.95L147.794 51.99C148.616 52.2412 149.382 52.6487 150.049 53.19C150.719 53.7504 151.281 54.4282 151.705 55.19C152.141 55.9533 152.414 56.7974 152.509 57.67C152.597 58.5498 152.493 59.438 152.204 60.274C151.895 61.2009 151.389 62.0505 150.719 62.7644C150.049 63.4783 149.233 64.0397 148.324 64.41L148.212 64.454L148.272 64.558C148.873 65.6499 149.017 66.933 148.674 68.13C148.355 69.31 147.635 70.3433 146.636 71.054C145.662 71.7549 144.519 72.1893 143.324 72.314C142.158 72.4334 140.981 72.3094 139.866 71.95L139.742 71.914V72.042C139.658 73.6124 139.153 75.1318 138.278 76.442C137.435 77.6982 136.286 78.7219 134.938 79.418L135.075 79.526C135.654 77.3827 135.654 75.1253 135.075 72.982L135.046 72.882L134.954 72.922C134.532 73.0925 134.079 73.1755 133.624 73.1658C133.168 73.1562 132.719 73.0542 132.305 72.866C131.504 72.5202 130.856 71.898 130.48 71.114L130.415 70.974L130.335 71.102C130.044 71.5683 129.625 71.9419 129.128 72.1783C128.63 72.4147 128.074 72.5042 127.527 72.4359C126.98 72.3677 126.464 72.1447 126.04 71.7934C125.617 71.4421 125.303 70.9773 125.137 70.454L125.101 70.338L125.012 70.422C124.558 70.8513 124.021 71.1851 123.434 71.4037C122.847 71.6222 122.222 71.7209 121.595 71.694C120.439 71.6702 119.338 71.1963 118.528 70.374C117.824 69.6178 117.386 68.6551 117.278 67.63C117.169 66.7317 117.334 65.8216 117.752 65.018L117.781 64.962H117.724C116.636 64.6259 115.662 63.9975 114.91 63.146C114.357 62.5236 113.926 61.8031 113.64 61.022C113.466 60.5401 113.352 60.0391 113.298 59.53C113.298 59.362 113.298 59.23 113.278 59.13C113.271 59.0813 113.26 59.0332 113.246 58.986Z" fill="#263238"/>
<path d="M123.529 42.4583C123.529 42.4903 123.907 42.2263 124.55 41.9343C124.926 41.7669 125.316 41.6331 125.716 41.5343C126.699 41.2919 127.723 41.2619 128.719 41.4463C129.13 41.5222 129.534 41.6346 129.925 41.7823C130.584 42.0343 130.954 42.2783 130.974 42.2423C130.994 42.2063 130.894 42.1623 130.729 42.0503C130.493 41.8933 130.243 41.7593 129.981 41.6503C129.594 41.475 129.19 41.3409 128.775 41.2503C127.753 41.0379 126.695 41.0694 125.688 41.3423C125.279 41.4527 124.883 41.6055 124.506 41.7983C124.25 41.9229 124.008 42.073 123.782 42.2463C123.601 42.3743 123.521 42.4463 123.529 42.4583Z" fill="#263238"/>
<path d="M116.813 69.4865C116.811 69.605 116.83 69.7229 116.869 69.8345C116.955 70.1437 117.073 70.4427 117.223 70.7265C117.713 71.684 118.497 72.4605 119.462 72.9427C120.427 73.4249 121.522 73.5874 122.586 73.4065C122.904 73.3561 123.216 73.2703 123.514 73.1505C123.629 73.1168 123.737 73.0626 123.832 72.9905C123.832 72.9545 123.358 73.1625 122.566 73.2585C121.533 73.3968 120.482 73.2228 119.55 72.7591C118.618 72.2954 117.848 71.5635 117.34 70.6585C116.958 69.9665 116.861 69.4745 116.813 69.4865Z" fill="#263238"/>
<path d="M112.561 54.3701C112.561 54.3701 112.485 54.4901 112.385 54.7261C112.243 55.0613 112.126 55.4062 112.035 55.7581C111.89 56.2825 111.788 56.8175 111.729 57.3581C111.661 58.0226 111.649 58.6916 111.693 59.3581C111.744 60.0181 111.851 60.6725 112.015 61.3141C112.149 61.838 112.325 62.3502 112.541 62.8461C112.683 63.1799 112.848 63.5033 113.036 63.8141C113.172 64.0341 113.249 64.1541 113.265 64.1461C113.281 64.1381 113.012 63.6341 112.678 62.7901C112.487 62.2943 112.328 61.7865 112.204 61.2701C112.054 60.6374 111.953 59.9942 111.902 59.3461C111.86 58.6972 111.867 58.046 111.922 57.3981C111.972 56.8689 112.058 56.3437 112.18 55.8261C112.385 54.9101 112.598 54.3821 112.561 54.3701Z" fill="#263238"/>
<path d="M114.241 52.554C114.241 52.554 114.144 52.418 113.923 52.482C113.86 52.5027 113.803 52.5371 113.755 52.5828C113.707 52.6284 113.669 52.6842 113.646 52.746C113.627 52.8017 113.62 52.8606 113.625 52.9192C113.63 52.9777 113.647 53.0346 113.675 53.0864C113.702 53.1383 113.741 53.1839 113.787 53.2206C113.833 53.2572 113.886 53.2842 113.943 53.2997C114 53.3152 114.059 53.319 114.118 53.3109C114.176 53.3027 114.232 53.2828 114.283 53.2523C114.333 53.2218 114.377 53.1814 114.411 53.1336C114.446 53.0857 114.47 53.0314 114.482 52.974C114.518 52.75 114.386 52.65 114.374 52.674C114.361 52.698 114.398 52.794 114.337 52.934C114.325 52.9756 114.302 53.0135 114.271 53.044C114.24 53.0746 114.201 53.0968 114.159 53.1088C114.117 53.1208 114.073 53.1221 114.03 53.1126C113.987 53.1031 113.948 53.0831 113.915 53.0544C113.882 53.0258 113.857 52.9893 113.842 52.9485C113.827 52.9077 113.822 52.8637 113.829 52.8207C113.835 52.7776 113.852 52.7369 113.879 52.7022C113.905 52.6675 113.94 52.6399 113.98 52.622C114.116 52.542 114.225 52.582 114.241 52.554Z" fill="#263238"/>
<path d="M128.979 52.5397C130.58 51.304 132.67 51.1113 134.153 51.1113C135.754 51.1113 138.468 51.2705 138.468 53.7712C138.468 56.3682 136.365 57.0175 134.643 57.5411C133.694 57.8259 132.91 58.0772 132.91 58.4919C132.91 58.7768 133.074 59.1412 133.074 59.3925C133.074 59.8993 132.82 60.2303 131.8 60.2303C130.78 60.2303 129.591 59.6438 129.591 58.2992C129.591 56.6237 131.553 56.0792 133.357 55.5891C134.6 55.2582 135.742 54.9566 135.742 54.4498C135.742 54.1817 134.675 54.1021 134.083 54.1021C132.647 54.0437 131.237 54.519 130.093 55.4467C129.945 55.6008 129.751 55.6954 129.544 55.7148C128.76 55.7148 128.418 54.4037 128.418 53.767C128.413 53.5293 128.461 53.2937 128.558 53.0801C128.656 52.8664 128.8 52.681 128.979 52.5397ZM131.725 60.6743C132.51 60.6743 132.969 61.2146 132.969 62.1152C132.969 63.1791 132.302 64.4441 131.176 64.4441C131.004 64.4493 130.833 64.416 130.675 64.3462C130.516 64.2765 130.372 64.1719 130.253 64.0392C130.135 63.9066 130.044 63.7488 129.986 63.5761C129.928 63.4034 129.904 63.2197 129.917 63.0367C129.929 61.8639 130.58 60.6743 131.737 60.6743H131.725Z" fill="#455A64"/>
</svg>
