<svg width="17" height="28" viewBox="0 0 17 28" fill="none" xmlns="http://www.w3.org/2000/svg">
<path d="M0.229554 12.9317C0.317254 13.4751 3.21428 13.1256 3.33883 13.1126H3.60119C4.28805 13.1126 4.63738 13.4232 4.63738 14.0437C4.63738 14.9748 4.59979 16.3715 4.53715 18.2467C4.47451 20.1089 4.43692 21.5055 4.43692 22.4367C4.43692 25.5531 6.40217 27.1092 10.3327 27.1052C12.1664 27.1289 13.9684 26.6082 15.5254 25.6047C15.5254 25.6047 16.115 25.1781 16.1997 25.1262C16.4997 24.8972 16.4746 24.092 16.4746 23.6906C16.4746 23.2892 16.5122 22.6565 16.4621 21.8673C16.4354 21.4281 16.4354 20.9877 16.4621 20.5485C16.4621 20.2379 16.325 20.0829 16.0376 20.0829C15.5857 20.1207 15.1383 20.203 14.7014 20.3287C14.3782 20.4084 14.0469 20.4474 13.7146 20.4447C12.6409 20.4447 12.2407 20.2638 11.8663 19.6555C11.547 18.8812 11.4142 18.0381 11.4794 17.1988C11.4794 16.8752 11.4669 16.3715 11.4544 15.6991V14.1963C11.4544 13.5759 11.5546 13.2805 11.7668 13.2805L13.3027 13.1126C13.5776 13.1126 14.0271 13.1256 14.6639 13.1385C15.3006 13.1645 15.4377 13.1775 15.7126 13.1775C16.0995 13.1775 16.2248 13.0248 16.3021 12.7379C16.3912 12.344 16.4162 11.9374 16.3758 11.5351C16.3758 10.8886 16.4635 10.2162 16.4635 9.87967C16.4635 9.55607 16.426 9.23324 16.3758 8.5868C16.3523 8.36782 16.3398 8.14772 16.3383 7.92739C16.3383 7.13824 15.9138 7.19014 15.689 7.15122C15.1792 7.09106 14.6656 7.07371 14.1531 7.09932C13.4279 7.0689 12.7059 6.98242 11.9931 6.84059C11.6062 6.77572 11.4035 6.49181 11.4035 5.80645C11.4035 5.2371 11.4536 4.37087 11.5406 3.23293C11.6275 2.09499 11.6651 1.24173 11.6651 0.672382C11.6651 0.452579 11.503 0.335809 11.1529 0.310624C9.70478 0.234303 8.93023 0.245752 8.19326 0.194617C7.89331 0.168668 7.19466 0.142719 6.39505 0.0908208C5.69567 0.038923 5.196 0 4.82162 0C4.52192 0 4.37207 0.814084 4.37207 2.44225C4.37207 2.35143 4.39712 2.57123 4.45976 4.38231C4.52009 4.97113 4.52009 5.5649 4.45976 6.15371C4.41297 6.37145 4.30512 6.57003 4.14976 6.72455C3.9944 6.87906 3.79843 6.98262 3.58646 7.02223C2.71241 7.04818 0.514762 7.12603 0.315043 7.53969C-0.0730639 9.31152 -0.102923 11.1474 0.227344 12.9317" fill="white"/>
</svg>
