<svg width="500" height="500" viewBox="0 0 500 500" fill="none" xmlns="http://www.w3.org/2000/svg">
<path d="M202.783 416.35L211.243 471.95H260.393L271.803 417.16L202.783 416.35Z" fill="#EBEBEB"/>
<path d="M264.934 452C264.934 452.16 252.334 452.29 236.804 452.29C221.274 452.29 208.674 452.16 208.674 452C208.674 451.84 221.264 451.71 236.804 451.71C252.344 451.71 264.934 451.82 264.934 452Z" fill="#FAFAFA"/>
<path d="M265.124 449.25C265.124 449.41 252.444 449.54 236.804 449.54C221.164 449.54 208.484 449.41 208.484 449.25C208.484 449.09 221.164 448.96 236.804 448.96C252.444 448.96 265.124 449.09 265.124 449.25Z" fill="#FAFAFA"/>
<path d="M265.025 446.16C265.025 446.32 252.345 446.45 236.705 446.45C221.065 446.45 208.385 446.32 208.385 446.16C208.385 446 221.065 445.87 236.705 445.87C252.345 445.87 265.025 446 265.025 446.16Z" fill="#FAFAFA"/>
<path d="M216.893 468.77C216.196 466.482 215.691 464.141 215.383 461.77C214.877 459.436 214.562 457.065 214.443 454.68C215.135 456.968 215.64 459.309 215.953 461.68C216.448 464.015 216.762 466.386 216.893 468.77Z" fill="#FAFAFA"/>
<path d="M220.235 468.18C219.731 463.635 219.421 459.071 219.305 454.5C219.836 456.737 220.137 459.022 220.205 461.32C220.458 463.599 220.468 465.899 220.235 468.18Z" fill="#FAFAFA"/>
<path d="M226.324 468.18C225.17 463.568 224.615 458.825 224.674 454.07C225.14 456.383 225.474 458.72 225.674 461.07C226.074 465 226.484 468.15 226.324 468.18Z" fill="#FAFAFA"/>
<path d="M230.604 468.48C230.14 466.135 229.912 463.75 229.924 461.36C229.75 458.975 229.823 456.579 230.144 454.21C230.401 456.578 230.521 458.958 230.504 461.34C230.673 463.716 230.706 466.1 230.604 468.48Z" fill="#FAFAFA"/>
<path d="M238.174 468.18C237.817 465.948 237.646 463.69 237.664 461.43C237.49 459.176 237.51 456.911 237.724 454.66C238.254 459.146 238.405 463.669 238.174 468.18Z" fill="#FAFAFA"/>
<path d="M243.715 468.479C243.44 466.157 243.36 463.815 243.475 461.479C243.402 459.141 243.519 456.799 243.825 454.479C244.093 456.803 244.17 459.144 244.055 461.479C244.127 463.818 244.014 466.159 243.715 468.479Z" fill="#FAFAFA"/>
<path d="M248.893 467.729C248.841 465.289 248.982 462.848 249.313 460.429C249.462 457.994 249.797 455.574 250.313 453.189C250.224 458.066 249.753 462.927 248.903 467.729H248.893Z" fill="#FAFAFA"/>
<path d="M255.584 467C255.801 462.816 256.696 458.696 258.234 454.8C257.933 456.859 257.512 458.899 256.974 460.91C256.62 462.963 256.156 464.996 255.584 467Z" fill="#FAFAFA"/>
<path d="M250.854 306.65L250.794 306.93C250.724 307.14 250.654 307.39 250.564 307.71L249.624 310.71C249.204 312.01 248.704 313.6 248.184 315.47C247.664 317.34 246.994 319.47 246.414 321.81C245.834 324.15 245.114 326.75 244.494 329.55C243.874 332.35 243.244 335.34 242.604 338.5C241.424 344.84 240.344 351.85 239.604 359.25C238.864 366.65 238.604 373.74 238.464 380.18C238.464 383.41 238.464 386.47 238.544 389.34C238.624 392.21 238.754 394.87 238.894 397.34C239.034 399.81 239.234 401.98 239.384 403.91C239.534 405.84 239.694 407.5 239.854 408.86C240.014 410.22 240.104 411.22 240.174 411.98C240.174 412.31 240.234 412.58 240.244 412.8C240.259 412.893 240.259 412.988 240.244 413.08C240.211 412.99 240.191 412.896 240.184 412.8C240.184 412.59 240.104 412.32 240.054 412C239.944 411.24 239.804 410.2 239.624 408.88C239.444 407.56 239.224 405.88 239.054 403.94C238.884 402 238.614 399.81 238.474 397.37C238.334 394.93 238.134 392.26 238.064 389.37C237.994 386.48 237.934 383.43 237.914 380.2C237.984 373.74 238.304 366.64 239.024 359.2C239.744 351.76 240.874 344.76 242.084 338.41C242.744 335.25 243.334 332.23 244.084 329.41C244.834 326.59 245.414 324.02 246.084 321.67C246.754 319.32 247.384 317.2 247.944 315.34C248.504 313.48 249.024 311.9 249.484 310.61C249.944 309.32 250.264 308.37 250.484 307.61C250.594 307.3 250.684 307.05 250.764 306.85C250.787 306.781 250.817 306.714 250.854 306.65Z" fill="#EBEBEB"/>
<path d="M241.975 341.079C243.328 337.07 246.032 333.656 249.625 331.42C250.835 330.67 252.375 330.059 253.625 330.679C255.335 331.509 255.475 333.919 254.965 335.759C254.08 338.871 252.107 341.561 249.405 343.339C247.007 345.113 244.006 345.868 241.055 345.439" fill="#EBEBEB"/>
<path d="M238.994 364.32C240.264 359.52 244.094 352.7 248.064 349.73C248.672 349.232 249.372 348.858 250.124 348.63C250.504 348.524 250.904 348.513 251.289 348.596C251.674 348.68 252.033 348.856 252.334 349.11C253.144 349.89 253.064 351.2 252.824 352.29C252.01 355.791 250.237 358.996 247.705 361.546C245.172 364.097 241.979 365.892 238.484 366.73" fill="#EBEBEB"/>
<path d="M238.174 384.78C240.144 380.197 243.303 376.223 247.324 373.27C247.754 372.878 248.257 372.576 248.804 372.38C249.352 372.184 249.933 372.099 250.514 372.13C252.254 372.45 253.044 374.57 252.884 376.33C252.574 379.95 249.804 382.85 246.954 385.1C243.884 387.52 238.484 389.45 238.484 389.45" fill="#EBEBEB"/>
<path d="M238.635 399.49C240.549 395.998 243.209 392.969 246.425 390.62C247.114 390.112 247.912 389.77 248.755 389.62C249.18 389.543 249.617 389.583 250.021 389.737C250.424 389.89 250.778 390.151 251.045 390.49C251.825 391.64 251.045 393.19 250.245 394.29C247.504 398.121 243.612 400.976 239.135 402.44" fill="#EBEBEB"/>
<path d="M238.243 393.52C234.892 389.401 231.166 385.601 227.113 382.17C226.473 381.64 225.683 381.08 224.893 381.33C224.6 381.457 224.349 381.666 224.172 381.932C223.994 382.199 223.898 382.51 223.893 382.83C223.881 383.475 224.025 384.113 224.313 384.69C225.643 387.649 227.623 390.27 230.106 392.358C232.589 394.445 235.51 395.947 238.653 396.75" fill="#EBEBEB"/>
<path d="M238.604 374.37L229.854 363.71C229.088 362.634 228.124 361.715 227.014 361C226.451 360.66 225.806 360.479 225.149 360.479C224.491 360.479 223.846 360.66 223.284 361C222.778 361.419 222.398 361.969 222.186 362.591C221.974 363.212 221.939 363.88 222.084 364.52C222.404 365.787 222.986 366.973 223.794 368C225.496 370.619 227.653 372.912 230.164 374.77C232.734 376.54 235.074 377.69 238.164 377.23" fill="#EBEBEB"/>
<path d="M239.814 352.82C238.1 347.716 235.064 343.158 231.014 339.61C230.382 338.969 229.592 338.507 228.724 338.27C226.964 337.93 225.274 339.4 224.724 341.09C224.449 342.058 224.378 343.072 224.516 344.069C224.653 345.066 224.997 346.023 225.524 346.88C226.596 348.589 227.996 350.067 229.644 351.23C232.589 353.484 235.873 355.257 239.374 356.48" fill="#EBEBEB"/>
<path d="M243.314 333.61C242.464 327.43 239.244 322.28 235.514 317.28C234.734 316.22 233.634 315.11 232.334 315.28C231.923 315.369 231.542 315.559 231.224 315.833C230.906 316.107 230.662 316.457 230.514 316.85C230.222 317.639 230.103 318.481 230.164 319.32C230.325 323.066 231.587 326.682 233.79 329.716C235.993 332.75 239.042 335.068 242.554 336.38" fill="#EBEBEB"/>
<path d="M245.765 323.799C245.359 320.63 245.252 317.429 245.445 314.239C245.641 311.03 246.74 307.941 248.615 305.329C249.418 304.206 250.52 303.33 251.795 302.799C252.435 302.543 253.13 302.456 253.813 302.547C254.496 302.638 255.145 302.904 255.695 303.319C256.159 303.755 256.52 304.289 256.75 304.883C256.98 305.477 257.074 306.115 257.025 306.749C256.912 308.019 256.573 309.259 256.025 310.409C253.695 316.019 249.815 322.229 245.755 323.799" fill="#EBEBEB"/>
<path d="M207.655 331.17C207.679 331.429 207.679 331.69 207.655 331.95C207.655 332.52 207.655 333.27 207.655 334.19C207.655 335.11 207.655 336.36 207.715 337.74C207.775 339.12 207.715 340.74 207.875 342.44C208.035 345.91 208.365 350.05 208.875 354.62C209.385 359.19 210.225 364.18 211.295 369.38C212.365 374.58 213.695 379.47 215.015 383.88C216.335 388.29 217.715 392.2 219.015 395.44C219.615 397.08 220.235 398.53 220.745 399.81C221.255 401.09 221.745 402.19 222.125 403.08C222.505 403.97 222.775 404.62 223.005 405.15C223.118 405.384 223.208 405.629 223.275 405.88C223.124 405.664 222.997 405.433 222.895 405.19L221.895 403.19C221.475 402.31 220.965 401.19 220.435 399.96C219.905 398.73 219.235 397.24 218.615 395.61C217.305 392.38 215.915 388.46 214.525 384.05C213.135 379.64 211.865 374.73 210.755 369.52C209.645 364.31 208.975 359.26 208.485 354.68C207.995 350.1 207.695 345.94 207.595 342.45C207.505 340.71 207.525 339.13 207.505 337.75C207.485 336.37 207.505 335.17 207.505 334.19C207.505 333.21 207.565 332.52 207.585 331.95C207.578 331.688 207.601 331.426 207.655 331.17Z" fill="#E0E0E0"/>
<path d="M209.023 356.51C209.079 353.494 210.182 350.592 212.143 348.3C212.428 347.874 212.814 347.526 213.265 347.285C213.717 347.044 214.221 346.919 214.733 346.92C216.083 347.12 216.733 348.73 216.733 350.09C216.804 352.399 216.041 354.657 214.583 356.45C213.326 358.166 211.45 359.324 209.353 359.68" fill="#E0E0E0"/>
<path d="M211.995 373C211.825 369.46 212.995 364 214.995 361.12C215.3 360.645 215.698 360.236 216.165 359.92C216.401 359.766 216.671 359.672 216.951 359.646C217.232 359.62 217.514 359.662 217.775 359.77C218.098 360.006 218.358 360.319 218.533 360.68C218.707 361.041 218.79 361.439 218.775 361.84C218.972 364.398 218.454 366.96 217.278 369.24C216.102 371.52 214.314 373.428 212.115 374.75" fill="#E0E0E0"/>
<path d="M215.834 387.09C216.191 383.544 217.489 380.157 219.594 377.28C219.798 376.925 220.069 376.613 220.394 376.362C220.718 376.112 221.089 375.928 221.484 375.82C222.734 375.66 223.724 376.94 223.994 378.17C224.564 380.7 223.304 383.27 221.844 385.41C220.448 387.209 218.824 388.819 217.014 390.2" fill="#E0E0E0"/>
<path d="M219.314 397C219.863 394.21 221.024 391.577 222.714 389.29C223.069 388.788 223.534 388.374 224.074 388.08C224.347 387.935 224.655 387.868 224.963 387.886C225.272 387.903 225.57 388.005 225.824 388.18C226.604 388.79 226.434 390 226.094 390.94C225.051 394.137 223.016 396.918 220.284 398.88" fill="#E0E0E0"/>
<path d="M217.764 393C214.602 390.92 211.254 389.136 207.764 387.67C207.512 387.517 207.225 387.428 206.931 387.413C206.636 387.397 206.341 387.454 206.074 387.58C205.899 387.729 205.772 387.925 205.706 388.145C205.64 388.365 205.64 388.6 205.704 388.82C205.839 389.257 206.071 389.657 206.384 389.99C207.927 391.718 209.839 393.077 211.979 393.965C214.119 394.853 216.431 395.248 218.744 395.12" fill="#E0E0E0"/>
<path d="M213.895 379.91L205.635 374.53C204.882 373.97 204.03 373.556 203.125 373.31C202.67 373.193 202.192 373.203 201.742 373.339C201.293 373.475 200.889 373.731 200.575 374.08C200.32 374.475 200.179 374.932 200.169 375.402C200.158 375.871 200.278 376.335 200.515 376.74C201.011 377.531 201.665 378.212 202.435 378.74C204.155 380.161 206.121 381.256 208.235 381.97C210.365 382.63 212.235 382.9 214.235 381.97" fill="#E0E0E0"/>
<path d="M210.084 365C207.815 361.892 204.766 359.439 201.244 357.89C200.674 357.594 200.036 357.453 199.394 357.48C198.77 357.622 198.216 357.977 197.827 358.485C197.438 358.993 197.239 359.621 197.264 360.26C197.29 360.973 197.463 361.672 197.771 362.316C198.079 362.959 198.515 363.532 199.054 364C200.15 364.932 201.422 365.636 202.794 366.07C205.283 366.969 207.898 367.472 210.544 367.56" fill="#E0E0E0"/>
<path d="M208.325 351.14C206.415 347.14 203.115 344.3 199.505 341.7C199.167 341.372 198.749 341.139 198.293 341.023C197.837 340.907 197.358 340.913 196.905 341.04C196.647 341.192 196.43 341.404 196.273 341.658C196.116 341.913 196.024 342.202 196.005 342.5C195.976 343.101 196.075 343.701 196.295 344.26C197.216 346.776 198.856 348.965 201.011 350.556C203.165 352.147 205.74 353.07 208.415 353.21" fill="#E0E0E0"/>
<path d="M207.875 343.93C206.916 341.86 206.155 339.703 205.605 337.49C205.047 335.265 205.131 332.929 205.845 330.75C206.154 329.808 206.722 328.973 207.485 328.34C207.866 328.028 208.321 327.819 208.806 327.733C209.291 327.648 209.789 327.688 210.255 327.85C210.657 328.044 211.012 328.323 211.295 328.669C211.579 329.014 211.783 329.417 211.895 329.85C212.095 330.739 212.135 331.656 212.015 332.56C211.635 336.88 210.325 341.94 207.895 343.88" fill="#E0E0E0"/>
<path d="M269.794 330.63C269.842 330.887 269.865 331.148 269.864 331.41C269.864 331.98 269.864 332.72 269.944 333.65C270.024 334.58 270.004 335.82 269.944 337.21C269.884 338.6 269.944 340.21 269.864 341.91C269.764 345.4 269.464 349.55 268.964 354.14C268.464 358.73 267.664 363.74 266.584 368.96C265.504 374.18 264.154 379.08 262.804 383.5C261.454 387.92 260.024 391.82 258.714 395.05C258.094 396.68 257.444 398.12 256.904 399.4C256.364 400.68 255.904 401.76 255.434 402.63C254.964 403.5 254.704 404.14 254.434 404.63C254.327 404.865 254.203 405.092 254.064 405.31C254.125 405.057 254.216 404.812 254.334 404.58C254.554 404.05 254.844 403.37 255.214 402.51C255.584 401.65 256.074 400.51 256.584 399.24C257.094 397.97 257.724 396.51 258.314 394.87C259.574 391.63 260.924 387.71 262.314 383.31C263.704 378.91 264.924 374.01 266.024 368.81C267.124 363.61 267.884 358.61 268.444 354.05C269.004 349.49 269.314 345.35 269.444 341.87C269.554 340.13 269.564 338.56 269.614 337.17C269.664 335.78 269.674 334.6 269.614 333.62C269.554 332.64 269.614 331.95 269.614 331.38C269.648 331.124 269.708 330.873 269.794 330.63Z" fill="#EBEBEB"/>
<path d="M268.425 356C268.366 352.983 267.259 350.081 265.295 347.79C265.009 347.366 264.623 347.018 264.172 346.778C263.72 346.537 263.216 346.411 262.705 346.41C261.355 346.61 260.705 348.22 260.705 349.58C260.641 351.89 261.407 354.147 262.865 355.94C264.115 357.663 265.994 358.824 268.095 359.17" fill="#EBEBEB"/>
<path d="M265.485 372.44C265.645 368.9 264.485 363.44 262.485 360.56C262.18 360.085 261.782 359.677 261.315 359.36C261.08 359.207 260.812 359.113 260.533 359.087C260.255 359.06 259.974 359.103 259.715 359.21C259.39 359.446 259.129 359.758 258.954 360.119C258.78 360.48 258.698 360.879 258.715 361.28C258.513 363.837 259.028 366.401 260.203 368.681C261.377 370.962 263.165 372.87 265.365 374.19" fill="#EBEBEB"/>
<path d="M261.603 386.55C261.244 383.006 259.95 379.62 257.853 376.74C257.644 376.381 257.366 376.067 257.035 375.817C256.703 375.566 256.326 375.384 255.923 375.28C254.673 375.12 253.683 376.4 253.403 377.63C252.843 380.16 254.103 382.73 255.553 384.87C256.95 386.669 258.573 388.279 260.383 389.66" fill="#EBEBEB"/>
<path d="M258.125 396.47C257.578 393.678 256.42 391.042 254.735 388.75C254.378 388.246 253.909 387.832 253.365 387.54C253.092 387.395 252.784 387.328 252.476 387.346C252.167 387.363 251.869 387.465 251.615 387.64C250.845 388.25 251.015 389.46 251.345 390.4C252.388 393.597 254.423 396.378 257.155 398.34" fill="#EBEBEB"/>
<path d="M259.673 392.48C262.838 390.404 266.185 388.62 269.673 387.15C269.927 386.999 270.213 386.912 270.507 386.896C270.802 386.88 271.095 386.937 271.363 387.06C271.542 387.206 271.673 387.401 271.741 387.622C271.809 387.843 271.809 388.078 271.743 388.3C271.603 388.736 271.367 389.135 271.053 389.47C269.511 391.199 267.599 392.558 265.459 393.446C263.319 394.334 261.007 394.729 258.693 394.6" fill="#EBEBEB"/>
<path d="M263.555 379.37L271.805 373.99C272.559 373.432 273.41 373.019 274.315 372.77C274.77 372.653 275.248 372.663 275.697 372.799C276.147 372.935 276.551 373.191 276.865 373.54C277.122 373.934 277.264 374.392 277.275 374.862C277.285 375.332 277.164 375.796 276.925 376.2C276.434 376.995 275.779 377.677 275.005 378.2C273.285 379.619 271.323 380.716 269.215 381.44C267.085 382.09 265.215 382.37 263.215 381.44" fill="#EBEBEB"/>
<path d="M267.365 364.44C269.634 361.333 272.683 358.88 276.205 357.33C276.774 357.032 277.412 356.89 278.055 356.92C278.676 357.064 279.228 357.42 279.616 357.928C280.003 358.435 280.2 359.062 280.175 359.7C280.157 360.419 279.989 361.126 279.68 361.775C279.372 362.425 278.93 363.002 278.385 363.47C277.289 364.4 276.022 365.107 274.655 365.55C272.161 366.445 269.543 366.944 266.895 367.03" fill="#EBEBEB"/>
<path d="M269.114 350.6C271.024 346.6 274.324 343.77 277.944 341.16C278.704 340.61 279.694 340.09 280.534 340.5C280.807 340.648 281.038 340.863 281.205 341.126C281.371 341.389 281.467 341.689 281.484 342C281.504 342.601 281.402 343.199 281.184 343.76C280.267 346.276 278.63 348.466 276.476 350.057C274.323 351.649 271.748 352.571 269.074 352.71" fill="#EBEBEB"/>
<path d="M269.564 343.4C270.519 341.327 271.283 339.171 271.844 336.96C272.394 334.731 272.307 332.392 271.594 330.21C271.291 329.27 270.729 328.435 269.974 327.8C269.596 327.487 269.142 327.278 268.658 327.194C268.174 327.11 267.677 327.153 267.214 327.32C266.807 327.508 266.448 327.786 266.162 328.132C265.877 328.478 265.672 328.884 265.564 329.32C265.37 330.21 265.33 331.126 265.444 332.03C265.824 336.35 267.134 341.41 269.564 343.36" fill="#EBEBEB"/>
<path d="M197.145 405.34V415.75C197.145 416.288 197.251 416.82 197.457 417.317C197.663 417.814 197.965 418.266 198.346 418.645C198.727 419.025 199.179 419.326 199.676 419.531C200.174 419.736 200.707 419.841 201.245 419.84H272.415C273.499 419.84 274.54 419.409 275.307 418.642C276.074 417.875 276.505 416.835 276.505 415.75V405.34H197.145Z" fill="#EBEBEB"/>
<path d="M203.314 419.84L203.904 423.15L269.574 427.83L271.244 419.84H203.314Z" fill="#E0E0E0"/>
<path d="M87.6405 167.08L72.6405 160.92C72.6405 160.92 67.4605 173.51 54.2905 168.35C51.7324 167.407 49.5324 165.689 47.9979 163.436C46.4633 161.182 45.6706 158.506 45.7305 155.78C45.7449 153.49 46.3015 151.236 47.3548 149.202C48.4081 147.168 49.9282 145.413 51.7905 144.08C56.0505 140.93 63.3605 138.99 72.7305 144.93L86.4605 111.55L71.6305 105.45L63.4905 125.25C63.4905 125.25 40.4905 122.08 31.0805 144.99C22.0805 166.91 40.4005 180.4 50.6305 184.61C57.0805 187.25 77.0505 193.65 87.6405 167.08Z" fill="#F5F5F5"/>
<path d="M80.1024 84.372L74.3262 98.4209L89.3739 104.608L95.1501 90.5589L80.1024 84.372Z" fill="#F5F5F5"/>
<path d="M82.5597 165L67.5597 158.84C67.5597 158.84 62.3797 171.42 49.2097 166.27C46.6524 165.326 44.4533 163.608 42.919 161.354C41.3846 159.101 40.5913 156.426 40.6497 153.7C40.6644 151.409 41.2222 149.154 42.2774 147.12C43.3325 145.086 44.855 143.332 46.7197 142C50.9797 138.85 58.1197 137.33 67.4897 143.27L81.3897 109.47L66.5697 103.37L58.4297 123.17C58.4297 123.17 35.4297 120 25.9997 142.88C16.9997 164.8 34.5597 178 42.9997 181.43C49.4097 184.08 71.9997 191.53 82.5597 165Z" fill="#E0E0E0"/>
<path d="M75.0301 82.2577L69.2539 96.3066L84.3017 102.494L90.0779 88.4446L75.0301 82.2577Z" fill="#E0E0E0"/>
<path d="M442.371 423.629L433.081 424.399C433.081 424.399 433.731 432.199 425.631 433.019C424.072 433.203 422.494 432.898 421.116 432.145C419.738 431.393 418.629 430.231 417.941 428.819C417.344 427.645 417.033 426.347 417.033 425.029C417.033 423.712 417.344 422.414 417.941 421.239C419.301 418.509 422.541 415.599 428.891 416.179L427.181 395.479L417.981 396.249L418.981 408.519C418.981 408.519 406.371 412.929 407.551 427.129C408.681 440.719 421.611 442.829 427.951 442.299C432.001 441.999 443.911 439.999 442.371 423.629Z" fill="#F5F5F5"/>
<path d="M426.565 384.947L417.205 385.695L417.904 394.435L427.264 393.687L426.565 384.947Z" fill="#F5F5F5"/>
<path d="M439.22 423.869L429.92 424.649C429.92 424.649 430.57 432.449 422.47 433.259C420.912 433.448 419.335 433.145 417.959 432.394C416.582 431.643 415.474 430.481 414.79 429.069C414.193 427.895 413.882 426.597 413.882 425.279C413.882 423.962 414.193 422.664 414.79 421.489C416.15 418.759 419.41 416.109 425.79 416.689L424.049 395.689L414.859 396.459L415.859 408.729C415.859 408.729 403.249 413.129 404.429 427.339C405.559 440.929 418.01 443.079 423.22 442.639C427.24 442.349 440.76 440.259 439.22 423.869Z" fill="#E0E0E0"/>
<path d="M423.008 382.685L413.68 383.46L414.403 392.17L423.731 391.395L423.008 382.685Z" fill="#E0E0E0"/>
<path d="M388.379 86.5096L406.789 79.2396C406.789 79.2396 400.679 63.7796 416.639 57.1596C419.692 55.8277 423.085 55.4818 426.344 56.1701C429.603 56.8585 432.566 58.5468 434.819 60.9996C436.742 63.0242 438.159 65.4744 438.955 68.1507C439.751 70.8269 439.903 73.6533 439.399 76.3996C438.309 82.7796 433.519 90.6796 420.249 93.3996L436.439 134.4L454.649 127.21L444.999 102.88C444.999 102.88 467.999 86.1996 456.859 58.0596C446.219 31.1396 418.659 34.7896 406.089 39.7596C398.189 42.8796 375.199 54.1596 388.379 86.5096Z" fill="#F5F5F5"/>
<path d="M458.245 135.669L439.764 142.968L446.577 160.221L465.058 152.923L458.245 135.669Z" fill="#F5F5F5"/>
<path d="M381 89.4098L399.42 82.1398C399.42 82.1398 393.309 66.6798 409.269 60.0598C412.32 58.7243 415.71 58.3736 418.969 59.0565C422.228 59.7395 425.192 61.422 427.45 63.8698C429.375 65.8989 430.793 68.3544 431.589 71.0358C432.385 73.7173 432.536 76.5489 432.03 79.2998C431 85.6798 426 93.0598 412.7 95.7798L429.1 137.29L447.299 130.1L437.7 105.78C437.7 105.78 460.63 89.0998 449.51 60.9998C438.88 33.9998 412.269 37.3198 401.929 41.3998C393.999 44.5198 367.86 57.0598 381 89.4098Z" fill="#E0E0E0"/>
<path d="M450.903 138.563L432.422 145.861L439.236 163.115L457.717 155.816L450.903 138.563Z" fill="#E0E0E0"/>
<path d="M239.058 64.9519C240.752 45.8571 226.615 29.0016 207.482 27.3041C188.349 25.6066 171.465 39.7099 169.771 58.8047C168.076 77.8995 182.214 94.755 201.347 96.4525C220.48 98.15 237.364 84.0467 239.058 64.9519Z" fill="white"/>
<path d="M226.749 88.5102L227.179 88.1502L228.399 87.0002L229.299 86.1702C229.619 85.8602 229.939 85.4802 230.299 85.0802L231.449 83.8002C231.869 83.3005 232.263 82.7799 232.629 82.2402C234.636 79.5341 236.214 76.5358 237.309 73.3502C238.805 69.1381 239.468 64.6752 239.259 60.2102C239.259 59.5902 239.189 58.9602 239.159 58.3302C239.129 57.7002 238.969 57.0702 238.879 56.4202C238.789 55.7702 238.719 55.1302 238.549 54.4902C238.379 53.8502 238.219 53.2002 238.059 52.4902L237.489 50.6402V50.5302C237.259 49.8802 237.019 49.2202 236.789 48.5302C236.559 47.8402 236.189 47.2502 235.889 46.6002C235.598 45.9357 235.264 45.291 234.889 44.6702C234.159 43.3774 233.344 42.1347 232.449 40.9502C231.989 40.3602 231.559 39.7302 231.059 39.1502L228.909 36.8202L228.679 36.6002L227.799 35.8202C227.199 35.3102 226.619 34.7602 225.999 34.2602C224.725 33.276 223.389 32.3742 221.999 31.5602C220.567 30.7242 219.081 29.9859 217.549 29.3502C216.759 29.0402 215.949 28.8002 215.149 28.5102C214.749 28.3902 214.349 28.2202 213.939 28.1202L212.619 28.0002C211.272 27.6565 209.902 27.4093 208.519 27.2602L206.429 27.0002L204.179 26.9102H203.519L202.179 26.9802L200.839 27.0602L199.509 27.2502L198.169 27.4602L197.499 27.5602L196.839 27.7202L191.929 29.2102L191.589 29.3302C188.118 30.7367 184.878 32.6583 181.979 35.0302C179.133 37.4692 176.671 40.3249 174.679 43.5002L174.519 43.7802C173.879 45.0502 172.829 47.1202 172.179 48.3902L171.909 49.0102L171.689 49.6502L171.249 51.0002L170.819 52.2802L170.519 53.5902L170.209 54.8902L170.059 55.5402L169.759 57.7702L169.569 59.8602C169.469 61.245 169.469 62.6353 169.569 64.0202L169.639 65.3002C169.639 65.7302 169.759 66.1502 169.809 66.5702C169.949 67.4102 170.049 68.2502 170.219 69.0702C170.57 70.694 171.035 72.2912 171.609 73.8502C172.182 75.3741 172.85 76.8604 173.609 78.3002C173.989 79.0002 174.429 79.6602 174.829 80.3002L175.439 81.3002L175.619 81.5602L177.529 84.0802C178.019 84.6802 178.529 85.2102 179.069 85.7702C180.075 86.8434 181.155 87.8458 182.299 88.7702C182.839 89.2682 183.407 89.7356 183.999 90.1702C184.589 90.5702 185.149 91.0102 185.749 91.3802L187.569 92.4302L189.369 93.3502L191.209 94.1702C191.814 94.4259 192.431 94.6495 193.059 94.8401C193.669 95.0401 194.279 95.2602 194.879 95.4402L196.719 95.8702C201.08 96.854 205.59 96.983 209.999 96.2502C213.327 95.7271 216.555 94.695 219.569 93.1902C220.165 92.9259 220.746 92.6288 221.309 92.3002L222.769 91.4002C223.219 91.1202 223.649 90.8702 224.019 90.6202L225.019 89.8702L226.319 88.8702C226.619 88.6402 226.759 88.5102 226.759 88.5102L226.299 88.8402L224.969 89.8402C224.669 90.0502 224.349 90.3002 223.969 90.5602C223.589 90.8202 223.169 91.0502 222.719 91.3302L221.249 92.2102C220.681 92.53 220.097 92.8204 219.499 93.0802C216.498 94.5262 213.295 95.5106 209.999 96.0002C205.618 96.7008 201.144 96.5514 196.819 95.5602L194.999 95.1602C194.389 94.9802 193.799 94.7602 193.189 94.5602C192.579 94.3602 191.949 94.1802 191.359 93.8902L189.539 93.0702L187.819 92.1902H187.739L185.949 91.1902C185.349 90.8202 184.799 90.3802 184.219 89.9802C183.623 89.5822 183.052 89.1481 182.509 88.6802C181.377 87.7558 180.311 86.7534 179.319 85.6802C178.819 85.1302 178.319 84.6002 177.799 84.0102L175.909 81.5002C175.847 81.4208 175.79 81.3373 175.739 81.2502L175.129 80.2502C174.739 79.5802 174.299 78.9302 173.929 78.2502C173.194 76.8268 172.553 75.357 172.009 73.8502C171.431 72.2687 170.966 70.6479 170.619 69.0002C170.449 68.1902 170.359 67.3602 170.219 66.5302C170.169 66.1102 170.069 65.7002 170.049 65.2802L169.999 64.0002C169.889 62.2852 169.889 60.5651 169.999 58.8502C170.119 57.9902 170.239 57.1302 170.349 56.2602L170.439 55.6102L170.589 54.9702L170.889 53.6902L171.199 52.3902L171.619 51.1302L172.049 49.8602L172.269 49.2302L172.539 48.6102L174.889 44.0002L175.039 43.7502C178.93 37.3874 184.795 32.471 191.739 29.7502L192.059 29.6302L196.929 28.1602L197.579 27.9902L198.239 27.8902L199.569 27.6902L200.879 27.4902L202.209 27.4202L203.529 27.3502H204.189H204.839L207.449 27.4502C209.157 27.6263 210.851 27.917 212.519 28.3202L213.759 28.6102C214.169 28.7002 214.559 28.8702 214.959 28.9902C215.749 29.2702 216.559 29.5102 217.329 29.8102C218.847 30.4392 220.321 31.1709 221.739 32.0002C223.131 32.7958 224.467 33.6844 225.739 34.6602C226.359 35.1502 226.929 35.6602 227.519 36.2002L228.399 36.9702L228.619 37.1802L230.749 39.4802C231.249 40.0502 231.679 40.6802 232.139 41.2602C233.026 42.453 233.834 43.7023 234.559 45.0002C234.926 45.6186 235.26 46.2562 235.559 46.9102C235.849 47.5502 236.189 48.1702 236.449 48.8202L237.149 50.7702C237.269 51.0902 237.389 51.4102 237.499 51.7702V51.8602C237.739 52.8102 237.979 53.7502 238.219 54.6702C238.399 55.3102 238.439 55.9602 238.559 56.5902C238.679 57.2202 238.759 57.8602 238.839 58.4802C238.919 59.1002 238.909 59.7302 238.939 60.3402C239.166 64.7702 238.531 69.2021 237.069 73.3902C235.998 76.5626 234.45 79.5535 232.479 82.2602C232.059 82.8102 231.739 83.3802 231.319 83.8302L230.199 85.0002C229.849 85.4002 229.539 85.7802 229.199 86.1002L228.319 86.9402L227.119 88.0702C226.879 88.3702 226.749 88.5102 226.749 88.5102Z" fill="#E0E0E0"/>
<path d="M234.059 107.67C233.48 108.438 232.715 109.046 231.837 109.437C230.958 109.828 229.994 109.989 229.036 109.905C228.078 109.821 227.157 109.495 226.36 108.957C225.563 108.419 224.916 107.687 224.479 106.83C223.999 105.891 223.793 104.836 223.885 103.785C223.977 102.734 224.363 101.731 224.999 100.89C225.914 99.7328 227.244 98.9785 228.707 98.7878C230.17 98.597 231.649 98.9849 232.83 99.8687C234.011 100.752 234.801 102.062 235.03 103.52C235.26 104.977 234.911 106.466 234.059 107.67Z" fill="white"/>
<path d="M233.159 108.61C233.159 108.61 233.269 108.55 233.449 108.4C233.718 108.176 233.96 107.921 234.169 107.64C234.831 106.756 235.223 105.7 235.299 104.599C235.376 103.497 235.133 102.397 234.599 101.43C234.091 100.519 233.349 99.7594 232.449 99.2303C231.455 98.6391 230.303 98.3669 229.149 98.4503C227.905 98.5187 226.716 98.9882 225.761 99.7885C224.805 100.589 224.135 101.677 223.849 102.89C223.573 104.014 223.639 105.195 224.039 106.28C224.404 107.258 225.022 108.12 225.829 108.78C226.534 109.35 227.363 109.744 228.249 109.93C229.525 110.208 230.857 110.035 232.019 109.44C232.334 109.287 232.627 109.092 232.889 108.86C233.079 108.71 233.169 108.62 233.159 108.61C233.149 108.6 232.749 108.92 231.949 109.29C230.809 109.809 229.528 109.932 228.309 109.64C227.605 109.472 226.94 109.167 226.354 108.742C225.767 108.316 225.271 107.779 224.892 107.161C224.514 106.543 224.262 105.857 224.15 105.141C224.038 104.425 224.068 103.694 224.239 102.99C224.514 101.864 225.142 100.855 226.03 100.11C226.919 99.3651 228.022 98.9238 229.179 98.8503C230.255 98.775 231.328 99.0259 232.259 99.5703C233.091 100.049 233.781 100.739 234.259 101.57C234.78 102.485 235.031 103.528 234.983 104.579C234.935 105.631 234.591 106.647 233.989 107.51C233.529 108.27 233.119 108.58 233.159 108.61Z" fill="#E0E0E0"/>
<path d="M193.759 56.1803H198.999C198.996 55.5814 199.113 54.988 199.344 54.4354C199.575 53.8827 199.915 53.3821 200.343 52.9633C200.771 52.5445 201.279 52.216 201.837 51.9973C202.394 51.7786 202.99 51.6742 203.589 51.6903C204.473 51.6583 205.346 51.9031 206.084 52.3908C206.823 52.8784 207.391 53.5844 207.709 54.4103C207.984 55.0986 208.094 55.8423 208.028 56.5808C207.962 57.3193 207.722 58.0318 207.329 58.6603C206.439 60.1303 204.489 61.4703 200.949 60.8503V72.7003H206.139V65.7003C208.272 65.0759 210.141 63.7677 211.458 61.9772C212.776 60.1866 213.468 58.0128 213.429 55.7903C213.429 48.1003 206.539 46.3203 203.589 46.3203C201.339 46.3703 193.659 46.9103 193.759 56.1803Z" fill="#E0E0E0"/>
<path d="M206.209 75.1396H200.939V80.0696H206.209V75.1396Z" fill="#E0E0E0"/>
<path d="M133.47 204.64H138.73C138.727 204.041 138.844 203.448 139.075 202.895C139.306 202.343 139.646 201.842 140.074 201.423C140.502 201.004 141.01 200.676 141.568 200.457C142.125 200.239 142.721 200.134 143.32 200.15C144.201 200.12 145.071 200.364 145.807 200.85C146.544 201.335 147.111 202.038 147.43 202.86C147.71 203.549 147.823 204.294 147.758 205.035C147.694 205.776 147.455 206.49 147.06 207.12C146.17 208.59 144.21 209.93 140.67 209.3V221.15H145.87V214.21C148.003 213.586 149.872 212.278 151.189 210.487C152.506 208.697 153.199 206.523 153.16 204.3C153.16 196.61 146.27 194.82 143.32 194.82C141.06 194.82 133.37 195.37 133.47 204.64Z" fill="#E0E0E0"/>
<path d="M145.93 223.6H140.66V228.53H145.93V223.6Z" fill="#E0E0E0"/>
<path d="M439.463 228.663L433.573 224.923C433.573 224.923 430.423 229.923 425.223 226.693C424.203 226.1 423.395 225.202 422.913 224.126C422.43 223.05 422.297 221.849 422.533 220.693C422.71 219.722 423.115 218.807 423.715 218.023C424.315 217.239 425.092 216.609 425.983 216.183C428.033 215.183 431.183 215.063 434.713 218.283L443.153 204.983L437.323 201.273L432.373 209.073C432.373 209.073 422.853 205.993 417.123 215.003C411.643 223.633 418.123 230.543 421.423 232.653C423.953 234.283 432.973 239.143 439.463 228.663Z" fill="#E0E0E0"/>
<path d="M442.515 193L439.004 198.529L444.921 202.288L448.433 196.758L442.515 193Z" fill="#E0E0E0"/>
<path d="M135.709 58.3802L130.819 60.3102C131.045 60.8652 131.156 61.4599 131.146 62.0588C131.136 62.6578 131.005 63.2485 130.761 63.7957C130.518 64.3429 130.166 64.8353 129.728 65.2433C129.289 65.6513 128.773 65.9666 128.209 66.1702C127.4 66.5281 126.5 66.6241 125.634 66.4448C124.768 66.2655 123.979 65.8198 123.379 65.1702C122.868 64.6331 122.492 63.9822 122.281 63.2711C122.071 62.56 122.032 61.809 122.169 61.0802C122.459 59.3802 123.779 57.4202 127.309 56.7002L122.949 45.7002L118.119 47.6102L120.669 54.0002C118.915 55.366 117.657 57.2701 117.09 59.42C116.523 61.5699 116.677 63.8466 117.529 65.9002C120.349 73.0502 127.419 72.1802 130.159 71.1002C132.259 70.3002 139.209 67.0002 135.709 58.3802Z" fill="#E0E0E0"/>
<path d="M120.352 38.4915L115.451 40.4414L117.275 45.0263L122.176 43.0764L120.352 38.4915Z" fill="#E0E0E0"/>
<path d="M471.17 472.46C471.17 472.6 372.17 472.72 250.01 472.72C127.85 472.72 28.8301 472.6 28.8301 472.46C28.8301 472.32 127.83 472.2 250.01 472.2C372.19 472.2 471.17 472.31 471.17 472.46Z" fill="#263238"/>
<path d="M320.649 296.198L312.959 292.758L358.749 235.098L366.219 237.168C367.335 237.475 368.332 238.113 369.079 238.998L376.519 247.758C377.032 248.363 377.284 249.147 377.22 249.938C377.157 250.729 376.782 251.462 376.179 251.978L324.779 295.608C324.217 296.087 323.531 296.397 322.799 296.501C322.068 296.606 321.323 296.5 320.649 296.198Z" fill="#455A64"/>
<path d="M372.58 292.138L364.26 299.138C363.805 299.526 363.255 299.787 362.666 299.892C362.077 299.997 361.471 299.944 360.91 299.738L354.65 297.508C353.87 297.217 353.222 296.652 352.83 295.918L318.77 231.708L326.45 233.938C327.44 234.227 328.323 234.801 328.99 235.588L372.94 287.368C373.522 288.049 373.812 288.933 373.744 289.827C373.677 290.721 373.258 291.552 372.58 292.138Z" fill="#455A64"/>
<g opacity="0.3">
<path d="M320.649 296.198L312.959 292.758L358.749 235.098L366.219 237.168C367.335 237.475 368.332 238.113 369.079 238.998L376.519 247.758C377.032 248.363 377.284 249.147 377.22 249.938C377.157 250.729 376.782 251.462 376.179 251.978L324.779 295.608C324.217 296.087 323.531 296.397 322.799 296.501C322.068 296.606 321.323 296.5 320.649 296.198Z" fill="black"/>
<path d="M372.58 292.138L364.26 299.138C363.805 299.526 363.255 299.787 362.666 299.892C362.077 299.997 361.471 299.944 360.91 299.738L354.65 297.508C353.87 297.217 353.222 296.652 352.83 295.918L318.77 231.708L326.45 233.938C327.44 234.227 328.323 234.801 328.99 235.588L372.94 287.368C373.522 288.049 373.812 288.933 373.744 289.827C373.677 290.721 373.258 291.552 372.58 292.138Z" fill="black"/>
</g>
<path d="M367.606 244.892L360.048 235.986C359.23 235.022 357.785 234.904 356.82 235.722L304.746 279.916C303.781 280.734 303.663 282.179 304.481 283.144L312.039 292.049C312.857 293.013 314.302 293.132 315.267 292.313L367.342 248.119C368.306 247.301 368.424 245.856 367.606 244.892Z" fill="#455A64"/>
<path d="M308.058 240.059L317.208 232.295C317.612 231.951 318.136 231.783 318.665 231.826C319.194 231.869 319.684 232.121 320.027 232.525L364.441 284.859C364.834 285.322 365.027 285.923 364.977 286.528C364.928 287.133 364.64 287.694 364.176 288.087L355.248 295.664C354.785 296.057 354.185 296.25 353.58 296.201C352.974 296.151 352.414 295.863 352.021 295.4L307.827 243.325C307.434 242.862 307.241 242.262 307.29 241.657C307.34 241.051 307.628 240.49 308.091 240.097L308.058 240.059Z" fill="#455A64"/>
<path d="M322.65 267.288C320.244 269.689 317.718 271.965 315.08 274.108C312.555 276.385 309.915 278.531 307.17 280.538C309.577 278.135 312.103 275.856 314.74 273.708C317.266 271.435 319.906 269.292 322.65 267.288Z" fill="white"/>
<path d="M357.141 237.798C357.241 237.908 353.421 241.288 348.631 245.348C343.841 249.408 339.881 252.598 339.791 252.488C339.701 252.378 343.501 249.008 348.301 244.948C353.101 240.888 357.051 237.688 357.141 237.798Z" fill="white"/>
<path d="M324.359 259.038C324.249 259.128 321.299 255.538 317.769 251.038C314.239 246.538 311.469 242.798 311.579 242.708C313.914 245.261 316.117 247.931 318.179 250.708C320.382 253.376 322.445 256.156 324.359 259.038Z" fill="white"/>
<path d="M350.721 289.038C348.322 286.83 346.046 284.493 343.901 282.038C341.624 279.701 339.478 277.24 337.471 274.668C339.861 276.884 342.138 279.22 344.291 281.668C346.562 284.01 348.709 286.47 350.721 289.038Z" fill="white"/>
<path d="M110.93 276.332L109.34 270.412L152.21 278.952L190.08 225.702L194.7 234.302C195.054 234.956 195.24 235.688 195.24 236.432C195.24 237.176 195.054 237.908 194.7 238.562L161.82 298.752C161.235 299.821 160.441 300.763 159.487 301.521C158.532 302.279 157.436 302.839 156.261 303.167C155.087 303.495 153.86 303.585 152.65 303.431C151.441 303.277 150.275 302.883 149.22 302.272L116.04 283.042C114.789 282.315 113.693 281.348 112.816 280.196C111.939 279.045 111.298 277.732 110.93 276.332Z" fill="#FF725E"/>
<g opacity="0.3">
<path d="M110.93 276.332L109.34 270.412L152.21 278.952L190.08 225.702L194.7 234.302C195.054 234.956 195.24 235.688 195.24 236.432C195.24 237.176 195.054 237.908 194.7 238.562L161.82 298.752C161.235 299.821 160.441 300.763 159.487 301.521C158.532 302.279 157.436 302.839 156.261 303.167C155.087 303.495 153.86 303.585 152.65 303.431C151.441 303.277 150.275 302.883 149.22 302.272L116.04 283.042C114.789 282.315 113.693 281.348 112.816 280.196C111.939 279.045 111.298 277.732 110.93 276.332Z" fill="black"/>
</g>
<path d="M109.461 267.592L115.641 256.652C116.066 255.897 116.764 255.333 117.591 255.077C118.419 254.82 119.313 254.89 120.091 255.272L144.891 267.422C145.684 267.808 146.596 267.872 147.435 267.6C148.274 267.327 148.975 266.741 149.391 265.962L173.991 219.802C174.209 219.393 174.508 219.032 174.871 218.743C175.234 218.453 175.652 218.241 176.1 218.119C176.548 217.997 177.016 217.969 177.475 218.034C177.934 218.1 178.375 218.26 178.771 218.502L188.771 224.652C189.513 225.108 190.052 225.83 190.277 226.671C190.502 227.512 190.396 228.407 189.981 229.172L157.821 287.982C156.782 289.884 155.035 291.3 152.959 291.924C150.883 292.547 148.646 292.327 146.731 291.312L110.821 272.312C110.414 272.099 110.055 271.806 109.765 271.45C109.475 271.095 109.26 270.684 109.133 270.243C109.006 269.802 108.969 269.34 109.026 268.884C109.082 268.429 109.23 267.989 109.461 267.592Z" fill="#FF725E"/>
<path d="M143.201 270.222C142.742 270.087 142.297 269.909 141.871 269.692L138.341 268.092C135.341 266.712 131.281 264.782 126.781 262.622L123.491 261.042L121.931 260.292C121.471 260.038 120.964 259.882 120.441 259.832C119.96 259.79 119.476 259.846 119.017 259.995C118.559 260.145 118.135 260.385 117.771 260.702C117.168 261.326 116.677 262.05 116.321 262.842L114.391 266.212C114.172 266.635 113.914 267.037 113.621 267.412C113.776 266.961 113.974 266.526 114.211 266.112L115.991 262.662L116.591 261.522C116.818 261.09 117.12 260.701 117.481 260.372C117.889 260.013 118.364 259.739 118.879 259.567C119.395 259.395 119.94 259.329 120.481 259.372C121.065 259.42 121.634 259.586 122.151 259.862L123.711 260.602L126.991 262.152C131.491 264.312 135.561 266.302 138.491 267.762L141.991 269.512C142.413 269.716 142.817 269.953 143.201 270.222Z" fill="white"/>
<path d="M152.291 268.232C152.161 268.162 157.371 257.862 163.931 245.232C170.491 232.602 175.931 222.402 176.031 222.472C176.131 222.542 170.951 232.832 164.391 245.472C157.831 258.112 152.411 268.292 152.291 268.232Z" fill="white"/>
<path d="M181.599 136.616C183.885 118.212 170.819 101.439 152.414 99.1531C134.01 96.8673 117.237 109.934 114.951 128.338C112.666 146.742 125.732 163.515 144.136 165.801C162.541 168.087 179.313 155.02 181.599 136.616Z" fill="white"/>
<path d="M181.851 132.46C181.851 132.46 181.851 132.28 181.851 131.92C181.851 131.56 181.851 131.01 181.791 130.32L181.741 129.14C181.741 128.71 181.621 128.24 181.551 127.73C181.481 127.22 181.391 126.67 181.311 126.09C181.231 125.51 181.031 124.9 180.891 124.25C180.134 121.079 178.892 118.043 177.211 115.25C175.016 111.527 172.119 108.267 168.681 105.65L167.231 104.56C166.721 104.22 166.181 103.91 165.651 103.56C165.121 103.21 164.591 102.87 164.011 102.56L162.261 101.71L161.371 101.29L160.431 100.95L158.541 100.25C157.891 100.03 157.221 99.8901 156.541 99.7101C155.882 99.5195 155.215 99.3626 154.541 99.2401C153.13 98.9765 151.704 98.8094 150.271 98.7401C149.541 98.7401 148.811 98.6401 148.071 98.6501L145.841 98.7601C145.461 98.7601 145.081 98.7601 144.711 98.8301L143.581 99.0001C142.831 99.1201 142.071 99.2101 141.311 99.3701C139.783 99.7068 138.28 100.144 136.811 100.68C135.297 101.219 133.823 101.864 132.401 102.61C131.691 102.99 131.001 103.44 130.291 103.86C129.951 104.08 129.581 104.27 129.291 104.52L128.291 105.26C126.945 106.26 125.666 107.346 124.461 108.51L122.741 110.4L122.311 110.88L121.921 111.39L121.151 112.39L120.371 113.39L119.691 114.5L119.011 115.61L118.671 116.18L118.381 116.77C118.001 117.56 117.611 118.35 117.231 119.15C116.851 119.95 116.621 120.81 116.311 121.65C113.99 128.567 113.99 136.053 116.311 142.97C116.621 143.81 116.921 144.64 117.231 145.47L118.371 147.86L118.661 148.45L119.001 149.01L119.681 150.13L120.371 151.24L121.141 152.24L121.921 153.24L122.311 153.76L122.741 154.23L124.461 156.12C125.663 157.288 126.943 158.373 128.291 159.37L129.291 160.12C129.621 160.37 129.991 160.56 130.291 160.78C131.001 161.19 131.681 161.64 132.401 162.03C133.823 162.776 135.297 163.421 136.811 163.96C138.28 164.496 139.783 164.933 141.311 165.27C142.071 165.43 142.831 165.51 143.581 165.64L144.711 165.81C145.091 165.86 145.461 165.81 145.841 165.88L148.071 165.99C148.811 165.99 149.551 165.93 150.271 165.9C151.704 165.831 153.13 165.664 154.541 165.4C155.215 165.279 155.883 165.122 156.541 164.93C157.211 164.74 157.881 164.6 158.541 164.39L160.431 163.69L161.371 163.35L162.261 162.92L164.011 162.08C164.591 161.81 165.111 161.43 165.651 161.08C166.191 160.73 166.721 160.44 167.231 160.08L168.691 158.99C172.124 156.37 175.017 153.11 177.211 149.39C178.891 146.596 180.132 143.561 180.891 140.39C181.062 139.784 181.202 139.17 181.311 138.55C181.391 137.96 181.481 137.41 181.551 136.9C181.621 136.39 181.701 135.9 181.741 135.49C181.781 135.08 181.741 134.67 181.791 134.32C181.791 133.62 181.841 133.09 181.851 132.72C181.861 132.35 181.851 132.17 181.851 132.17C181.851 132.17 181.851 132.36 181.851 132.72C181.851 133.08 181.801 133.62 181.751 134.31C181.751 134.66 181.751 135.05 181.681 135.49C181.611 135.93 181.551 136.38 181.471 136.89C181.391 137.4 181.301 137.89 181.211 138.52C181.101 139.138 180.954 139.75 180.771 140.35C179.991 143.491 178.741 146.495 177.061 149.26C174.874 153.037 171.966 156.347 168.501 159L167.061 160.08C166.551 160.41 166.011 160.72 165.491 161.08C164.971 161.44 164.431 161.76 163.851 162.03L162.121 162.86L161.241 163.28L160.311 163.62L158.431 164.3C157.791 164.51 157.121 164.65 156.431 164.83C155.772 165.018 155.105 165.172 154.431 165.29C153.033 165.546 151.62 165.71 150.201 165.78C149.481 165.78 148.761 165.87 148.021 165.86L145.811 165.74C145.441 165.74 145.071 165.74 144.701 165.67L143.581 165.5C142.841 165.38 142.081 165.29 141.341 165.14C139.826 164.805 138.336 164.367 136.881 163.83C135.389 163.291 133.936 162.653 132.531 161.92C131.821 161.53 131.151 161.09 130.451 160.67C130.111 160.45 129.741 160.27 129.451 160.02L128.451 159.28C127.116 158.293 125.85 157.217 124.661 156.06L123.001 154.2L122.571 153.73L122.191 153.22L121.421 152.22L120.651 151.22L119.981 150.12L119.311 149.01L118.971 148.46L118.691 147.87L117.551 145.52L116.651 143.04C114.357 136.207 114.357 128.813 116.651 121.98L117.561 119.5C117.941 118.72 118.311 117.93 118.691 117.15L118.981 116.57L119.311 116.01L119.981 114.91L120.661 113.81L121.421 112.81L122.191 111.81L122.571 111.3L123.001 110.83L124.701 108.96C125.889 107.806 127.152 106.73 128.481 105.74L129.481 105.01C129.801 104.76 130.171 104.57 130.481 104.35C131.181 103.94 131.851 103.49 132.561 103.11C133.966 102.377 135.419 101.739 136.911 101.2C138.366 100.663 139.856 100.226 141.371 99.8901C142.111 99.7401 142.871 99.6501 143.611 99.5301L144.731 99.3601C145.101 99.3101 145.471 99.3101 145.841 99.2801L148.051 99.1701C148.791 99.1701 149.511 99.2301 150.231 99.2501C151.65 99.321 153.063 99.4847 154.461 99.7401C155.136 99.8539 155.804 100.007 156.461 100.2C157.121 100.38 157.791 100.52 158.461 100.73L160.341 101.41L161.261 101.75L162.151 102.17L163.881 103C164.461 103.26 164.971 103.64 165.511 103.94C166.051 104.24 166.581 104.57 167.091 104.94L168.531 106.01C171.948 108.6 174.837 111.822 177.041 115.5C178.719 118.266 179.97 121.27 180.751 124.41C180.932 125.011 181.079 125.622 181.191 126.24C181.281 126.83 181.371 127.37 181.451 127.88C181.531 128.39 181.621 128.88 181.661 129.28C181.701 129.68 181.711 130.1 181.731 130.46C181.781 131.15 181.811 131.68 181.831 132.05C181.851 132.42 181.851 132.46 181.851 132.46Z" fill="#263238"/>
<path d="M194.621 153.57C194.621 154.65 194.301 155.706 193.701 156.604C193.101 157.502 192.248 158.201 191.251 158.615C190.253 159.028 189.155 159.136 188.096 158.925C187.037 158.715 186.064 158.195 185.3 157.431C184.537 156.668 184.017 155.695 183.806 154.636C183.595 153.576 183.704 152.479 184.117 151.481C184.53 150.483 185.23 149.63 186.128 149.031C187.026 148.431 188.081 148.11 189.161 148.11C189.879 148.109 190.589 148.249 191.252 148.523C191.915 148.797 192.518 149.199 193.025 149.707C193.532 150.214 193.934 150.816 194.208 151.479C194.482 152.142 194.622 152.853 194.621 153.57Z" fill="white"/>
<path d="M194.62 153.57C194.62 153.57 194.62 153.45 194.62 153.22C194.623 152.883 194.586 152.548 194.51 152.22C194.228 150.984 193.52 149.886 192.51 149.12C191.838 148.571 191.047 148.188 190.2 148C189.197 147.808 188.162 147.887 187.2 148.23C186.138 148.615 185.218 149.312 184.56 150.23C183.846 151.199 183.461 152.371 183.461 153.575C183.461 154.779 183.846 155.951 184.56 156.92C185.218 157.838 186.138 158.535 187.2 158.92C188.159 159.273 189.198 159.353 190.2 159.15C191.247 158.942 192.212 158.438 192.979 157.697C193.747 156.955 194.285 156.009 194.53 154.97C194.606 154.642 194.643 154.306 194.64 153.97C194.64 153.74 194.64 153.62 194.64 153.62C194.64 153.62 194.64 154.11 194.39 154.94C194.123 155.92 193.584 156.805 192.836 157.491C192.087 158.178 191.159 158.639 190.16 158.82C189.227 158.984 188.268 158.897 187.38 158.57C186.4 158.216 185.55 157.575 184.94 156.73C184.277 155.829 183.92 154.739 183.92 153.62C183.92 152.501 184.277 151.411 184.94 150.51C185.553 149.668 186.402 149.028 187.38 148.67C188.268 148.343 189.227 148.256 190.16 148.42C191.161 148.602 192.089 149.064 192.838 149.753C193.587 150.441 194.125 151.328 194.39 152.31C194.6 153.08 194.58 153.57 194.62 153.57Z" fill="#263238"/>
<path d="M137.231 135.11V139.68H133.631V135.06L128.781 127H132.571L135.571 132.06L138.571 127H142.061L137.231 135.11Z" fill="#263238"/>
<path d="M153.16 136.9V139.68H143V127H153V129.79H146.59V131.93H152.24V134.62H146.59V136.95L153.16 136.9Z" fill="#263238"/>
<path d="M154.26 138.53L155.44 135.88C156.698 136.675 158.151 137.108 159.64 137.13C161.13 137.13 161.71 136.71 161.71 136.13C161.71 134.13 154.48 135.58 154.48 130.86C154.48 128.58 156.34 126.73 160.12 126.73C161.726 126.703 163.312 127.085 164.73 127.84L163.62 130.51C162.547 129.892 161.338 129.548 160.1 129.51C158.59 129.51 158.04 130.02 158.04 130.65C158.04 132.65 165.26 131.14 165.26 135.83C165.26 138.05 163.4 139.94 159.62 139.94C157.736 139.984 155.878 139.495 154.26 138.53Z" fill="#263238"/>
<path d="M367.959 189.333C387.715 186.82 401.693 168.767 399.18 149.011C396.667 129.255 378.614 115.277 358.858 117.79C339.101 120.303 325.123 138.356 327.637 158.113C330.15 177.869 348.203 191.847 367.959 189.333Z" fill="white"/>
<path d="M327.341 153.59C327.341 153.59 327.341 153.39 327.341 153C327.341 152.61 327.341 152 327.411 151.29L327.461 150.02C327.461 149.56 327.591 149.02 327.671 148.51C327.751 148 327.831 147.37 327.931 146.74C328.04 146.065 328.19 145.397 328.381 144.74C329.197 141.34 330.529 138.086 332.331 135.09C334.688 131.096 337.795 127.595 341.481 124.78L343.041 123.61C343.591 123.25 344.171 122.92 344.741 122.61C345.311 122.3 345.881 121.87 346.511 121.61L348.381 120.71L349.381 120.25L350.381 119.88L352.381 119.13C353.071 118.9 353.801 118.75 354.511 118.55C355.231 118.343 355.962 118.176 356.701 118.05C358.214 117.768 359.744 117.587 361.281 117.51C362.071 117.51 362.851 117.4 363.651 117.41L366.051 117.53C366.451 117.53 366.851 117.53 367.261 117.61L368.471 117.79C369.271 117.92 370.091 118.02 370.911 118.18C372.548 118.55 374.161 119.021 375.741 119.59C377.365 120.171 378.945 120.866 380.471 121.67C381.241 122.08 381.981 122.56 382.731 123.01C383.111 123.25 383.501 123.45 383.861 123.72L384.921 124.52C386.372 125.589 387.748 126.755 389.041 128.01L390.891 130.01L391.351 130.52L391.771 131.07L392.601 132.18L393.431 133.29L394.171 134.49L394.901 135.69L395.261 136.29L395.571 136.92C395.981 137.77 396.391 138.63 396.811 139.48C397.231 140.33 397.461 141.27 397.811 142.17C400.317 149.594 400.317 157.636 397.811 165.06C397.481 165.96 397.161 166.86 396.811 167.75L395.581 170.31L395.271 170.94L394.901 171.54L394.171 172.75L393.441 173.94L392.601 175.05L391.771 176.17L391.351 176.72L390.891 177.23L389.041 179.23C387.747 180.48 386.374 181.645 384.931 182.72L383.861 183.52C383.501 183.78 383.111 183.99 382.741 184.22C381.981 184.67 381.241 185.16 380.481 185.57C378.949 186.365 377.365 187.056 375.741 187.64C374.162 188.219 372.544 188.69 370.901 189.05C370.091 189.22 369.271 189.31 368.461 189.44L367.261 189.63C366.851 189.68 366.451 189.68 366.041 189.7L363.651 189.82C362.851 189.82 362.061 189.75 361.281 189.73C359.744 189.649 358.214 189.466 356.701 189.18C355.961 189.059 355.23 188.892 354.511 188.68C353.791 188.48 353.071 188.33 352.381 188.1L350.381 187.35L349.381 186.99L348.381 186.53L346.501 185.62C345.881 185.33 345.321 184.93 344.741 184.62C344.161 184.31 343.591 183.94 343.041 183.57L341.481 182.4C337.79 179.587 334.679 176.086 332.321 172.09C330.523 169.093 329.194 165.839 328.381 162.44C328.189 161.783 328.039 161.115 327.931 160.44C327.831 159.81 327.751 159.22 327.671 158.68C327.591 158.14 327.501 157.68 327.461 157.16C327.421 156.64 327.461 156.28 327.411 155.9C327.411 155.15 327.361 154.58 327.341 154.18C327.321 153.78 327.341 153.6 327.341 153.6C327.341 153.6 327.341 153.8 327.391 154.18C327.441 154.56 327.461 155.18 327.501 155.89C327.501 156.27 327.551 156.69 327.581 157.15C327.611 157.61 327.721 158.15 327.801 158.66C327.881 159.17 327.981 159.79 328.081 160.41C328.181 161.03 328.391 161.69 328.551 162.41C329.397 165.782 330.745 169.009 332.551 171.98C334.916 175.931 338.019 179.391 341.691 182.17L343.241 183.32C343.781 183.68 344.361 184.01 344.931 184.32C345.497 184.682 346.081 185.016 346.681 185.32L348.541 186.21L349.541 186.66L350.541 187.03L352.541 187.76C353.231 187.99 353.951 188.14 354.661 188.33C355.374 188.535 356.099 188.699 356.831 188.82C358.327 189.099 359.841 189.276 361.361 189.35C362.141 189.35 362.921 189.45 363.701 189.44L366.081 189.31C366.471 189.31 366.881 189.31 367.271 189.24L368.471 189.05C369.271 188.92 370.081 188.83 370.881 188.66C372.507 188.299 374.107 187.831 375.671 187.26C377.273 186.681 378.833 185.993 380.341 185.2C381.101 184.79 381.831 184.31 382.581 183.87C382.941 183.63 383.341 183.43 383.681 183.17L384.741 182.38C386.171 181.315 387.53 180.16 388.811 178.92L390.631 176.92L391.091 176.42L391.501 175.87L392.321 174.77L393.151 173.67L393.871 172.49L394.591 171.3L394.951 170.71L395.261 170.08C395.661 169.24 396.071 168.4 396.471 167.55C396.871 166.7 397.121 165.78 397.471 164.9C398.645 161.239 399.265 157.424 399.311 153.58C399.266 149.738 398.643 145.925 397.461 142.27L396.461 139.62C396.051 138.77 395.651 137.93 395.241 137.09L394.941 136.46L394.581 135.87L393.851 134.68L393.131 133.5L392.311 132.4L391.491 131.3L391.081 130.76L390.621 130.25L388.801 128.25C387.52 127.013 386.161 125.861 384.731 124.8L383.671 124.01C383.321 123.74 382.931 123.54 382.571 123.31C381.821 122.86 381.091 122.39 380.331 121.97C377.34 120.416 374.16 119.257 370.871 118.52C370.071 118.35 369.261 118.26 368.461 118.12L367.271 117.94C366.871 117.89 366.471 117.89 366.071 117.86L363.691 117.74C362.911 117.74 362.131 117.8 361.361 117.83C359.837 117.898 358.32 118.075 356.821 118.36C356.087 118.472 355.362 118.636 354.651 118.85C353.941 119.04 353.221 119.19 352.531 119.41L350.531 120.15L349.531 120.51L348.531 120.96L346.671 121.85C346.051 122.14 345.501 122.54 344.921 122.85C344.341 123.16 343.781 123.52 343.231 123.85L341.681 125.01C338.01 127.79 334.907 131.249 332.541 135.2C330.737 138.169 329.389 141.391 328.541 144.76C328.381 145.46 328.151 146.1 328.071 146.76C327.991 147.42 327.881 147.97 327.791 148.52C327.701 149.07 327.621 149.52 327.571 150.02C327.521 150.52 327.511 150.91 327.491 151.28L327.381 152.99C327.371 153.39 327.341 153.59 327.341 153.59Z" fill="#263238"/>
<path d="M313.631 176.251C313.629 177.412 313.972 178.549 314.616 179.516C315.26 180.482 316.177 181.236 317.25 181.682C318.323 182.127 319.504 182.244 320.644 182.018C321.783 181.792 322.83 181.233 323.652 180.411C324.473 179.59 325.032 178.543 325.259 177.403C325.485 176.264 325.368 175.083 324.922 174.01C324.477 172.937 323.723 172.02 322.756 171.376C321.789 170.731 320.653 170.389 319.491 170.391C317.937 170.393 316.449 171.012 315.35 172.11C314.252 173.208 313.634 174.697 313.631 176.251Z" fill="white"/>
<path d="M313.631 176.25C313.616 176.127 313.616 176.003 313.631 175.88C313.627 175.516 313.667 175.154 313.751 174.8C314.048 173.477 314.798 172.299 315.871 171.47C316.611 170.891 317.478 170.496 318.401 170.32C319.397 170.119 320.427 170.172 321.397 170.474C322.367 170.776 323.245 171.317 323.951 172.048C324.657 172.779 325.167 173.676 325.434 174.656C325.702 175.636 325.719 176.667 325.483 177.655C325.247 178.643 324.766 179.556 324.085 180.309C323.403 181.063 322.543 181.632 321.583 181.965C320.623 182.299 319.595 182.385 318.593 182.216C317.592 182.047 316.649 181.629 315.851 181C314.776 180.172 314.026 178.994 313.731 177.67C313.647 177.319 313.607 176.96 313.611 176.6C313.596 176.474 313.596 176.346 313.611 176.22C313.661 176.22 313.611 176.74 313.881 177.63C314.226 178.883 314.979 179.984 316.021 180.76C316.782 181.327 317.673 181.695 318.612 181.831C319.552 181.967 320.51 181.867 321.401 181.54C322.456 181.153 323.37 180.456 324.021 179.54C324.736 178.573 325.121 177.402 325.121 176.2C325.121 174.998 324.736 173.827 324.021 172.86C323.37 171.944 322.456 171.246 321.401 170.86C320.441 170.51 319.406 170.42 318.401 170.6C317.535 170.744 316.713 171.086 316.001 171.6C314.959 172.376 314.206 173.477 313.861 174.73C313.661 175.73 313.681 176.25 313.631 176.25Z" fill="#263238"/>
<path d="M361.73 145.46V160.7H358.18L351.45 152.58V160.7H347.23V145.46H350.78L357.51 153.58V145.46H361.73Z" fill="#263238"/>
<path d="M364 153.08C364 148.51 367.59 145.15 372.47 145.15C377.35 145.15 380.94 148.51 380.94 153.08C380.94 157.65 377.35 161.01 372.47 161.01C367.59 161.01 364 157.65 364 153.08ZM376.59 153.08C376.543 152.277 376.262 151.506 375.782 150.86C375.302 150.215 374.643 149.725 373.887 149.449C373.132 149.174 372.312 149.126 371.529 149.311C370.746 149.496 370.035 149.906 369.482 150.491C368.93 151.075 368.561 151.809 368.42 152.601C368.28 153.393 368.374 154.209 368.692 154.948C369.01 155.686 369.537 156.316 370.208 156.759C370.879 157.202 371.666 157.439 372.47 157.44C373.034 157.447 373.592 157.337 374.111 157.117C374.63 156.898 375.098 156.573 375.485 156.163C375.872 155.753 376.17 155.268 376.36 154.737C376.551 154.207 376.629 153.643 376.59 153.08Z" fill="#263238"/>
<path d="M310.534 102.72C326.527 96.4268 334.38 78.3347 328.075 62.3105C321.769 46.2863 303.692 38.398 287.699 44.6915C271.705 50.985 263.852 69.0771 270.158 85.1013C276.463 101.126 294.54 109.014 310.534 102.72Z" fill="white"/>
<path d="M286.7 102.26L287.17 102.45L288.55 102.99L289.55 103.39C289.93 103.51 290.36 103.61 290.82 103.74L292.31 104.14C292.881 104.281 293.458 104.392 294.04 104.47C297.013 104.993 300.048 105.057 303.04 104.66C307.021 104.183 310.872 102.94 314.38 101L315.85 100.17C316.32 99.86 316.79 99.51 317.26 99.17C317.73 98.83 318.26 98.52 318.68 98.17L320.05 96.99L321.31 95.8L321.38 95.72C321.81 95.28 322.24 94.82 322.67 94.37C323.1 93.92 323.46 93.37 323.86 92.88C324.274 92.3539 324.655 91.8029 325 91.23C325.743 90.1293 326.411 88.9801 327 87.79C327.29 87.18 327.63 86.58 327.89 85.95L328.89 83.29L329 83L329.27 82C329.44 81.31 329.65 80.63 329.8 79.93C330.076 78.5033 330.259 77.0603 330.35 75.61C330.45 74.1251 330.45 72.635 330.35 71.15C330.29 70.4 330.16 69.65 330.06 68.9C330 68.52 329.98 68.14 329.89 67.76L329.62 66.64C329.373 65.4244 329.039 64.228 328.62 63.06C328.39 62.48 328.15 61.9 327.92 61.31L327 59.47L326.7 58.95L326.11 57.95L325.51 56.95L324.82 55.95L324.12 54.95L323.77 54.45L323.37 53.98L320.21 50.64L319.98 50.42C314.954 45.887 308.584 43.12 301.84 42.54H301.55H296.92H296.31L295.7 42.63L294.5 42.79L293.3 42.96L292.13 43.24L290.97 43.52L290.39 43.66L288.48 44.31L286.72 45C285.574 45.4822 284.462 46.0401 283.39 46.67L282.39 47.25C282.06 47.44 281.76 47.68 281.45 47.89C280.83 48.34 280.2 48.76 279.6 49.22C277.317 51.0803 275.283 53.2281 273.55 55.61C273.14 56.19 272.78 56.81 272.4 57.41L271.84 58.3C271.788 58.3799 271.741 58.4635 271.7 58.55C271.28 59.41 270.86 60.25 270.44 61.09C270.16 61.72 269.95 62.37 269.71 63C269.239 64.2452 268.855 65.5216 268.56 66.82C268.401 67.4486 268.281 68.0865 268.2 68.73C268.11 69.36 267.98 69.99 267.93 70.62C267.88 71.25 267.85 71.88 267.82 72.5V74.32C267.82 74.93 267.87 75.53 267.89 76.13C267.91 76.73 268.04 77.3 268.1 77.88C268.16 78.46 268.25 79.02 268.35 79.58L268.74 81.22C269.698 85.1109 271.395 88.7811 273.74 92.03C275.498 94.4835 277.619 96.6551 280.03 98.47C280.481 98.8304 280.951 99.1643 281.44 99.47L282.75 100.29C283.16 100.53 283.53 100.78 283.88 100.97L284.88 101.45L286.22 102.09L286.68 102.3L286.24 102.06L284.92 101.38L283.92 100.89C283.57 100.69 283.2 100.44 282.8 100.19L281.5 99.37C281.02 99.0604 280.556 98.7266 280.11 98.37C277.754 96.5079 275.694 94.2995 274 91.82C271.655 88.5967 269.957 84.9494 269 81.08C268.87 80.54 268.74 80 268.62 79.45C268.5 78.9 268.46 78.33 268.38 77.76C268.283 77.184 268.216 76.6032 268.18 76.02C268.18 75.44 268.13 74.84 268.11 74.24C268.09 73.64 268.11 72.98 268.11 72.51V72.42L268.23 70.57C268.28 69.94 268.41 69.33 268.5 68.7C268.586 68.0639 268.706 67.4329 268.86 66.81C269.17 65.5144 269.567 64.2415 270.05 63C270.29 62.38 270.5 61.73 270.78 61.12C271.19 60.28 271.61 59.44 272.03 58.59C272.03 58.51 272.12 58.43 272.17 58.35C272.35 58.06 272.54 57.77 272.72 57.47C273.1 56.88 273.46 56.27 273.87 55.69C274.714 54.531 275.632 53.4286 276.62 52.39C277.63 51.3164 278.712 50.314 279.86 49.39C280.45 48.93 281.08 48.52 281.69 48.08C282 47.87 282.29 47.62 282.62 47.44L283.62 46.87C284.955 46.1141 286.338 45.446 287.76 44.87L289.98 44.12L290.54 43.93L291.11 43.79L292.26 43.52L293.42 43.24L294.61 43.08L295.79 42.91L296.39 42.83H296.99H301.59H301.86C308.524 43.4021 314.817 46.1379 319.78 50.62L320 50.83L323.13 54.14L323.53 54.6L323.87 55.09L324.57 56.09L325.25 57.09L325.84 58.09L326.43 59.09L326.72 59.6L326.96 60.14C327.29 60.85 327.61 61.56 327.96 62.27C328.502 63.7094 328.95 65.1825 329.3 66.68L329.56 67.79C329.65 68.16 329.67 68.54 329.73 68.91C329.83 69.66 329.96 70.4 330.02 71.14C330.125 72.6082 330.125 74.0819 330.02 75.55C329.936 76.9833 329.759 78.4097 329.49 79.82C329.34 80.52 329.14 81.19 328.97 81.82L328.7 82.82C328.68 82.9084 328.653 82.9953 328.62 83.08L327.62 85.72C327.36 86.35 327.03 86.94 326.75 87.54C326.159 88.7226 325.491 89.8651 324.75 90.96C324.402 91.4993 324.021 92.017 323.61 92.51C323.22 93.01 322.85 93.51 322.44 93.99L321.16 95.34L320.53 96L320.47 96.06L318.47 97.77C318.03 98.16 317.52 98.46 317.06 98.77C316.6 99.08 316.13 99.45 315.66 99.77L314.21 100.6C310.759 102.598 306.951 103.906 303 104.45C300.028 104.863 297.01 104.819 294.05 104.32C293.472 104.252 292.898 104.152 292.33 104.02L290.84 103.63C290.38 103.51 289.95 103.42 289.57 103.3L288.57 102.92L287.17 102.42L286.7 102.26Z" fill="#263238"/>
<path d="M274.271 115.8C273.188 115.604 272.199 115.06 271.452 114.252C270.705 113.444 270.242 112.415 270.131 111.32C270.021 110.225 270.269 109.124 270.84 108.183C271.41 107.242 272.271 106.512 273.293 106.104C274.314 105.695 275.441 105.63 276.503 105.918C277.565 106.206 278.504 106.832 279.179 107.701C279.854 108.57 280.228 109.635 280.245 110.735C280.261 111.835 279.92 112.911 279.271 113.8C278.709 114.568 277.942 115.163 277.058 115.517C276.174 115.871 275.208 115.969 274.271 115.8Z" fill="white"/>
<path d="M273.149 115.45C273.149 115.45 273.249 115.52 273.439 115.6C273.727 115.728 274.029 115.818 274.339 115.87C275.49 116.094 276.683 115.907 277.709 115.34C278.474 114.921 279.121 114.315 279.59 113.579C280.058 112.843 280.333 112.001 280.389 111.13C280.474 110.083 280.233 109.035 279.699 108.13C279.137 107.166 278.279 106.409 277.252 105.971C276.225 105.534 275.084 105.439 273.999 105.7C273.031 105.922 272.145 106.416 271.449 107.125C270.752 107.834 270.274 108.728 270.069 109.7C269.899 110.493 269.916 111.315 270.119 112.1C270.406 113.235 271.082 114.233 272.029 114.92C272.28 115.109 272.552 115.267 272.839 115.39C273.029 115.48 273.139 115.52 273.139 115.5C273.139 115.48 272.739 115.3 272.139 114.81C271.263 114.106 270.65 113.126 270.399 112.03C270.219 111.288 270.219 110.513 270.399 109.77C270.597 108.916 271.022 108.132 271.629 107.5C272.293 106.795 273.154 106.307 274.099 106.1C275.104 105.878 276.153 105.976 277.099 106.38C278.049 106.789 278.844 107.49 279.369 108.38C279.867 109.211 280.101 110.174 280.039 111.14C279.987 111.959 279.735 112.751 279.304 113.449C278.873 114.146 278.277 114.727 277.569 115.14C276.594 115.696 275.462 115.914 274.349 115.76C273.579 115.61 273.169 115.42 273.149 115.45Z" fill="#263238"/>
<path d="M290.29 68.4601H295C295 67.9254 295.107 67.3962 295.315 66.9035C295.522 66.4109 295.827 65.965 296.21 65.5921C296.593 65.2192 297.047 64.9269 297.545 64.7324C298.043 64.538 298.575 64.4454 299.11 64.4601C299.903 64.4294 300.686 64.647 301.349 65.0827C302.012 65.5183 302.523 66.1502 302.81 66.8901C303.058 67.5086 303.157 68.177 303.098 68.8409C303.039 69.5047 302.824 70.1452 302.47 70.7101C301.67 72.0301 299.92 73.2301 296.74 72.7101V83.2601H301.4V77.0001C303.313 76.4395 304.99 75.2659 306.171 73.6597C307.353 72.0536 307.974 70.1038 307.94 68.1101C307.94 61.2201 301.76 59.6201 299.11 59.6201C297.09 59.6601 290.2 60.1401 290.29 68.4601Z" fill="#263238"/>
<path d="M301.46 85.4502H296.73V89.8702H301.46V85.4502Z" fill="#263238"/>
</svg>
